<svg width="386" height="293" viewBox="0 0 386 293" fill="none" xmlns="http://www.w3.org/2000/svg">
<g filter="url(#filter0_f_4_8529)">
<ellipse cx="154.65" cy="189.632" rx="94.107" ry="34.298" fill="#121212"/>
</g>
<g filter="url(#filter1_f_4_8529)">
<ellipse cx="260.097" cy="208.906" rx="65.7616" ry="24.0937" fill="#121212"/>
</g>
<path d="M163.73 27.0904L168.421 17.2858L146.076 4.38914C143.649 2.96965 141.046 1.87669 138.333 1.13856C137.395 0.887495 136.43 0.67608 135.466 0.504301C130.665 -0.282232 125.759 -0.147705 121.01 0.900708C119.245 1.26739 117.502 1.73505 115.79 2.30137C113.958 2.89765 112.158 3.59013 110.399 4.37593C108.027 5.41704 105.719 6.5996 103.488 7.91722C101.003 9.36855 98.5952 10.9475 96.2735 12.6477C94.5117 13.9603 92.7498 15.3478 90.988 16.8101C65.4854 38.3353 45.4269 76.7345 40.3396 113.654C39.9873 116.164 39.7098 118.666 39.5072 121.159C39.2033 124.727 39.0579 128.268 39.0711 131.73C39.0711 134.598 39.1901 137.372 39.4147 140.042C39.5997 142.354 39.864 144.6 40.1943 146.767C40.5246 148.935 40.9343 150.996 41.3968 153.004C42.6355 158.543 44.646 163.881 47.3694 168.861C47.9111 169.852 48.4926 170.803 49.0872 171.715C51.5171 175.5 54.5944 178.828 58.1782 181.546C59.253 182.338 60.3737 183.066 61.5345 183.726L82.7559 195.962L87.0503 186.99C88.1999 186.739 89.3495 186.448 90.5123 186.092C95.2371 184.633 99.7741 182.624 104.03 180.106C106.769 178.492 109.415 176.727 111.958 174.82C115.378 172.255 118.635 169.479 121.71 166.509C142.997 146.027 159.752 113.984 165.884 82.0861C166.799 77.4065 167.474 72.683 167.905 67.9341C168.249 63.97 168.434 60.138 168.421 56.306C168.436 50.7821 167.994 45.2663 167.099 39.8152C166.366 35.4799 165.238 31.2206 163.73 27.0904Z" fill="url(#paint0_linear_4_8529)"/>
<path opacity="0.25" d="M45.0156 91.8116L88.4889 116.918L93.9859 101.061L50.4597 75.9551C48.3984 81.1349 46.5616 86.4468 45.0156 91.8116Z" fill="white"/>
<path opacity="0.25" d="M146.072 4.38914C143.646 2.96965 141.042 1.87669 138.329 1.13856C137.391 0.887495 136.426 0.67608 135.462 0.504301C130.662 -0.282232 125.756 -0.147705 121.006 0.900708C120.372 1.03285 119.684 1.19141 119.09 1.36319L163.766 27.1565C163.761 27.1214 163.761 27.0858 163.766 27.0508L168.456 17.2461L146.072 4.38914Z" fill="white"/>
<path opacity="0.25" d="M143.402 66.2959L148.899 59.689L84.6007 22.6904C82.6186 24.6637 80.6762 26.7294 78.7734 28.8877L143.402 66.2959Z" fill="white"/>
<path opacity="0.25" d="M65.5078 46.5673L121.442 78.8617L127.401 63.2827L75.1935 33.1289C71.7234 37.4292 68.49 41.9153 65.5078 46.5673Z" fill="white"/>
<path opacity="0.4" d="M146.075 4.38914C143.648 2.96965 141.045 1.87668 138.332 1.13856C137.394 0.887495 136.429 0.67608 135.464 0.504301C130.664 -0.282232 125.758 -0.147705 121.008 0.900708C119.243 1.26739 117.501 1.73505 115.789 2.30137C113.957 2.89765 112.157 3.59013 110.398 4.37593C108.025 5.41704 105.718 6.59959 103.487 7.91722C101.002 9.36855 98.594 10.9475 96.2723 12.6477C94.5105 13.9603 92.7486 15.3478 90.9868 16.8101C67.202 36.8554 48.2138 71.5151 41.5938 105.977L130.337 157.259C147.515 137.055 160.61 109.531 165.882 82.0993C166.798 77.4197 167.473 72.6962 167.904 67.9473C168.248 63.9832 168.433 60.1512 168.419 56.3192C168.434 50.7953 167.992 45.2796 167.098 39.8285C166.378 35.4899 165.264 31.2262 163.768 27.0904L168.459 17.2858L146.075 4.38914Z" fill="white"/>
<path opacity="0.1" d="M82.7516 195.963L87.0461 186.991C88.1957 186.739 89.3453 186.449 90.5081 186.092C95.2329 184.633 99.7699 182.624 104.026 180.106C106.764 178.492 109.411 176.728 111.954 174.821C115.374 172.255 118.631 169.48 121.706 166.509C124.738 163.576 127.618 160.488 130.334 157.26L41.5907 106.017C41.0974 108.554 40.657 111.091 40.2694 113.628C39.8818 116.165 39.6043 118.667 39.4369 121.133C39.133 124.701 38.9876 128.242 39.0008 131.704C39.0008 134.572 39.1197 137.346 39.3444 140.016C39.5294 142.328 39.7937 144.574 40.124 146.741C40.4543 148.908 40.864 150.97 41.3264 152.978C42.5652 158.517 44.5757 163.855 47.2991 168.835C47.8408 169.826 48.4222 170.777 49.0168 171.689C51.4467 175.474 54.5241 178.802 58.1079 181.52C59.1827 182.312 60.3034 183.04 61.4642 183.7L82.7516 195.963Z" fill="black"/>
<path opacity="0.1" d="M47.3639 168.835C47.9057 169.826 48.4871 170.777 49.0817 171.689C51.5116 175.474 54.5889 178.802 58.1728 181.52C59.2476 182.313 60.3683 183.041 61.5291 183.701L82.7504 195.936L87.0449 186.964H87.2166L87.5338 183.291L42.5938 157.26C43.7586 161.28 45.3581 165.161 47.3639 168.835Z" fill="black"/>
<path d="M189.018 52.5001C188.11 46.8622 186.494 41.3614 184.208 36.1283C181.478 29.5965 177.142 23.8605 171.602 19.4525C168.234 16.8564 164.385 14.9523 160.278 13.8499C159.34 13.5988 158.375 13.4006 157.41 13.2288C152.612 12.4311 147.704 12.5612 142.955 13.612C141.19 13.985 139.447 14.457 137.735 15.0259C135.907 15.6154 134.111 16.3035 132.357 17.0872C129.985 18.1387 127.674 19.321 125.433 20.6285C122.947 22.0828 120.539 23.6662 118.218 25.3723C116.448 26.6937 114.677 28.015 112.933 29.5214C87.4303 51.0466 67.3718 89.4062 62.2845 126.299C61.9233 128.827 61.6458 131.329 61.452 133.804C61.1525 137.328 61.0072 140.852 61.016 144.375C61.016 147.23 61.1482 150.005 61.3596 152.674C61.5446 154.999 61.8088 157.232 62.1392 159.399C62.4695 161.567 62.8791 163.641 63.3548 165.65C64.5928 171.187 66.5987 176.524 69.3142 181.506C69.8692 182.484 70.4374 183.435 71.032 184.347C73.459 188.139 76.5419 191.468 80.1363 194.178C85.3349 198.091 91.5939 200.343 98.0938 200.64C102.955 200.859 107.816 200.224 112.457 198.763C117.184 197.31 121.722 195.301 125.975 192.777C128.715 191.167 131.362 189.402 133.903 187.492C137.326 184.93 140.583 182.154 143.655 179.18C164.942 158.699 181.697 126.656 187.842 94.771C188.723 90.0228 189.392 85.3011 189.85 80.6058C190.207 76.6417 190.379 72.8097 190.366 68.9777C190.377 63.4572 189.927 57.9454 189.018 52.5001Z" fill="url(#paint1_linear_4_8529)"/>
<path opacity="0.05" d="M63.5668 118.648C63.0779 121.199 62.6419 123.749 62.2455 126.299C61.849 128.849 61.6112 131.32 61.413 133.805C61.1135 137.328 60.9681 140.852 60.9769 144.376C60.9769 147.23 61.1091 150.005 61.3205 152.674C61.5055 155 61.7698 157.233 62.1001 159.4C62.4305 161.567 62.8401 163.641 63.3158 165.65C64.5537 171.187 66.5596 176.524 69.2752 181.506C69.8302 182.484 70.3983 183.436 70.993 184.347C73.4199 188.139 76.5029 191.468 80.0973 194.178C85.3069 198.099 91.5808 200.351 98.0944 200.64C102.955 200.86 107.817 200.224 112.458 198.763C117.185 197.31 121.722 195.301 125.975 192.778C128.367 191.377 130.706 189.818 133.032 188.126L63.5668 118.648Z" fill="black"/>
<path opacity="0.05" d="M64.5703 170.156C65.7432 174.104 67.3381 177.914 69.3273 181.52C69.8823 182.498 70.4504 183.449 71.045 184.361C73.472 188.153 76.5549 191.482 80.1494 194.192C84.4139 197.395 89.4095 199.484 94.6845 200.27L64.5703 170.156Z" fill="black"/>
<path opacity="0.25" d="M72.4035 88.627C70.3289 93.8332 68.5187 99.198 66.9727 104.483L142.635 180.146L143.665 179.181C146.928 176.008 150.016 172.66 152.915 169.152L72.4035 88.627Z" fill="white"/>
<path opacity="0.25" d="M97.1431 45.8145C93.6953 50.1117 90.484 54.5934 87.5234 59.2396L170.77 142.486C173.413 137.439 175.937 132.153 178.157 126.868L97.1431 45.8145Z" fill="white"/>
<path opacity="0.25" d="M106.586 35.3496C104.59 37.3317 102.622 39.4195 100.719 41.5865L180.345 121.213C181.455 118.24 182.499 115.24 183.45 112.201L106.586 35.3496Z" fill="white"/>
<path opacity="0.25" d="M190.192 63.2429C190.113 61.6969 189.98 60.1905 189.835 58.7106C189.835 58.2217 189.743 57.7196 189.69 57.2439C189.637 56.7682 189.571 56.2396 189.505 55.7375C189.359 54.6408 189.201 53.5572 189.016 52.5001C188.108 46.8622 186.492 41.3614 184.206 36.1283C181.476 29.5965 177.14 23.8605 171.6 19.4525C168.232 16.8564 164.383 14.9523 160.276 13.8499C159.338 13.5988 158.386 13.4006 157.409 13.2288C152.61 12.4311 147.702 12.5612 142.953 13.612C142.318 13.7442 141.631 13.9159 141.023 14.0745L190.192 63.2429Z" fill="white"/>
<path d="M173.896 78.8883C173.896 112.927 154.076 152.238 128.969 168.953C127.912 169.654 126.829 170.341 125.732 170.962C99.1196 186.329 77.5547 170.024 77.5547 134.531C77.5547 99.0393 99.1196 57.8123 125.732 42.4447C126.829 41.8237 127.912 41.2555 128.969 40.7269C154.049 28.4513 173.896 44.8496 173.896 78.8883Z" fill="url(#paint2_linear_4_8529)"/>
<path opacity="0.4" d="M173.896 78.8883C173.896 112.927 154.076 152.238 128.969 168.953C127.912 169.654 126.829 170.341 125.732 170.962C99.1196 186.329 77.5547 170.024 77.5547 134.531C77.5547 99.0393 99.1196 57.8123 125.732 42.4447C126.829 41.8237 127.912 41.2555 128.969 40.7269C154.049 28.4513 173.896 44.8496 173.896 78.8883Z" fill="black"/>
<path d="M171.76 80.1308C171.76 81.2143 171.76 82.3243 171.681 83.4342C170.465 115.147 151.979 150.745 128.789 166.179L128.168 166.588C127.349 167.117 126.529 167.632 125.697 168.108C121.267 170.792 116.357 172.587 111.241 173.394C100.432 174.873 91.4204 170.13 85.7914 160.444C82.5143 154.749 80.4133 147.349 79.8319 138.483C79.713 136.818 79.6602 135.1 79.6602 133.329C79.6602 131.559 79.6602 130.066 79.8055 128.414C79.9992 124.907 80.3874 121.413 80.9683 117.949C85.0382 93.437 98.1462 68.4234 114.743 53.4125C117.057 51.3147 119.512 49.3766 122.09 47.6117C123.279 46.8057 124.481 46.0393 125.697 45.3389C126.913 44.6386 127.785 44.1893 128.789 43.6872L129.661 43.2908C136.559 40.0799 143.007 39.1549 148.702 40.2516C158.388 42.1148 165.88 49.8448 169.434 62.1865C171.044 68.0299 171.827 74.0701 171.76 80.1308Z" fill="url(#paint3_linear_4_8529)"/>
<path opacity="0.7" d="M171.76 80.1308C171.76 81.2143 171.76 82.3243 171.681 83.4342C170.465 115.147 151.979 150.745 128.789 166.179L128.168 166.588C127.349 167.117 126.529 167.632 125.697 168.108C121.267 170.792 116.357 172.587 111.241 173.394C100.432 174.873 91.4204 170.13 85.7914 160.444C82.5143 154.749 80.4133 147.349 79.8319 138.483C79.713 136.818 79.6602 135.1 79.6602 133.329C79.6602 131.559 79.6602 130.066 79.8055 128.414C79.9992 124.907 80.3874 121.413 80.9683 117.949C85.0382 93.437 98.1462 68.4234 114.743 53.4125C117.057 51.3147 119.512 49.3766 122.09 47.6117C123.279 46.8057 124.481 46.0393 125.697 45.3389C126.913 44.6386 127.785 44.1893 128.789 43.6872L129.661 43.2908C136.559 40.0799 143.007 39.1549 148.702 40.2516C158.388 42.1148 165.88 49.8448 169.434 62.1865C171.044 68.0299 171.827 74.0701 171.76 80.1308Z" fill="black"/>
<path d="M164.045 78.9945C164.045 77.8845 164.045 76.7745 164.045 75.6778C164.119 69.6132 163.341 63.5683 161.733 57.7203C159.645 50.5188 156.223 44.9029 151.823 41.0842C150.782 40.7238 149.718 40.4368 148.638 40.2253C142.943 39.1285 136.495 40.0535 129.597 43.2644L128.725 43.6609C127.721 44.163 126.677 44.718 125.633 45.3126C124.589 45.9072 123.215 46.7793 122.026 47.5853C119.448 49.3503 116.993 51.2883 114.679 53.3862C98.0954 68.397 85.0402 93.4107 80.9175 117.922C80.3366 121.386 79.9484 124.88 79.7547 128.388C79.649 130.039 79.6094 131.665 79.6094 133.303C79.6094 134.942 79.6094 136.791 79.7812 138.456C80.3626 147.323 82.4239 154.723 85.7405 160.418C87.3328 163.223 89.3828 165.741 91.8057 167.87C95.5785 169.145 99.5996 169.507 103.539 168.927C108.658 168.115 113.572 166.32 118.009 163.642C118.841 163.166 119.66 162.651 120.466 162.122L121.101 161.713C144.344 146.292 162.843 110.721 164.045 78.9945Z" fill="url(#paint4_linear_4_8529)"/>
<path opacity="0.6" d="M164.045 78.9945C164.045 77.8845 164.045 76.7745 164.045 75.6778C164.119 69.6132 163.341 63.5683 161.733 57.7203C159.645 50.5188 156.223 44.9029 151.823 41.0842C150.782 40.7238 149.718 40.4368 148.638 40.2253C142.943 39.1285 136.495 40.0535 129.597 43.2644L128.725 43.6609C127.721 44.163 126.677 44.718 125.633 45.3126C124.589 45.9072 123.215 46.7793 122.026 47.5853C119.448 49.3503 116.993 51.2883 114.679 53.3862C98.0954 68.397 85.0402 93.4107 80.9175 117.922C80.3366 121.386 79.9484 124.88 79.7547 128.388C79.649 130.039 79.6094 131.665 79.6094 133.303C79.6094 134.942 79.6094 136.791 79.7812 138.456C80.3626 147.323 82.4239 154.723 85.7405 160.418C87.3328 163.223 89.3828 165.741 91.8057 167.87C95.5785 169.145 99.5996 169.507 103.539 168.927C108.658 168.115 113.572 166.32 118.009 163.642C118.841 163.166 119.66 162.651 120.466 162.122L121.101 161.713C144.344 146.292 162.843 110.721 164.045 78.9945Z" fill="black"/>
<path d="M157.411 13.2288C153.291 12.5875 149.092 12.6411 144.99 13.3873C142.956 13.7894 140.945 14.2966 138.964 14.9069C138.463 15.0354 137.969 15.1898 137.484 15.3694L136.044 15.9376L133.137 17.0872C129.339 18.7483 125.695 20.7425 122.249 23.0466C120.518 24.2226 118.827 25.359 117.228 26.6936C115.629 28.0282 113.898 29.2571 112.418 30.6577C110.938 32.0584 109.286 33.4194 107.833 34.8861C106.379 36.3529 104.899 37.8064 103.512 39.3524L99.4155 43.9904L95.4513 48.9059L91.7779 53.9272C90.5755 55.6185 89.4655 57.376 88.3027 59.0938C86.0828 62.5954 83.9157 66.1367 81.9733 69.7969L80.4802 72.5322L79.1588 75.3203C78.2338 77.1834 77.2824 79.0201 76.516 80.9361C74.785 84.702 73.239 88.5604 71.7194 92.4189L69.6449 98.2858C68.9842 100.255 68.416 102.25 67.7949 104.232C67.1739 106.214 66.7114 108.196 66.1564 110.231C65.6014 112.266 65.1786 114.195 64.7426 116.283L64.0951 119.335L63.5797 122.401C63.2494 124.462 62.8662 126.458 62.6812 128.545C62.4962 130.633 62.1923 132.694 62.0073 134.743C61.8223 136.791 61.7034 138.878 61.6373 140.94C61.6373 141.984 61.6373 143.014 61.5712 144.058C61.5052 145.102 61.6373 146.12 61.6637 147.15C61.7562 149.225 61.7695 151.352 61.928 153.361L62.6151 159.545L63.7647 165.676V165.755V165.676C64.9653 171.156 66.8987 176.45 69.5127 181.414C70.213 182.603 70.9002 183.858 71.6666 185.021C72.433 186.184 73.2787 187.32 74.164 188.404C75.9425 190.583 77.969 192.548 80.2026 194.257C77.9256 192.592 75.8503 190.668 74.0186 188.523C73.1069 187.452 72.2348 186.342 71.3759 185.18C70.517 184.017 69.8827 182.801 69.1163 181.599C66.3582 176.658 64.3034 171.357 63.0116 165.848V165.755V165.821L61.7827 159.69L61.003 153.466C60.8048 151.326 60.7784 149.291 60.6595 147.203C60.6595 146.146 60.5538 145.142 60.5274 144.058C60.5009 142.975 60.5274 141.957 60.5274 140.913C60.5274 138.826 60.6727 136.738 60.8181 134.65C60.9634 132.562 61.2541 130.501 61.4655 128.413C61.677 126.325 62.0205 124.251 62.3509 122.203L62.853 119.111L63.4872 116.045C63.9101 113.997 64.3329 111.949 64.8879 109.927C65.4429 107.905 65.8657 105.857 66.5132 103.875C67.1607 101.893 67.6892 99.9111 68.3499 97.8762L70.4245 91.9564L72.7236 86.1291C73.4636 84.1735 74.4018 82.2971 75.2343 80.3811C76.0668 78.4651 77.0314 76.602 77.9563 74.7388L79.357 71.9243L80.9162 69.123C82.8983 65.4364 85.0917 61.8686 87.3513 58.3538C88.5141 56.6228 89.6505 54.8653 90.8662 53.1608L94.5925 48.1131L98.5566 43.2504C99.878 41.6648 101.345 40.132 102.745 38.586C104.146 37.04 105.705 35.6129 107.172 34.1197C108.639 32.6266 110.277 31.3316 111.823 29.931C113.369 28.5303 115.087 27.2882 116.726 26.0329C118.37 24.7329 120.081 23.5199 121.852 22.3991C125.358 20.1 129.08 18.1483 132.965 16.5719L135.885 15.4751L137.352 14.9333C137.851 14.7652 138.358 14.6241 138.872 14.5105C140.879 13.9315 142.917 13.4639 144.977 13.1099C149.099 12.4518 153.302 12.492 157.411 13.2288Z" fill="#F5F5F5"/>
<path d="M115.004 57.4032L122.959 62.0148L134.389 55.408L126.434 50.8096L115.004 57.4032Z" fill="url(#paint5_linear_4_8529)"/>
<path opacity="0.2" d="M115.004 57.4032L122.959 62.0148L134.389 55.408L126.434 50.8096L115.004 57.4032Z" fill="black"/>
<path d="M118.984 64.3005L111.029 59.7021L99.5859 66.2958L107.554 70.9074L118.984 64.3005Z" fill="url(#paint6_linear_4_8529)"/>
<path opacity="0.2" d="M118.984 64.3005L111.029 59.7021L99.5859 66.2958L107.554 70.9074L118.984 64.3005Z" fill="black"/>
<path d="M99.5851 74.502L107.553 79.1004L99.5851 83.7119L91.6172 79.1004L99.5851 74.502Z" fill="url(#paint7_linear_4_8529)"/>
<path opacity="0.2" d="M99.5851 74.502L107.553 79.1004L99.5851 83.7119L91.6172 79.1004L99.5851 74.502Z" fill="black"/>
<path d="M91.6172 94.3361L99.5851 98.9476V83.7122L91.6172 79.1006V94.3361Z" fill="url(#paint8_linear_4_8529)"/>
<path opacity="0.35" d="M91.6172 94.3361L99.5851 98.9476V83.7122L91.6172 79.1006V94.3361Z" fill="black"/>
<path d="M99.5859 66.2959V74.5016L107.554 79.1V70.9075L99.5859 66.2959Z" fill="url(#paint9_linear_4_8529)"/>
<path opacity="0.35" d="M99.5859 66.2959V74.5016L107.554 79.1V70.9075L99.5859 66.2959Z" fill="black"/>
<path d="M115.004 57.4033V62.0017L118.981 64.3009V72.5067L122.959 70.2075V62.0149L115.004 57.4033Z" fill="url(#paint10_linear_4_8529)"/>
<path opacity="0.35" d="M115.004 57.4033V62.0017L118.981 64.3009V72.5067L122.959 70.2075V62.0149L115.004 57.4033Z" fill="black"/>
<path d="M91.6172 141.523L99.5851 146.134L105.003 143.003L97.048 138.404L91.6172 141.523Z" fill="url(#paint11_linear_4_8529)"/>
<path opacity="0.2" d="M91.6172 141.523L99.5851 146.134L105.003 143.003L97.048 138.404L91.6172 141.523Z" fill="black"/>
<path d="M97.0469 138.403L105.002 143.002V95.8154L99.5839 98.9471L97.0469 97.4804V138.403Z" fill="url(#paint12_linear_4_8529)"/>
<path opacity="0.45" d="M97.0469 138.403L105.002 143.002V95.8154L99.5839 98.9471L97.0469 97.4804V138.403Z" fill="black"/>
<path d="M91.6172 141.521L99.5851 146.133V161.382L91.6172 156.77V141.521Z" fill="url(#paint13_linear_4_8529)"/>
<path opacity="0.35" d="M91.6172 141.521L99.5851 146.133V161.382L91.6172 156.77V141.521Z" fill="black"/>
<path d="M107.555 156.771V163.47L101.754 160.127L107.555 156.771Z" fill="url(#paint14_linear_4_8529)"/>
<path opacity="0.45" d="M107.555 156.771V163.47L101.754 160.127L107.555 156.771Z" fill="black"/>
<path d="M122.962 147.878V154.577L118.984 152.278V150.177L122.962 147.878Z" fill="url(#paint15_linear_4_8529)"/>
<path opacity="0.45" d="M122.962 147.878V154.577L118.984 152.278V150.177L122.962 147.878Z" fill="black"/>
<path d="M138.09 62.5036C138.562 62.4216 139.039 62.3774 139.518 62.3715C141.015 62.3191 142.501 62.6609 143.825 63.3625L136.095 58.8831C135.555 58.5732 134.984 58.3207 134.391 58.1299V63.6929C135.094 63.3568 135.823 63.0784 136.571 62.8604C136.932 62.7537 137.298 62.6655 137.668 62.5961L138.09 62.5036Z" fill="url(#paint16_linear_4_8529)"/>
<path opacity="0.2" d="M138.09 62.5036C138.562 62.4216 139.039 62.3774 139.518 62.3715C141.015 62.3191 142.501 62.6609 143.825 63.3625L136.095 58.8831C135.555 58.5732 134.984 58.3207 134.391 58.1299V63.6929C135.094 63.3568 135.823 63.0784 136.571 62.8604C136.932 62.7537 137.298 62.6655 137.668 62.5961L138.09 62.5036Z" fill="black"/>
<path d="M140.371 113.509V114.831C140.371 119.125 137.728 124.08 134.53 125.983L118.489 135.233L116.414 136.422V127.172L126.589 121.306C129.76 119.456 132.376 114.54 132.429 110.285L133.129 109.876L134.53 109.056C137.728 107.233 140.371 109.228 140.371 113.509Z" fill="url(#paint17_linear_4_8529)"/>
<path opacity="0.45" d="M140.371 113.509V114.831C140.371 119.125 137.728 124.08 134.53 125.983L118.489 135.233L116.414 136.422V127.172L126.589 121.306C129.76 119.456 132.376 114.54 132.429 110.285L133.129 109.876L134.53 109.056C137.728 107.233 140.371 109.228 140.371 113.509Z" fill="black"/>
<path d="M138.368 83.5138V84.7031C138.368 88.5351 136.029 93.0013 133.083 94.6663L116.367 104.312V95.0627L125.115 90.015C126.561 88.9915 127.769 87.6687 128.659 86.1365C129.548 84.6043 130.097 82.8986 130.268 81.1354L133.083 79.5101C136.029 77.9773 138.368 79.6686 138.368 83.5138Z" fill="url(#paint18_linear_4_8529)"/>
<path opacity="0.45" d="M138.368 83.5138V84.7031C138.368 88.5351 136.029 93.0013 133.083 94.6663L116.367 104.312V95.0627L125.115 90.015C126.561 88.9915 127.769 87.6687 128.659 86.1365C129.548 84.6043 130.097 82.8986 130.268 81.1354L133.083 79.5101C136.029 77.9773 138.368 79.6686 138.368 83.5138Z" fill="black"/>
<path d="M146.44 93.3581C148.562 88.5491 149.703 83.365 149.796 78.1095V76.907C149.796 65.3185 143.044 59.5573 134.389 63.6932V55.4082L122.959 62.0151V70.2076L118.995 72.5068V64.3011L107.565 70.9079V79.1005L99.6367 83.7121V98.9476L105.054 95.8159V143.002L99.6367 146.134V161.369L107.565 156.771V163.47L118.995 156.863V150.164L122.959 147.865V154.617L134.389 148.01V141.271L134.561 141.179C144.075 135.682 151.831 120.882 151.831 108.144V106.823C151.831 100.652 149.862 95.7234 146.44 93.3581ZM138.366 83.5139V84.7031C138.366 88.5351 136.027 93.0146 133.081 94.6663L116.365 104.326V89.2222L118.44 88.0198L133.081 79.563C136.027 77.9773 138.366 79.6819 138.366 83.5139ZM116.431 119.561L133.147 109.915L134.561 109.096C137.772 107.233 140.401 109.215 140.401 113.509V114.831C140.401 119.125 137.758 124.08 134.561 125.996L118.506 135.246L116.431 136.448V119.561Z" fill="url(#paint19_linear_4_8529)"/>
<path opacity="0.3" d="M134.391 63.6928V59.3719L131.88 56.8613L124.203 61.3012L148.86 85.9052C149.463 83.3317 149.777 80.6992 149.798 78.0562V76.8537C149.798 76.0873 149.798 75.3474 149.706 74.6338L137.615 62.5433C136.497 62.792 135.414 63.1782 134.391 63.6928Z" fill="white"/>
<path opacity="0.3" d="M138.356 83.2627C138.356 83.342 138.356 83.4345 138.356 83.527V84.7162C138.356 88.5482 136.017 93.0277 133.07 94.6794L128.961 97.0579L150.262 118.358C151.216 115.054 151.718 111.636 151.755 108.197V106.876C151.755 100.612 149.786 95.6836 146.363 93.3184C146.562 92.8427 146.747 92.3538 146.945 91.8648L138.356 83.2627Z" fill="white"/>
<path opacity="0.3" d="M121.204 133.66L118.508 135.206L116.434 136.408V128.89L105.004 117.46V138.747L118.984 152.728V150.177L122.961 147.878V154.577L134.391 147.971V146.847L121.204 133.66Z" fill="white"/>
<path opacity="0.25" d="M119.459 87.4646L133.148 79.5363C133.485 79.3485 133.839 79.1936 134.205 79.0738L122.96 67.8289V70.181L118.996 72.4802V64.2744L107.566 70.8813V75.5325L119.459 87.4646Z" fill="white"/>
<path d="M105.002 95.8157V143.002C105.134 141.033 105.2 139.038 105.292 137.109C105.385 135.18 105.411 133.145 105.477 131.202C105.596 127.238 105.649 123.34 105.662 119.416C105.675 115.491 105.662 111.487 105.662 107.616C105.662 105.647 105.596 103.651 105.543 101.722L105.371 95.8157V95.2607L104.922 95.5514C103.165 96.6878 101.394 97.7846 99.6367 98.9474L105.002 95.8157Z" fill="#F5F5F5"/>
<path d="M110.607 69.5863C111.598 69.1238 112.589 68.6217 113.567 68.1196C114.545 67.6174 115.509 67.0757 116.461 66.5339C117.108 66.1771 117.782 65.794 118.39 65.4108C118.39 66.415 118.469 67.406 118.535 68.4103C118.535 69.0842 118.641 69.7316 118.72 70.4584C118.8 71.1852 118.866 71.7798 118.985 72.5065V64.3008L107.555 70.9077C108.07 70.7095 108.585 70.4848 109.087 70.2602C109.59 70.0356 110.105 69.8241 110.607 69.5863Z" fill="#F5F5F5"/>
<path d="M126.013 60.6937C127.004 60.218 127.995 59.7291 128.973 59.2138C130.612 58.3681 132.211 57.4431 133.796 56.5049C133.796 57.5224 133.862 58.5399 133.942 59.5573C133.942 60.2444 134.047 60.8787 134.127 61.6187C134.206 62.3586 134.272 62.9401 134.391 63.6932V55.4082L122.961 62.0151C123.476 61.8169 123.992 61.5922 124.494 61.3676C124.996 61.143 125.511 60.9316 126.013 60.6937Z" fill="#F5F5F5"/>
<path d="M138.369 83.5139V84.7031C138.369 88.5351 136.03 93.0146 133.084 94.6663L116.395 104.312L117.98 103.559C118.958 103.057 120.398 102.383 122.076 101.485C123.755 100.586 125.723 99.5686 127.811 98.419L131.009 96.6351L132.647 95.697L133.467 95.2345C133.765 95.0547 134.052 94.8561 134.326 94.6399C135.384 93.7958 136.279 92.7659 136.968 91.6007C137.617 90.5008 138.115 89.3185 138.448 88.0858C138.768 86.9338 138.906 85.7391 138.858 84.5445C138.883 83.478 138.749 82.4137 138.461 81.3864C138.213 80.4707 137.628 79.6826 136.823 79.1797C136.202 78.8145 135.466 78.6966 134.762 78.8494C134.33 78.9428 133.915 79.1033 133.533 79.3251L133.15 79.5629C136.043 77.9773 138.369 79.6951 138.369 83.5139Z" fill="#F5F5F5"/>
<path d="M140.892 114.487C140.907 113.308 140.733 112.135 140.377 111.011C140.082 110.018 139.427 109.169 138.54 108.633C137.856 108.241 137.049 108.123 136.281 108.303C135.816 108.405 135.371 108.579 134.959 108.818L134.523 109.082H134.629C137.8 107.312 140.377 109.28 140.377 113.535V114.857C140.377 119.151 137.734 124.106 134.536 126.022L118.482 135.272L116.434 136.461L118.138 135.629C119.222 135.06 120.781 134.307 122.644 133.303C124.507 132.299 126.608 131.189 128.947 129.92L132.462 127.951C133.727 127.286 134.945 126.535 136.109 125.705C138.237 123.762 139.744 121.234 140.443 118.438C140.79 117.15 140.941 115.819 140.892 114.487Z" fill="#F5F5F5"/>
<path d="M151.835 108.183V106.862C151.835 100.599 149.866 95.67 146.444 93.3047L146.907 93.7143C147.336 94.1237 147.734 94.5654 148.096 95.0357C149.331 96.6736 150.2 98.5569 150.646 100.559C150.976 101.884 151.175 103.238 151.241 104.602C151.319 106.134 151.319 107.669 151.241 109.201C151.22 110.006 151.154 110.808 151.043 111.606C150.95 112.412 150.844 113.231 150.686 114.05C150.527 114.87 150.382 115.702 150.17 116.521C149.959 117.341 149.761 118.16 149.496 118.966C149.232 119.772 149.008 120.591 148.717 121.384C148.426 122.177 148.135 122.97 147.805 123.736C147.475 124.502 147.144 125.269 146.788 126.009C146.451 126.755 146.077 127.482 145.664 128.189C145.295 128.903 144.911 129.576 144.502 130.237C144.092 130.898 143.735 131.559 143.312 132.14C142.551 133.283 141.73 134.385 140.855 135.443C140.009 136.408 139.243 137.293 138.476 138.007C137.842 138.639 137.176 139.239 136.481 139.804C135.278 140.716 134.578 141.218 134.578 141.218C144.079 135.681 151.835 120.882 151.835 108.183Z" fill="#F5F5F5"/>
<path d="M112.972 159.652C111.088 160.81 109.279 162.085 107.555 163.47L118.985 156.863V150.164C118.655 152.259 118.456 154.373 118.39 156.493C116.54 157.48 114.734 158.533 112.972 159.652Z" fill="#F5F5F5"/>
<path d="M134.391 141.271C134.087 143.399 133.955 145.513 133.849 147.627C131.973 148.579 130.149 149.623 128.365 150.733C126.477 151.888 124.671 153.172 122.961 154.578L134.391 147.971V141.271Z" fill="#F5F5F5"/>
<path d="M266.49 94.9634L269.779 88.0878L254.11 79.0438C252.408 78.0483 250.582 77.2819 248.68 76.7643C248.022 76.5882 247.345 76.4399 246.669 76.3195C243.303 75.7679 239.862 75.8622 236.532 76.5975C235.294 76.8546 234.072 77.1826 232.871 77.5797C231.586 77.9978 230.324 78.4835 229.091 79.0345C227.427 79.7646 225.809 80.5939 224.244 81.5179C222.502 82.5357 220.813 83.6429 219.185 84.8353C217.949 85.7557 216.714 86.7287 215.478 87.7542C197.594 102.849 183.528 129.777 179.96 155.667C179.713 157.428 179.519 159.182 179.377 160.931C179.164 163.433 179.062 165.916 179.071 168.344C179.071 170.354 179.154 172.3 179.312 174.172C179.442 175.794 179.627 177.369 179.859 178.889C180.09 180.409 180.377 181.854 180.702 183.263C181.57 187.147 182.98 190.89 184.89 194.382C185.27 195.077 185.678 195.744 186.095 196.384C187.799 199.038 189.957 201.372 192.47 203.278C193.224 203.834 194.01 204.344 194.824 204.807L209.705 213.387L212.717 207.096C213.523 206.92 214.329 206.716 215.145 206.466C218.458 205.442 221.64 204.034 224.624 202.268C226.545 201.136 228.401 199.899 230.184 198.561C232.583 196.762 234.866 194.816 237.023 192.733C251.951 178.37 263.701 155.899 268 133.53C268.642 130.248 269.116 126.936 269.418 123.606C269.659 120.826 269.789 118.139 269.779 115.451C269.79 111.578 269.48 107.71 268.853 103.887C268.338 100.847 267.547 97.8598 266.49 94.9634Z" fill="url(#paint20_linear_4_8529)"/>
<path opacity="0.25" d="M183.242 140.35L213.729 157.956L217.583 146.837L187.06 129.23C185.614 132.863 184.326 136.588 183.242 140.35Z" fill="white"/>
<path opacity="0.25" d="M254.109 79.0438C252.408 78.0483 250.582 77.2819 248.679 76.7643C248.021 76.5882 247.345 76.4399 246.669 76.3195C243.302 75.7679 239.862 75.8622 236.531 76.5975C236.086 76.6901 235.604 76.8013 235.188 76.9218L266.517 95.0097C266.514 94.9851 266.514 94.9602 266.517 94.9356L269.807 88.0599L254.109 79.0438Z" fill="white"/>
<path opacity="0.25" d="M252.24 122.457L256.095 117.824L211.004 91.8779C209.614 93.2617 208.252 94.7103 206.918 96.2239L252.24 122.457Z" fill="white"/>
<path opacity="0.25" d="M197.609 108.622L236.834 131.269L241.013 120.344L204.402 99.1982C201.968 102.214 199.701 105.36 197.609 108.622Z" fill="white"/>
<path opacity="0.4" d="M254.109 79.0438C252.407 78.0483 250.581 77.2819 248.679 76.7643C248.021 76.5882 247.345 76.4399 246.668 76.3195C243.302 75.7679 239.862 75.8622 236.531 76.5975C235.293 76.8546 234.071 77.1826 232.87 77.5797C231.586 77.9978 230.324 78.4835 229.09 79.0345C227.426 79.7646 225.808 80.5939 224.243 81.5179C222.501 82.5357 220.812 83.6429 219.184 84.8352C217.949 85.7557 216.713 86.7287 215.477 87.7542C198.798 101.811 185.482 126.117 180.84 150.284L243.073 186.246C255.119 172.078 264.302 152.776 267.999 133.539C268.641 130.258 269.115 126.945 269.417 123.615C269.658 120.835 269.788 118.148 269.778 115.461C269.789 111.587 269.479 107.719 268.852 103.896C268.347 100.854 267.565 97.8637 266.517 94.9634L269.806 88.0878L254.109 79.0438Z" fill="white"/>
<path opacity="0.1" d="M209.705 213.388L212.717 207.096C213.523 206.92 214.329 206.716 215.144 206.466C218.458 205.443 221.639 204.034 224.624 202.268C226.544 201.136 228.4 199.899 230.184 198.561C232.582 196.763 234.866 194.816 237.022 192.733C239.149 190.676 241.168 188.511 243.073 186.246L180.84 150.312C180.494 152.091 180.185 153.87 179.914 155.649C179.642 157.428 179.447 159.183 179.33 160.912C179.117 163.414 179.015 165.898 179.024 168.325C179.024 170.336 179.107 172.282 179.265 174.154C179.395 175.775 179.58 177.351 179.812 178.87C180.043 180.39 180.331 181.836 180.655 183.244C181.524 187.129 182.934 190.872 184.843 194.364C185.223 195.059 185.631 195.726 186.048 196.365C187.752 199.02 189.91 201.353 192.423 203.26C193.177 203.815 193.963 204.326 194.777 204.788L209.705 213.388Z" fill="black"/>
<path opacity="0.1" d="M184.892 194.363C185.272 195.058 185.68 195.726 186.097 196.365C187.801 199.019 189.959 201.353 192.472 203.259C193.226 203.815 194.012 204.325 194.826 204.788L209.707 213.369L212.719 207.077H212.839L213.062 204.501L181.547 186.246C182.364 189.065 183.485 191.787 184.892 194.363Z" fill="black"/>
<path d="M284.224 112.783C283.588 108.829 282.454 104.971 280.852 101.302C278.937 96.7211 275.896 92.6986 272.011 89.6074C269.649 87.7869 266.95 86.4516 264.07 85.6785C263.412 85.5024 262.736 85.3634 262.059 85.243C258.694 84.6836 255.253 84.7748 251.922 85.5117C250.684 85.7732 249.462 86.1042 248.262 86.5032C246.979 86.9166 245.72 87.3992 244.49 87.9487C242.827 88.6861 241.206 89.5152 239.635 90.4321C237.891 91.452 236.203 92.5624 234.575 93.7588C233.334 94.6854 232.092 95.612 230.869 96.6684C212.985 111.763 198.918 138.664 195.351 164.535C195.097 166.308 194.903 168.063 194.767 169.799C194.557 172.27 194.455 174.741 194.461 177.212C194.461 179.213 194.554 181.159 194.702 183.031C194.832 184.662 195.017 186.228 195.249 187.747C195.481 189.267 195.768 190.722 196.101 192.13C196.969 196.014 198.376 199.756 200.28 203.25C200.67 203.936 201.068 204.603 201.485 205.242C203.187 207.901 205.349 210.236 207.87 212.137C211.515 214.881 215.904 216.46 220.463 216.668C223.871 216.822 227.28 216.376 230.535 215.352C233.85 214.333 237.032 212.924 240.015 211.154C241.936 210.025 243.793 208.787 245.574 207.448C247.975 205.651 250.259 203.704 252.413 201.619C267.341 187.256 279.091 164.785 283.4 142.426C284.018 139.096 284.487 135.785 284.808 132.492C285.058 129.712 285.179 127.025 285.17 124.338C285.178 120.466 284.862 116.601 284.224 112.783Z" fill="url(#paint21_linear_4_8529)"/>
<path opacity="0.05" d="M196.254 159.17C195.911 160.958 195.605 162.747 195.327 164.535C195.049 166.324 194.883 168.056 194.744 169.798C194.534 172.269 194.432 174.741 194.438 177.212C194.438 179.213 194.53 181.159 194.679 183.031C194.808 184.662 194.994 186.228 195.225 187.747C195.457 189.267 195.744 190.722 196.078 192.13C196.946 196.014 198.353 199.756 200.257 203.25C200.646 203.936 201.045 204.603 201.462 205.242C203.164 207.901 205.326 210.236 207.846 212.136C211.5 214.886 215.899 216.465 220.467 216.668C223.876 216.822 227.285 216.376 230.54 215.352C233.854 214.333 237.036 212.924 240.019 211.154C241.696 210.172 243.336 209.079 244.967 207.892L196.254 159.17Z" fill="black"/>
<path opacity="0.05" d="M196.953 195.291C197.776 198.059 198.894 200.731 200.289 203.26C200.678 203.946 201.077 204.613 201.494 205.252C203.196 207.911 205.358 210.246 207.878 212.147C210.869 214.393 214.372 215.857 218.071 216.409L196.953 195.291Z" fill="black"/>
<path opacity="0.25" d="M202.449 138.117C200.994 141.768 199.725 145.53 198.641 149.237L251.7 202.296L252.423 201.62C254.711 199.395 256.876 197.047 258.909 194.586L202.449 138.117Z" fill="white"/>
<path opacity="0.25" d="M219.801 108.094C217.383 111.107 215.131 114.25 213.055 117.508L271.433 175.886C273.286 172.347 275.056 168.64 276.613 164.934L219.801 108.094Z" fill="white"/>
<path opacity="0.25" d="M226.419 100.755C225.02 102.145 223.639 103.609 222.305 105.129L278.144 160.968C278.922 158.883 279.654 156.779 280.321 154.648L226.419 100.755Z" fill="white"/>
<path opacity="0.25" d="M285.05 120.316C284.995 119.232 284.902 118.176 284.8 117.138C284.8 116.795 284.735 116.443 284.698 116.109C284.661 115.776 284.615 115.405 284.569 115.053C284.467 114.284 284.355 113.524 284.226 112.783C283.589 108.829 282.456 104.971 280.853 101.302C278.938 96.7211 275.897 92.6986 272.013 89.6074C269.651 87.7869 266.952 86.4516 264.071 85.6785C263.413 85.5024 262.746 85.3634 262.061 85.243C258.695 84.6836 255.254 84.7748 251.923 85.5117C251.478 85.6043 250.997 85.7248 250.57 85.836L285.05 120.316Z" fill="white"/>
<path d="M273.624 131.288C273.624 155.158 259.724 182.725 242.118 194.447C241.377 194.939 240.617 195.42 239.848 195.856C221.185 206.633 206.062 195.198 206.062 170.309C206.062 145.419 221.185 116.508 239.848 105.731C240.617 105.296 241.377 104.897 242.118 104.527C259.705 95.9182 273.624 107.418 273.624 131.288Z" fill="url(#paint22_linear_4_8529)"/>
<path opacity="0.4" d="M273.624 131.288C273.624 155.158 259.724 182.725 242.118 194.447C241.377 194.939 240.617 195.42 239.848 195.856C221.185 206.633 206.062 195.198 206.062 170.309C206.062 145.419 221.185 116.508 239.848 105.731C240.617 105.296 241.377 104.897 242.118 104.527C259.705 95.9182 273.624 107.418 273.624 131.288Z" fill="black"/>
<path d="M272.126 132.159C272.126 132.919 272.126 133.697 272.07 134.476C271.218 156.715 258.254 181.678 241.991 192.502L241.556 192.789C240.981 193.159 240.407 193.521 239.823 193.854C236.717 195.737 233.273 196.995 229.686 197.561C222.106 198.599 215.786 195.272 211.839 188.48C209.541 184.486 208.067 179.297 207.66 173.079C207.576 171.912 207.539 170.707 207.539 169.465C207.539 168.224 207.539 167.177 207.641 166.018C207.777 163.559 208.049 161.109 208.456 158.679C211.31 141.49 220.503 123.949 232.141 113.422C233.764 111.951 235.486 110.592 237.293 109.354C238.127 108.789 238.971 108.252 239.823 107.761C240.676 107.27 241.287 106.954 241.991 106.602L242.603 106.324C247.44 104.073 251.962 103.424 255.956 104.193C262.748 105.5 268.002 110.92 270.495 119.575C271.624 123.673 272.173 127.909 272.126 132.159Z" fill="url(#paint23_linear_4_8529)"/>
<path opacity="0.7" d="M272.126 132.159C272.126 132.919 272.126 133.697 272.07 134.476C271.218 156.715 258.254 181.678 241.991 192.502L241.556 192.789C240.981 193.159 240.407 193.521 239.823 193.854C236.717 195.737 233.273 196.995 229.686 197.561C222.106 198.599 215.786 195.272 211.839 188.48C209.541 184.486 208.067 179.297 207.66 173.079C207.576 171.912 207.539 170.707 207.539 169.465C207.539 168.224 207.539 167.177 207.641 166.018C207.777 163.559 208.049 161.109 208.456 158.679C211.31 141.49 220.503 123.949 232.141 113.422C233.764 111.951 235.486 110.592 237.293 109.354C238.127 108.789 238.971 108.252 239.823 107.761C240.676 107.27 241.287 106.954 241.991 106.602L242.603 106.324C247.44 104.073 251.962 103.424 255.956 104.193C262.748 105.5 268.002 110.92 270.495 119.575C271.624 123.673 272.173 127.909 272.126 132.159Z" fill="black"/>
<path d="M266.712 131.362C266.712 130.584 266.712 129.805 266.712 129.036C266.764 124.783 266.218 120.544 265.09 116.443C263.626 111.393 261.226 107.455 258.141 104.777C257.411 104.524 256.665 104.323 255.907 104.175C251.914 103.405 247.392 104.054 242.555 106.306L241.943 106.584C241.239 106.936 240.507 107.325 239.775 107.742C239.043 108.159 238.079 108.771 237.245 109.336C235.437 110.574 233.716 111.933 232.093 113.404C220.464 123.93 211.308 141.472 208.417 158.661C208.01 161.09 207.738 163.54 207.602 166C207.528 167.158 207.5 168.298 207.5 169.447C207.5 170.596 207.5 171.893 207.62 173.061C208.028 179.278 209.474 184.468 211.8 188.461C212.916 190.428 214.354 192.195 216.053 193.688C218.699 194.581 221.518 194.835 224.281 194.429C227.871 193.859 231.317 192.601 234.428 190.722C235.012 190.389 235.586 190.027 236.152 189.657L236.596 189.369C252.896 178.556 265.869 153.611 266.712 131.362Z" fill="url(#paint24_linear_4_8529)"/>
<path opacity="0.6" d="M266.712 131.362C266.712 130.584 266.712 129.805 266.712 129.036C266.764 124.783 266.218 120.544 265.09 116.443C263.626 111.393 261.226 107.455 258.141 104.777C257.411 104.524 256.665 104.323 255.907 104.175C251.914 103.405 247.392 104.054 242.555 106.306L241.943 106.584C241.239 106.936 240.507 107.325 239.775 107.742C239.043 108.159 238.079 108.771 237.245 109.336C235.437 110.574 233.716 111.933 232.093 113.404C220.464 123.93 211.308 141.472 208.417 158.661C208.01 161.09 207.738 163.54 207.602 166C207.528 167.158 207.5 168.298 207.5 169.447C207.5 170.596 207.5 171.893 207.62 173.061C208.028 179.278 209.474 184.468 211.8 188.461C212.916 190.428 214.354 192.195 216.053 193.688C218.699 194.581 221.518 194.835 224.281 194.429C227.871 193.859 231.317 192.601 234.428 190.722C235.012 190.389 235.586 190.027 236.152 189.657L236.596 189.369C252.896 178.556 265.869 153.611 266.712 131.362Z" fill="black"/>
<path d="M262.059 85.2437C259.169 84.794 256.225 84.8316 253.348 85.3549C251.922 85.6369 250.512 85.9926 249.123 86.4205C248.771 86.5106 248.425 86.6189 248.085 86.7448L247.075 87.1433L245.036 87.9495C242.373 89.1143 239.818 90.5128 237.401 92.1286C236.187 92.9533 235.001 93.7502 233.88 94.6861C232.758 95.622 231.544 96.4838 230.507 97.466C229.469 98.4483 228.31 99.4027 227.291 100.431C226.272 101.46 225.234 102.479 224.261 103.563L221.389 106.816L218.609 110.263L216.033 113.784C215.189 114.97 214.411 116.203 213.595 117.407C212.039 119.863 210.519 122.346 209.157 124.913L208.11 126.831L207.183 128.786C206.535 130.093 205.867 131.381 205.33 132.725C204.116 135.365 203.032 138.071 201.966 140.777L200.511 144.891C200.048 146.272 199.65 147.671 199.214 149.061C198.779 150.451 198.454 151.841 198.065 153.268C197.676 154.695 197.379 156.048 197.074 157.512L196.62 159.653L196.258 161.802C196.026 163.248 195.758 164.647 195.628 166.111C195.498 167.575 195.285 169.021 195.155 170.457C195.026 171.893 194.942 173.358 194.896 174.803C194.896 175.535 194.896 176.258 194.85 176.99C194.803 177.722 194.896 178.436 194.915 179.158C194.979 180.613 194.989 182.105 195.1 183.513L195.582 187.85L196.388 192.15V192.205V192.15C197.23 195.993 198.586 199.705 200.419 203.186C200.91 204.02 201.392 204.9 201.929 205.716C202.467 206.531 203.06 207.328 203.681 208.088C204.928 209.616 206.349 210.994 207.915 212.193C206.318 211.025 204.863 209.676 203.579 208.171C202.939 207.421 202.328 206.642 201.725 205.827C201.123 205.011 200.678 204.159 200.141 203.316C198.207 199.851 196.766 196.133 195.86 192.27V192.205V192.252L194.998 187.952L194.451 183.588C194.312 182.086 194.294 180.659 194.21 179.195C194.21 178.454 194.136 177.75 194.118 176.99C194.099 176.23 194.118 175.517 194.118 174.785C194.118 173.32 194.22 171.856 194.321 170.392C194.423 168.928 194.627 167.483 194.776 166.019C194.924 164.554 195.165 163.1 195.396 161.663L195.748 159.495L196.193 157.345C196.49 155.909 196.786 154.473 197.175 153.055C197.565 151.637 197.861 150.201 198.315 148.811C198.769 147.421 199.14 146.031 199.603 144.604L201.058 140.453L202.67 136.366C203.189 134.995 203.847 133.679 204.431 132.335C205.015 130.992 205.691 129.685 206.34 128.379L207.322 126.405L208.416 124.44C209.806 121.855 211.344 119.353 212.928 116.888C213.744 115.674 214.541 114.442 215.393 113.247L218.006 109.707L220.786 106.297C221.713 105.185 222.741 104.11 223.724 103.026C224.706 101.942 225.799 100.941 226.828 99.8938C227.856 98.8467 229.005 97.9386 230.09 96.9564C231.174 95.9741 232.378 95.1031 233.527 94.2228C234.681 93.3111 235.881 92.4605 237.123 91.6745C239.581 90.0622 242.191 88.6936 244.916 87.5881L246.964 86.819L247.992 86.439C248.342 86.3212 248.698 86.2222 249.058 86.1425C250.466 85.7365 251.895 85.4086 253.339 85.1603C256.23 84.6988 259.177 84.727 262.059 85.2437Z" fill="#F5F5F5"/>
<path d="M232.32 116.222L237.899 119.456L245.914 114.822L240.336 111.598L232.32 116.222Z" fill="url(#paint25_linear_4_8529)"/>
<path opacity="0.2" d="M232.32 116.222L237.899 119.456L245.914 114.822L240.336 111.598L232.32 116.222Z" fill="black"/>
<path d="M235.111 121.059L229.532 117.834L221.508 122.458L227.095 125.692L235.111 121.059Z" fill="url(#paint26_linear_4_8529)"/>
<path opacity="0.2" d="M235.111 121.059L229.532 117.834L221.508 122.458L227.095 125.692L235.111 121.059Z" fill="black"/>
<path d="M221.509 128.212L227.097 131.437L221.509 134.671L215.922 131.437L221.509 128.212Z" fill="url(#paint27_linear_4_8529)"/>
<path opacity="0.2" d="M221.509 128.212L227.097 131.437L221.509 134.671L215.922 131.437L221.509 128.212Z" fill="black"/>
<path d="M215.922 142.121L221.509 145.355V134.67L215.922 131.437V142.121Z" fill="url(#paint28_linear_4_8529)"/>
<path opacity="0.35" d="M215.922 142.121L221.509 145.355V134.67L215.922 131.437V142.121Z" fill="black"/>
<path d="M221.508 122.458V128.212L227.095 131.437V125.692L221.508 122.458Z" fill="url(#paint29_linear_4_8529)"/>
<path opacity="0.35" d="M221.508 122.458V128.212L227.095 131.437V125.692L221.508 122.458Z" fill="black"/>
<path d="M232.32 116.221V119.445L235.109 121.058V126.812L237.899 125.2V119.455L232.32 116.221Z" fill="url(#paint30_linear_4_8529)"/>
<path opacity="0.35" d="M232.32 116.221V119.445L235.109 121.058V126.812L237.899 125.2V119.455L232.32 116.221Z" fill="black"/>
<path d="M215.922 175.211L221.509 178.445L225.309 176.249L219.73 173.024L215.922 175.211Z" fill="url(#paint31_linear_4_8529)"/>
<path opacity="0.2" d="M215.922 175.211L221.509 178.445L225.309 176.249L219.73 173.024L215.922 175.211Z" fill="black"/>
<path d="M219.73 173.025L225.309 176.249V143.159L221.51 145.355L219.73 144.327V173.025Z" fill="url(#paint32_linear_4_8529)"/>
<path opacity="0.45" d="M219.73 173.025L225.309 176.249V143.159L221.51 145.355L219.73 144.327V173.025Z" fill="black"/>
<path d="M215.922 175.211L221.509 178.445V189.138L215.922 185.904V175.211Z" fill="url(#paint33_linear_4_8529)"/>
<path opacity="0.35" d="M215.922 175.211L221.509 178.445V189.138L215.922 185.904V175.211Z" fill="black"/>
<path d="M227.099 185.904V190.602L223.031 188.258L227.099 185.904Z" fill="url(#paint34_linear_4_8529)"/>
<path opacity="0.45" d="M227.099 185.904V190.602L223.031 188.258L227.099 185.904Z" fill="black"/>
<path d="M237.902 179.668V184.366L235.113 182.754V181.28L237.902 179.668Z" fill="url(#paint35_linear_4_8529)"/>
<path opacity="0.45" d="M237.902 179.668V184.366L235.113 182.754V181.28L237.902 179.668Z" fill="black"/>
<path d="M248.513 119.799C248.843 119.741 249.178 119.71 249.513 119.706C250.564 119.669 251.605 119.909 252.534 120.401L247.113 117.26C246.734 117.042 246.334 116.865 245.918 116.731V120.633C246.411 120.397 246.922 120.202 247.447 120.049C247.7 119.974 247.957 119.912 248.216 119.863L248.513 119.799Z" fill="url(#paint36_linear_4_8529)"/>
<path opacity="0.2" d="M248.513 119.799C248.843 119.741 249.178 119.71 249.513 119.706C250.564 119.669 251.605 119.909 252.534 120.401L247.113 117.26C246.734 117.042 246.334 116.865 245.918 116.731V120.633C246.411 120.397 246.922 120.202 247.447 120.049C247.7 119.974 247.957 119.912 248.216 119.863L248.513 119.799Z" fill="black"/>
<path d="M250.116 155.567V156.494C250.116 159.505 248.263 162.98 246.021 164.315L234.771 170.801L233.316 171.635V165.149L240.452 161.034C242.675 159.737 244.51 156.29 244.547 153.306L245.038 153.019L246.021 152.444C248.263 151.166 250.116 152.565 250.116 155.567Z" fill="url(#paint37_linear_4_8529)"/>
<path opacity="0.45" d="M250.116 155.567V156.494C250.116 159.505 248.263 162.98 246.021 164.315L234.771 170.801L233.316 171.635V165.149L240.452 161.034C242.675 159.737 244.51 156.29 244.547 153.306L245.038 153.019L246.021 152.444C248.263 151.166 250.116 152.565 250.116 155.567Z" fill="black"/>
<path d="M248.71 134.532V135.366C248.71 138.053 247.07 141.185 245.003 142.353L233.281 149.117V142.631L239.416 139.091C240.43 138.373 241.277 137.445 241.901 136.371C242.524 135.296 242.909 134.1 243.029 132.864L245.003 131.724C247.07 130.649 248.71 131.835 248.71 134.532Z" fill="url(#paint38_linear_4_8529)"/>
<path opacity="0.45" d="M248.71 134.532V135.366C248.71 138.053 247.07 141.185 245.003 142.353L233.281 149.117V142.631L239.416 139.091C240.43 138.373 241.277 137.445 241.901 136.371C242.524 135.296 242.909 134.1 243.029 132.864L245.003 131.724C247.07 130.649 248.71 131.835 248.71 134.532Z" fill="black"/>
<path d="M254.368 141.435C255.856 138.063 256.657 134.427 256.722 130.742V129.899C256.722 121.772 251.987 117.732 245.917 120.632V114.822L237.902 119.455V125.201L235.122 126.813V121.059L227.107 125.692V131.437L221.547 134.671V145.355L225.346 143.159V176.249L221.547 178.445V189.129L227.107 185.905V190.603L235.122 185.969V181.271L237.902 179.659V184.394L245.917 179.761V175.035L246.038 174.97C252.71 171.115 258.149 160.737 258.149 151.804V150.878C258.149 146.55 256.768 143.094 254.368 141.435ZM248.707 134.532V135.366C248.707 138.053 247.066 141.194 245 142.353L233.278 149.126V138.535L234.733 137.692L245 131.761C247.066 130.649 248.707 131.845 248.707 134.532ZM233.324 159.81L245.046 153.046L246.038 152.471C248.29 151.165 250.134 152.555 250.134 155.566V156.493C250.134 159.505 248.28 162.98 246.038 164.323L234.779 170.81L233.324 171.653V159.81Z" fill="url(#paint39_linear_4_8529)"/>
<path opacity="0.3" d="M245.918 120.633V117.602L244.157 115.842L238.773 118.955L256.064 136.209C256.487 134.405 256.708 132.558 256.722 130.705V129.862C256.722 129.324 256.722 128.805 256.658 128.305L248.179 119.826C247.395 120.001 246.635 120.272 245.918 120.633Z" fill="white"/>
<path opacity="0.3" d="M248.698 134.355C248.698 134.411 248.698 134.476 248.698 134.541V135.375C248.698 138.062 247.058 141.203 244.991 142.362L242.109 144.03L257.047 158.967C257.716 156.65 258.068 154.253 258.094 151.841V150.914C258.094 146.522 256.713 143.066 254.313 141.407C254.452 141.074 254.582 140.731 254.721 140.388L248.698 134.355Z" fill="white"/>
<path opacity="0.3" d="M236.673 169.697L234.783 170.782L233.328 171.625V166.352L225.312 158.337V173.265L235.116 183.069V181.28L237.905 179.668V184.366L245.921 179.733V178.945L236.673 169.697Z" fill="white"/>
<path opacity="0.25" d="M235.449 137.302L245.049 131.743C245.285 131.611 245.533 131.502 245.79 131.418L237.905 123.533V125.182L235.125 126.794V121.04L227.109 125.673V128.935L235.449 137.302Z" fill="white"/>
<path d="M225.309 143.159V176.249C225.402 174.868 225.448 173.469 225.513 172.116C225.578 170.763 225.596 169.336 225.643 167.974C225.726 165.194 225.763 162.461 225.772 159.708C225.782 156.956 225.772 154.149 225.772 151.434C225.772 150.053 225.726 148.654 225.689 147.301L225.568 143.159V142.77L225.253 142.973C224.021 143.77 222.779 144.539 221.547 145.355L225.309 143.159Z" fill="#F5F5F5"/>
<path d="M229.242 124.765C229.937 124.441 230.632 124.089 231.318 123.737C232.003 123.384 232.68 123.005 233.347 122.625C233.801 122.374 234.274 122.106 234.7 121.837C234.7 122.541 234.756 123.236 234.802 123.94C234.802 124.413 234.876 124.867 234.932 125.377C234.987 125.886 235.034 126.303 235.117 126.813V121.059L227.102 125.692C227.463 125.553 227.824 125.395 228.176 125.238C228.529 125.08 228.89 124.932 229.242 124.765Z" fill="#F5F5F5"/>
<path d="M240.043 118.529C240.738 118.195 241.433 117.852 242.119 117.491C243.268 116.898 244.389 116.249 245.501 115.591C245.501 116.305 245.547 117.018 245.603 117.732C245.603 118.214 245.677 118.659 245.732 119.177C245.788 119.696 245.834 120.104 245.918 120.632V114.822L237.902 119.455C238.264 119.316 238.625 119.159 238.977 119.001C239.329 118.844 239.691 118.696 240.043 118.529Z" fill="#F5F5F5"/>
<path d="M248.707 134.532V135.366C248.707 138.053 247.067 141.194 245 142.352L233.297 149.117L234.409 148.589C235.095 148.237 236.105 147.764 237.281 147.134C238.458 146.504 239.839 145.79 241.303 144.984L243.545 143.733L244.694 143.075L245.269 142.751C245.478 142.625 245.68 142.486 245.871 142.334C246.613 141.742 247.241 141.02 247.725 140.203C248.18 139.431 248.529 138.602 248.762 137.738C248.987 136.93 249.083 136.092 249.05 135.254C249.067 134.506 248.973 133.76 248.772 133.04C248.597 132.398 248.187 131.845 247.623 131.492C247.187 131.236 246.671 131.153 246.177 131.261C245.874 131.326 245.583 131.439 245.315 131.594L245.047 131.761C247.076 130.649 248.707 131.854 248.707 134.532Z" fill="#F5F5F5"/>
<path d="M250.476 156.253C250.486 155.426 250.364 154.603 250.115 153.815C249.908 153.118 249.449 152.524 248.827 152.147C248.347 151.873 247.781 151.79 247.242 151.916C246.917 151.988 246.604 152.11 246.316 152.277L246.01 152.463H246.084C248.308 151.221 250.115 152.602 250.115 155.585V156.512C250.115 159.524 248.262 162.998 246.019 164.342L234.76 170.828L233.324 171.662L234.52 171.079C235.279 170.68 236.373 170.152 237.679 169.448C238.986 168.744 240.459 167.965 242.099 167.076L244.564 165.695C245.451 165.228 246.306 164.702 247.122 164.12C248.614 162.757 249.671 160.984 250.161 159.023C250.404 158.121 250.51 157.187 250.476 156.253Z" fill="#F5F5F5"/>
<path d="M258.149 151.832V150.906C258.149 146.513 256.768 143.057 254.368 141.398L254.692 141.686C254.994 141.973 255.273 142.283 255.526 142.612C256.392 143.761 257.002 145.082 257.315 146.486C257.546 147.415 257.685 148.365 257.732 149.321C257.787 150.395 257.787 151.472 257.732 152.546C257.717 153.11 257.671 153.673 257.593 154.232C257.528 154.798 257.454 155.372 257.343 155.947C257.231 156.521 257.129 157.105 256.981 157.679C256.833 158.254 256.694 158.828 256.509 159.394C256.323 159.959 256.166 160.533 255.962 161.089C255.758 161.645 255.554 162.201 255.323 162.739C255.091 163.276 254.859 163.814 254.609 164.333C254.373 164.856 254.11 165.366 253.821 165.862C253.562 166.362 253.293 166.835 253.006 167.298C252.719 167.761 252.468 168.225 252.172 168.632C251.638 169.434 251.063 170.207 250.448 170.949C249.855 171.625 249.318 172.246 248.78 172.747C248.336 173.19 247.869 173.611 247.381 174.007C246.538 174.646 246.047 174.998 246.047 174.998C252.709 171.116 258.149 160.737 258.149 151.832Z" fill="#F5F5F5"/>
<path d="M230.901 187.925C229.579 188.737 228.311 189.631 227.102 190.603L235.117 185.97V181.271C234.886 182.741 234.747 184.223 234.7 185.71C233.403 186.402 232.136 187.14 230.901 187.925Z" fill="#F5F5F5"/>
<path d="M245.918 175.035C245.705 176.527 245.612 178.01 245.538 179.492C244.222 180.159 242.943 180.892 241.692 181.67C240.368 182.48 239.102 183.381 237.902 184.366L245.918 179.733V175.035Z" fill="#F5F5F5"/>
<defs>
<filter id="filter0_f_4_8529" x="0.542969" y="95.334" width="308.214" height="188.596" filterUnits="userSpaceOnUse" color-interpolation-filters="sRGB">
<feFlood flood-opacity="0" result="BackgroundImageFix"/>
<feBlend mode="normal" in="SourceGraphic" in2="BackgroundImageFix" result="shape"/>
<feGaussianBlur stdDeviation="30" result="effect1_foregroundBlur_4_8529"/>
</filter>
<filter id="filter1_f_4_8529" x="134.336" y="124.812" width="251.523" height="168.187" filterUnits="userSpaceOnUse" color-interpolation-filters="sRGB">
<feFlood flood-opacity="0" result="BackgroundImageFix"/>
<feBlend mode="normal" in="SourceGraphic" in2="BackgroundImageFix" result="shape"/>
<feGaussianBlur stdDeviation="30" result="effect1_foregroundBlur_4_8529"/>
</filter>
<linearGradient id="paint0_linear_4_8529" x1="103.746" y1="0" x2="103.746" y2="195.962" gradientUnits="userSpaceOnUse">
<stop stop-color="#0041FF"/>
<stop offset="1" stop-color="#3BEDF9"/>
</linearGradient>
<linearGradient id="paint1_linear_4_8529" x1="125.691" y1="12.7139" x2="125.691" y2="200.682" gradientUnits="userSpaceOnUse">
<stop stop-color="#0041FF"/>
<stop offset="1" stop-color="#3BEDF9"/>
</linearGradient>
<linearGradient id="paint2_linear_4_8529" x1="125.725" y1="36.6699" x2="125.725" y2="176.746" gradientUnits="userSpaceOnUse">
<stop stop-color="#0041FF"/>
<stop offset="1" stop-color="#3BEDF9"/>
</linearGradient>
<linearGradient id="paint3_linear_4_8529" x1="125.712" y1="39.8105" x2="125.712" y2="173.66" gradientUnits="userSpaceOnUse">
<stop stop-color="#0041FF"/>
<stop offset="1" stop-color="#3BEDF9"/>
</linearGradient>
<linearGradient id="paint4_linear_4_8529" x1="121.83" y1="39.7842" x2="121.83" y2="169.196" gradientUnits="userSpaceOnUse">
<stop stop-color="#0041FF"/>
<stop offset="1" stop-color="#3BEDF9"/>
</linearGradient>
<linearGradient id="paint5_linear_4_8529" x1="124.696" y1="50.8096" x2="124.696" y2="62.0148" gradientUnits="userSpaceOnUse">
<stop stop-color="#0041FF"/>
<stop offset="1" stop-color="#3BEDF9"/>
</linearGradient>
<linearGradient id="paint6_linear_4_8529" x1="109.285" y1="59.7021" x2="109.285" y2="70.9074" gradientUnits="userSpaceOnUse">
<stop stop-color="#0041FF"/>
<stop offset="1" stop-color="#3BEDF9"/>
</linearGradient>
<linearGradient id="paint7_linear_4_8529" x1="99.5851" y1="74.502" x2="99.5851" y2="83.7119" gradientUnits="userSpaceOnUse">
<stop stop-color="#0041FF"/>
<stop offset="1" stop-color="#3BEDF9"/>
</linearGradient>
<linearGradient id="paint8_linear_4_8529" x1="95.6011" y1="79.1006" x2="95.6011" y2="98.9476" gradientUnits="userSpaceOnUse">
<stop stop-color="#0041FF"/>
<stop offset="1" stop-color="#3BEDF9"/>
</linearGradient>
<linearGradient id="paint9_linear_4_8529" x1="103.57" y1="66.2959" x2="103.57" y2="79.1" gradientUnits="userSpaceOnUse">
<stop stop-color="#0041FF"/>
<stop offset="1" stop-color="#3BEDF9"/>
</linearGradient>
<linearGradient id="paint10_linear_4_8529" x1="118.981" y1="57.4033" x2="118.981" y2="72.5067" gradientUnits="userSpaceOnUse">
<stop stop-color="#0041FF"/>
<stop offset="1" stop-color="#3BEDF9"/>
</linearGradient>
<linearGradient id="paint11_linear_4_8529" x1="98.31" y1="138.404" x2="98.31" y2="146.134" gradientUnits="userSpaceOnUse">
<stop stop-color="#0041FF"/>
<stop offset="1" stop-color="#3BEDF9"/>
</linearGradient>
<linearGradient id="paint12_linear_4_8529" x1="101.024" y1="95.8154" x2="101.024" y2="143.002" gradientUnits="userSpaceOnUse">
<stop stop-color="#0041FF"/>
<stop offset="1" stop-color="#3BEDF9"/>
</linearGradient>
<linearGradient id="paint13_linear_4_8529" x1="95.6011" y1="141.521" x2="95.6011" y2="161.382" gradientUnits="userSpaceOnUse">
<stop stop-color="#0041FF"/>
<stop offset="1" stop-color="#3BEDF9"/>
</linearGradient>
<linearGradient id="paint14_linear_4_8529" x1="104.654" y1="156.771" x2="104.654" y2="163.47" gradientUnits="userSpaceOnUse">
<stop stop-color="#0041FF"/>
<stop offset="1" stop-color="#3BEDF9"/>
</linearGradient>
<linearGradient id="paint15_linear_4_8529" x1="120.973" y1="147.878" x2="120.973" y2="154.577" gradientUnits="userSpaceOnUse">
<stop stop-color="#0041FF"/>
<stop offset="1" stop-color="#3BEDF9"/>
</linearGradient>
<linearGradient id="paint16_linear_4_8529" x1="139.108" y1="58.1299" x2="139.108" y2="63.6929" gradientUnits="userSpaceOnUse">
<stop stop-color="#0041FF"/>
<stop offset="1" stop-color="#3BEDF9"/>
</linearGradient>
<linearGradient id="paint17_linear_4_8529" x1="128.392" y1="108.381" x2="128.392" y2="136.422" gradientUnits="userSpaceOnUse">
<stop stop-color="#0041FF"/>
<stop offset="1" stop-color="#3BEDF9"/>
</linearGradient>
<linearGradient id="paint18_linear_4_8529" x1="127.368" y1="78.9482" x2="127.368" y2="104.312" gradientUnits="userSpaceOnUse">
<stop stop-color="#0041FF"/>
<stop offset="1" stop-color="#3BEDF9"/>
</linearGradient>
<linearGradient id="paint19_linear_4_8529" x1="125.734" y1="55.4082" x2="125.734" y2="163.47" gradientUnits="userSpaceOnUse">
<stop stop-color="#0041FF"/>
<stop offset="1" stop-color="#3BEDF9"/>
</linearGradient>
<linearGradient id="paint20_linear_4_8529" x1="224.425" y1="75.9658" x2="224.425" y2="213.387" gradientUnits="userSpaceOnUse">
<stop stop-color="#0041FF"/>
<stop offset="1" stop-color="#3BEDF9"/>
</linearGradient>
<linearGradient id="paint21_linear_4_8529" x1="239.816" y1="84.8818" x2="239.816" y2="216.697" gradientUnits="userSpaceOnUse">
<stop stop-color="#0041FF"/>
<stop offset="1" stop-color="#3BEDF9"/>
</linearGradient>
<linearGradient id="paint22_linear_4_8529" x1="239.843" y1="101.682" x2="239.843" y2="199.912" gradientUnits="userSpaceOnUse">
<stop stop-color="#0041FF"/>
<stop offset="1" stop-color="#3BEDF9"/>
</linearGradient>
<linearGradient id="paint23_linear_4_8529" x1="239.834" y1="103.884" x2="239.834" y2="197.748" gradientUnits="userSpaceOnUse">
<stop stop-color="#0041FF"/>
<stop offset="1" stop-color="#3BEDF9"/>
</linearGradient>
<linearGradient id="paint24_linear_4_8529" x1="237.108" y1="103.865" x2="237.108" y2="194.617" gradientUnits="userSpaceOnUse">
<stop stop-color="#0041FF"/>
<stop offset="1" stop-color="#3BEDF9"/>
</linearGradient>
<linearGradient id="paint25_linear_4_8529" x1="239.117" y1="111.598" x2="239.117" y2="119.456" gradientUnits="userSpaceOnUse">
<stop stop-color="#0041FF"/>
<stop offset="1" stop-color="#3BEDF9"/>
</linearGradient>
<linearGradient id="paint26_linear_4_8529" x1="228.309" y1="117.834" x2="228.309" y2="125.692" gradientUnits="userSpaceOnUse">
<stop stop-color="#0041FF"/>
<stop offset="1" stop-color="#3BEDF9"/>
</linearGradient>
<linearGradient id="paint27_linear_4_8529" x1="221.509" y1="128.212" x2="221.509" y2="134.671" gradientUnits="userSpaceOnUse">
<stop stop-color="#0041FF"/>
<stop offset="1" stop-color="#3BEDF9"/>
</linearGradient>
<linearGradient id="paint28_linear_4_8529" x1="218.716" y1="131.437" x2="218.716" y2="145.355" gradientUnits="userSpaceOnUse">
<stop stop-color="#0041FF"/>
<stop offset="1" stop-color="#3BEDF9"/>
</linearGradient>
<linearGradient id="paint29_linear_4_8529" x1="224.302" y1="122.458" x2="224.302" y2="131.437" gradientUnits="userSpaceOnUse">
<stop stop-color="#0041FF"/>
<stop offset="1" stop-color="#3BEDF9"/>
</linearGradient>
<linearGradient id="paint30_linear_4_8529" x1="235.109" y1="116.221" x2="235.109" y2="126.812" gradientUnits="userSpaceOnUse">
<stop stop-color="#0041FF"/>
<stop offset="1" stop-color="#3BEDF9"/>
</linearGradient>
<linearGradient id="paint31_linear_4_8529" x1="220.615" y1="173.024" x2="220.615" y2="178.445" gradientUnits="userSpaceOnUse">
<stop stop-color="#0041FF"/>
<stop offset="1" stop-color="#3BEDF9"/>
</linearGradient>
<linearGradient id="paint32_linear_4_8529" x1="222.52" y1="143.159" x2="222.52" y2="176.249" gradientUnits="userSpaceOnUse">
<stop stop-color="#0041FF"/>
<stop offset="1" stop-color="#3BEDF9"/>
</linearGradient>
<linearGradient id="paint33_linear_4_8529" x1="218.716" y1="175.211" x2="218.716" y2="189.138" gradientUnits="userSpaceOnUse">
<stop stop-color="#0041FF"/>
<stop offset="1" stop-color="#3BEDF9"/>
</linearGradient>
<linearGradient id="paint34_linear_4_8529" x1="225.065" y1="185.904" x2="225.065" y2="190.602" gradientUnits="userSpaceOnUse">
<stop stop-color="#0041FF"/>
<stop offset="1" stop-color="#3BEDF9"/>
</linearGradient>
<linearGradient id="paint35_linear_4_8529" x1="236.508" y1="179.668" x2="236.508" y2="184.366" gradientUnits="userSpaceOnUse">
<stop stop-color="#0041FF"/>
<stop offset="1" stop-color="#3BEDF9"/>
</linearGradient>
<linearGradient id="paint36_linear_4_8529" x1="249.226" y1="116.731" x2="249.226" y2="120.633" gradientUnits="userSpaceOnUse">
<stop stop-color="#0041FF"/>
<stop offset="1" stop-color="#3BEDF9"/>
</linearGradient>
<linearGradient id="paint37_linear_4_8529" x1="241.716" y1="151.971" x2="241.716" y2="171.635" gradientUnits="userSpaceOnUse">
<stop stop-color="#0041FF"/>
<stop offset="1" stop-color="#3BEDF9"/>
</linearGradient>
<linearGradient id="paint38_linear_4_8529" x1="240.996" y1="131.33" x2="240.996" y2="149.117" gradientUnits="userSpaceOnUse">
<stop stop-color="#0041FF"/>
<stop offset="1" stop-color="#3BEDF9"/>
</linearGradient>
<linearGradient id="paint39_linear_4_8529" x1="239.848" y1="114.822" x2="239.848" y2="190.603" gradientUnits="userSpaceOnUse">
<stop stop-color="#0041FF"/>
<stop offset="1" stop-color="#3BEDF9"/>
</linearGradient>
</defs>
</svg>
