<svg width="26" height="20" viewBox="0 0 26 20" fill="none" xmlns="http://www.w3.org/2000/svg">
<path d="M22.0126 1.82988C20.3737 1.04942 18.5786 0.503101 16.7836 0.190918C16.5494 0.581147 16.3153 1.12747 16.0812 1.5177C14.2081 1.20551 12.2569 1.20551 10.3057 1.5177C10.0716 1.04942 9.83748 0.581147 9.60334 0.190918C7.80829 0.503101 6.09129 1.04942 4.37429 1.82988C1.09636 6.74677 0.237843 11.5076 0.628072 16.1903C2.57922 17.5951 4.68646 18.6878 7.02784 19.3902C7.57416 18.6878 7.96437 17.9854 8.3546 17.2049C7.57414 16.8927 6.87174 16.5805 6.16933 16.1903C6.32542 16.0342 6.55957 15.9562 6.71566 15.8001C10.774 17.6732 15.4568 17.6732 19.4371 15.8001C19.5932 15.9562 19.7493 16.1123 19.9835 16.1903C19.281 16.5805 18.5786 16.9708 17.7982 17.2049C18.1884 17.9854 18.6567 18.6878 19.1249 19.3902C21.3883 18.6878 23.5735 17.5951 25.5247 16.1903C26.2271 10.7271 24.8223 6.04435 22.0126 1.82988ZM9.05703 13.3026C7.8083 13.3026 6.79369 12.1319 6.79369 10.8051C6.79369 9.40032 7.8083 8.22964 9.05703 8.22964C10.3058 8.22964 11.3204 9.40032 11.3204 10.8051C11.3204 12.1319 10.3058 13.3026 9.05703 13.3026ZM17.4079 13.3026C16.1592 13.3026 15.1446 12.1319 15.1446 10.8051C15.1446 9.40032 16.1592 8.22964 17.4079 8.22964C18.6567 8.22964 19.6712 9.40032 19.6712 10.8051C19.6712 12.1319 18.6567 13.3026 17.4079 13.3026Z" fill="white"/>
</svg>
