<svg width="22" height="22" viewBox="0 0 22 22" fill="none" xmlns="http://www.w3.org/2000/svg">
<path d="M16.4677 4.31299C15.7653 4.31299 15.219 4.85931 15.219 5.56172C15.219 6.26413 15.7653 6.81045 16.4677 6.81045C17.1701 6.81045 17.7165 6.26413 17.7165 5.56172C17.7165 4.85931 17.1701 4.31299 16.4677 4.31299Z" fill="white"/>
<path d="M10.8484 5.95215C7.96068 5.95215 5.54126 8.29352 5.54126 11.2593C5.54126 14.147 7.88263 16.5664 10.8484 16.5664C13.7361 16.5664 16.1555 14.225 16.1555 11.2593C16.1555 8.29352 13.8141 5.95215 10.8484 5.95215ZM10.8484 14.6152C8.97527 14.6152 7.49241 13.1324 7.49241 11.2593C7.49241 9.38616 8.97527 7.90329 10.8484 7.90329C12.7215 7.90329 14.2043 9.38616 14.2043 11.2593C14.2824 13.0543 12.7215 14.6152 10.8484 14.6152Z" fill="white"/>
<path d="M15.0628 21.9513H6.47781C2.8877 21.9513 0 19.0636 0 15.4735V6.88845C0 3.29834 2.8877 0.410645 6.47781 0.410645H15.0628C18.653 0.410645 21.5406 3.29834 21.5406 6.88845V15.4735C21.5406 19.0636 18.653 21.9513 15.0628 21.9513ZM6.47781 2.51788C4.05839 2.51788 2.02919 4.46903 2.02919 6.96649V15.5515C2.02919 17.971 3.98034 20.0001 6.47781 20.0001H15.0628C17.4823 20.0001 19.5115 18.049 19.5115 15.5515V6.96649C19.5115 4.54707 17.5603 2.51788 15.0628 2.51788H6.47781V2.51788Z" fill="white"/>
</svg>
