<svg width="25" height="20" viewBox="0 0 25 20" fill="none" xmlns="http://www.w3.org/2000/svg">
<path d="M2.1248 8.70912C2.1248 8.70912 12.7652 4.28665 16.4454 2.75888C17.8854 2.11561 22.6857 0.185805 22.6857 0.185805C22.6857 0.185805 24.9258 -0.69869 24.6857 1.39193C24.6057 2.27643 24.1257 5.25155 23.6457 8.5483C22.9257 13.212 22.1256 18.2777 22.1256 18.2777C22.1256 18.2777 21.9656 19.7251 20.9256 19.9663C19.8855 20.2076 18.1255 19.0818 17.8855 18.8406C17.6455 18.6798 13.2453 15.8655 11.6452 14.4985C11.2452 14.0965 10.6852 13.3728 11.7252 12.4883C13.9653 10.4781 16.6054 7.90503 18.2055 6.29686C18.9255 5.57318 19.6455 3.80419 16.6054 5.89482C12.2052 8.95035 7.96506 11.7646 7.96506 11.7646C7.96506 11.7646 7.00502 12.4079 5.16494 11.8451C3.32486 11.2822 1.16478 10.5585 1.16478 10.5585C1.16478 10.5585 -0.355302 9.75443 2.1248 8.70912Z" fill="white"/>
</svg>
