<svg width="22" height="24" viewBox="0 0 22 24" fill="none" xmlns="http://www.w3.org/2000/svg">
<path d="M21.7037 9.69231C21.4687 9.69231 21.312 9.69231 21.0769 9.69231C18.8828 9.69231 16.8455 8.61538 15.5918 6.76923V16.6923C15.5918 20.7692 12.2224 24 8.14777 24C3.99478 24 0.703735 20.6923 0.703735 16.6923C0.703735 12.6923 4.07314 9.38462 8.14777 9.38462C8.30449 9.38462 8.46119 9.38462 8.61791 9.38462V13C8.46119 13 8.30449 12.9231 8.14777 12.9231C6.0321 12.9231 4.30821 14.6154 4.30821 16.6923C4.30821 18.7692 6.0321 20.4615 8.14777 20.4615C10.2634 20.4615 12.0657 18.8462 12.0657 16.7692V0H15.5918C15.9052 3.07692 18.491 5.53846 21.6254 5.76923L21.7037 9.69231Z" fill="white"/>
</svg>
