<svg width="22" height="17" viewBox="0 0 22 17" fill="none" xmlns="http://www.w3.org/2000/svg">
<path d="M21.4901 2.14998C20.798 2.45712 20.1059 2.61069 19.4138 2.76426C19.7214 2.68747 20.2597 2.07319 20.4135 1.84284C20.7211 1.45891 20.9518 0.998205 21.1056 0.537495V0.46071C21.0287 0.46071 21.0287 0.46071 21.0287 0.46071C20.2597 0.92142 19.4138 1.22856 18.4909 1.38213C18.414 1.38213 18.3371 1.38213 18.3371 1.30534C18.2602 1.22856 18.1833 1.15177 18.1064 1.07499C17.7219 0.76785 17.3374 0.537495 16.8759 0.30714C16.2607 0.0767851 15.6455 0 15.0303 0C14.4151 0.076785 13.7998 0.230355 13.2615 0.46071C12.7232 0.76785 12.2618 1.15177 11.8004 1.61248C11.4158 2.07319 11.1082 2.68747 10.9544 3.30175C10.8006 3.91603 10.8006 4.45353 10.8775 5.06781C10.8775 5.14459 10.8775 5.14459 10.8006 5.14459C7.33997 4.6071 4.49456 3.37854 2.18747 0.76785C2.11057 0.691065 2.03366 0.691065 1.95676 0.76785C0.95702 2.30355 1.41844 4.68388 2.72579 5.91244C2.8796 6.06601 3.0334 6.21958 3.26411 6.37315C3.18721 6.37315 2.34128 6.29637 1.57224 5.91244C1.49534 5.83566 1.41844 5.91244 1.41844 5.98923C1.41844 6.1428 1.41844 6.29637 1.41844 6.44994C1.64915 7.98564 2.64889 9.36777 4.11005 9.98205C4.26385 10.0588 4.49456 10.1356 4.64837 10.1356C4.34075 10.2124 3.95624 10.2892 3.0334 10.2124C2.8796 10.2124 2.87959 10.2124 2.87959 10.366C3.57172 12.2856 5.10978 12.8999 6.26333 13.207C6.41714 13.207 6.57094 13.207 6.72475 13.2838C6.34023 13.8981 5.03288 14.282 4.41766 14.5124C3.26411 14.8963 2.03366 15.0499 0.880116 14.9731C0.72631 14.9731 0.649406 14.9731 0.572503 14.9731C0.4956 14.9731 0.572507 15.0499 0.64941 15.1266C0.88012 15.2802 1.11083 15.4338 1.41844 15.5874C2.18747 15.9713 2.9565 16.2784 3.80243 16.5088C8.0321 17.6605 12.877 16.8159 16.03 13.6677C18.5678 11.2106 19.4138 7.75528 19.4138 4.29996C19.4138 4.14639 19.5676 4.0696 19.6445 3.99282C20.3366 3.53211 20.798 2.91783 21.3363 2.22676C21.4132 2.07319 21.4132 1.91962 21.4132 1.91962C21.567 2.07319 21.567 2.07319 21.4901 2.14998Z" fill="white"/>
</svg>
