<svg width="138" height="57" viewBox="0 0 138 57" fill="none" xmlns="http://www.w3.org/2000/svg">
<g filter="url(#filter0_f_309_32)">
<path d="M39.838 28.182V27.182L39.7613 29.1791L39.838 28.182ZM43.752 31.26L44.7406 31.411L44.742 31.4014L43.752 31.26ZM42.156 41.71V42.71H43.0149L43.1445 41.861L42.156 41.71ZM34.936 41.71L33.9474 41.5595L33.7722 42.71H34.936V41.71ZM36.608 30.728L37.5966 30.8785L37.7718 29.728H36.608V30.728ZM23.878 30.728V29.728H23.0187L22.8894 30.5775L23.878 30.728ZM22.206 41.71V42.71H23.0653L23.1946 41.8605L22.206 41.71ZM15.024 41.71L14.0353 41.5601L13.8609 42.71H15.024V41.71ZM19.052 15.148V14.148H18.1922L18.0633 14.9981L19.052 15.148ZM26.272 15.148L27.2602 15.3014L27.4392 14.148H26.272V15.148ZM24.638 25.674L23.6498 25.5206L23.4708 26.674H24.638V25.674ZM37.368 25.674V26.674H38.2278L38.3567 25.8239L37.368 25.674ZM38.964 15.148V14.148H38.1042L37.9753 14.9981L38.964 15.148ZM46.184 15.148L47.1726 15.2984L47.3476 14.148H46.184V15.148ZM44.664 25.142L45.6512 25.3021L45.6526 25.2924L44.664 25.142ZM42.802 27.422L42.3303 26.5402L42.3265 26.5423L42.802 27.422ZM39.7613 29.1791C41.006 29.2748 41.7899 29.5284 42.2382 29.8344C42.6237 30.0976 42.79 30.4122 42.79 30.88H44.79C44.79 29.7518 44.2976 28.8187 43.3658 28.1826C42.4967 27.5893 41.3047 27.2919 39.9147 27.1849L39.7613 29.1791ZM42.79 30.88C42.79 30.8701 42.7904 30.8834 42.7855 30.9325C42.781 30.9775 42.7735 31.0387 42.7621 31.1186L44.742 31.4014C44.7675 31.2229 44.79 31.0339 44.79 30.88H42.79ZM42.7635 31.109L41.1675 41.559L43.1445 41.861L44.7405 31.411L42.7635 31.109ZM42.156 40.71H34.936V42.71H42.156V40.71ZM35.9246 41.8605L37.5966 30.8785L35.6194 30.5775L33.9474 41.5595L35.9246 41.8605ZM36.608 29.728H23.878V31.728H36.608V29.728ZM22.8894 30.5775L21.2174 41.5595L23.1946 41.8605L24.8666 30.8785L22.8894 30.5775ZM22.206 40.71H15.024V42.71H22.206V40.71ZM16.0127 41.8599L20.0407 15.2979L18.0633 14.9981L14.0353 41.5601L16.0127 41.8599ZM19.052 16.148H26.272V14.148H19.052V16.148ZM25.2838 14.9946L23.6498 25.5206L25.6262 25.8274L27.2602 15.3014L25.2838 14.9946ZM24.638 26.674H37.368V24.674H24.638V26.674ZM38.3567 25.8239L39.9527 15.2979L37.9753 14.9981L36.3793 25.5241L38.3567 25.8239ZM38.964 16.148H46.184V14.148H38.964V16.148ZM45.1954 14.9976L43.6754 24.9916L45.6526 25.2924L47.1726 15.2984L45.1954 14.9976ZM43.6769 24.9819C43.5892 25.5229 43.235 26.0563 42.3303 26.5402L43.2737 28.3038C44.5477 27.6223 45.4348 26.6358 45.6511 25.3021L43.6769 24.9819ZM42.3265 26.5423C41.5313 26.9721 40.7062 27.182 39.838 27.182V29.182C41.0471 29.182 42.1981 28.8852 43.2775 28.3017L42.3265 26.5423ZM54.4318 37.91V38.91H55.2401L55.4096 38.1197L54.4318 37.91ZM47.2498 37.91L46.2716 37.7022L46.015 38.91H47.2498V37.91ZM51.2778 18.948V17.948H50.4679L50.2996 18.7402L51.2778 18.948ZM58.4978 18.948L59.4756 19.1577L59.7349 17.948H58.4978V18.948ZM54.4318 36.91H47.2498V38.91H54.4318V36.91ZM48.228 38.1178L52.256 19.1558L50.2996 18.7402L46.2716 37.7022L48.228 38.1178ZM51.2778 19.948H58.4978V17.948H51.2778V19.948ZM57.52 18.7383L53.454 37.7003L55.4096 38.1197L59.4756 19.1577L57.52 18.7383ZM86.9767 37.91V38.91H87.7854L87.9546 38.1192L86.9767 37.91ZM79.7567 37.91L78.7786 37.7018L78.5214 38.91H79.7567V37.91ZM83.0247 22.558L84.0028 22.7662L84.26 21.558H83.0247V22.558ZM70.2947 22.558V21.558H69.4852L69.3166 22.3498L70.2947 22.558ZM67.0267 37.91V38.91H67.8362L68.0048 38.1182L67.0267 37.91ZM59.8447 37.91L58.8665 37.7022L58.61 38.91H59.8447V37.91ZM63.8727 18.948V17.948H63.0628L62.8945 18.7402L63.8727 18.948ZM88.8007 19.366L89.1047 18.4133L89.1005 18.412L88.8007 19.366ZM86.9767 36.91H79.7567V38.91H86.9767V36.91ZM80.7348 38.1182L84.0028 22.7662L82.0466 22.3498L78.7786 37.7018L80.7348 38.1182ZM83.0247 21.558H70.2947V23.558H83.0247V21.558ZM69.3166 22.3498L66.0486 37.7018L68.0048 38.1182L71.2728 22.7662L69.3166 22.3498ZM67.0267 36.91H59.8447V38.91H67.0267V36.91ZM60.8229 38.1178L64.8509 19.1558L62.8945 18.7402L58.8665 37.7022L60.8229 38.1178ZM63.8727 19.948H86.1787V17.948H63.8727V19.948ZM86.1787 19.948C86.9306 19.948 87.7036 20.0694 88.5009 20.32L89.1005 18.412C88.1245 18.1053 87.1495 17.948 86.1787 17.948V19.948ZM88.4967 20.3187C89.0325 20.4897 89.3377 20.6611 89.4921 20.7925C89.5636 20.8534 89.5851 20.8908 89.5887 20.8977C89.5904 20.9009 89.5893 20.8996 89.5881 20.8946C89.5868 20.8895 89.5867 20.886 89.5867 20.886H91.5867C91.5867 20.2088 91.2523 19.6643 90.7883 19.2695C90.3474 18.8942 89.7596 18.6223 89.1047 18.4133L88.4967 20.3187ZM89.5867 20.886C89.5867 20.7857 89.6055 20.6956 89.5969 20.7469C89.5962 20.7509 89.5941 20.7626 89.5899 20.7851C89.5817 20.8288 89.5685 20.8957 89.55 20.9879C89.513 21.1714 89.4572 21.4426 89.3821 21.803C89.2321 22.5232 89.0067 23.5922 88.706 25.0106C88.1045 27.847 87.2021 32.0769 85.9988 37.7008L87.9546 38.1192C89.1579 32.4951 90.0606 28.2637 90.6625 25.4254C90.9633 24.0065 91.1893 22.9348 91.3401 22.211C91.4154 21.8494 91.4723 21.5728 91.5106 21.3826C91.5297 21.288 91.5447 21.2115 91.5553 21.1555C91.5605 21.1282 91.5654 21.1009 91.5695 21.0768C91.5714 21.0653 91.5741 21.0485 91.5766 21.0301C91.5779 21.0209 91.5798 21.0063 91.5815 20.9887C91.5827 20.9773 91.5867 20.937 91.5867 20.886H89.5867ZM94.0465 37.492L94.3882 36.5522L94.3828 36.5503L94.0465 37.492ZM95.6045 21.19L96.5822 21.4002L96.5837 21.3926L95.6045 21.19ZM97.8465 19.442L98.1519 20.3942L98.1556 20.393L97.8465 19.442ZM121.026 19.366L120.719 20.3175L120.722 20.3187L121.026 19.366ZM122.204 23.888V24.888H123.014L123.182 24.0966L122.204 23.888ZM114.946 23.888L113.972 23.6652L113.692 24.888H114.946V23.888ZM115.25 22.558L116.225 22.7808L116.505 21.558H115.25V22.558ZM102.52 22.558V21.558H101.709L101.542 22.3521L102.52 22.558ZM100.05 34.3L99.0719 34.0941L98.8182 35.3H100.05V34.3ZM112.742 34.3V35.3H113.549L113.72 34.5113L112.742 34.3ZM113.654 30.082L114.632 30.2933L114.894 29.082H113.654V30.082ZM108.6 30.082L107.622 29.876L107.368 31.082H108.6V30.082ZM109.36 26.472V25.472H108.549L108.382 26.266L109.36 26.472ZM121.634 26.472L122.613 26.6774L122.866 25.472H121.634V26.472ZM119.696 35.706L120.674 35.9155L120.675 35.9114L119.696 35.706ZM117.606 37.416L117.279 36.4712L117.276 36.4721L117.606 37.416ZM114.718 36.948H96.5165V38.948H114.718V36.948ZM96.5165 36.948C95.8332 36.948 95.1253 36.8202 94.3882 36.5522L93.7047 38.4318C94.6396 38.7718 95.5785 38.948 96.5165 38.948V36.948ZM94.3828 36.5503C93.9226 36.3859 93.6715 36.2225 93.548 36.1019C93.4476 36.0039 93.4505 35.9582 93.4505 35.934H91.4505C91.4505 37.2741 92.5652 38.0248 93.7101 38.4337L94.3828 36.5503ZM93.4505 35.934C93.4505 35.9792 93.4473 36.0143 93.4463 36.0254C93.4448 36.0412 93.4433 36.0536 93.4424 36.0605C93.4406 36.0744 93.4389 36.0847 93.4384 36.0881C93.4371 36.0958 93.4363 36.0999 93.4368 36.0972C93.4376 36.0929 93.4396 36.0824 93.4435 36.0632C93.4509 36.0258 93.4626 35.9687 93.4789 35.8902C93.5113 35.7339 93.5603 35.5012 93.6259 35.1911C93.7571 34.5715 93.9541 33.6477 94.2169 32.4192C94.7424 29.9624 95.5308 26.2895 96.5821 21.4002L94.6268 20.9798C93.5755 25.8692 92.7869 29.5429 92.2611 32.0008C91.9982 33.2296 91.8009 34.1551 91.6693 34.7769C91.6035 35.0875 91.5539 35.3235 91.5206 35.4838C91.5041 35.5637 91.4911 35.6268 91.4821 35.6718C91.4778 35.6938 91.4736 35.7149 91.4703 35.7328C91.4688 35.7411 91.4664 35.754 91.4641 35.768C91.4631 35.7746 91.461 35.7875 91.459 35.8033C91.458 35.8112 91.4563 35.8245 91.4548 35.8409C91.4537 35.8528 91.4505 35.8884 91.4505 35.934H93.4505ZM96.5837 21.3926C96.6161 21.2361 96.8556 20.81 98.1519 20.3942L97.5411 18.4898C96.1521 18.9353 94.8968 19.6746 94.6252 20.9874L96.5837 21.3926ZM98.1556 20.393C99.0743 20.0945 99.9834 19.948 100.886 19.948V17.948C99.7629 17.948 98.6454 18.1309 97.5374 18.491L98.1556 20.393ZM100.886 19.948H118.404V17.948H100.886V19.948ZM118.404 19.948C119.184 19.948 119.955 20.0703 120.719 20.3174L121.334 18.4146C120.376 18.1044 119.398 17.948 118.404 17.948V19.948ZM120.722 20.3187C121.258 20.4897 121.563 20.6611 121.718 20.7925C121.789 20.8534 121.811 20.8908 121.814 20.8977C121.816 20.9009 121.815 20.8996 121.814 20.8946C121.813 20.8895 121.812 20.886 121.812 20.886H123.812C123.812 20.2088 123.478 19.6643 123.014 19.2695C122.573 18.8942 121.985 18.6223 121.331 18.4133L120.722 20.3187ZM121.812 20.886C121.812 20.8071 121.824 20.7543 121.815 20.8127C121.811 20.8402 121.803 20.8847 121.791 20.9497C121.767 21.0787 121.731 21.2658 121.68 21.514C121.58 22.0092 121.429 22.7303 121.226 23.6794L123.182 24.0966C123.385 23.1457 123.538 22.4165 123.641 21.911C123.692 21.6589 123.731 21.4581 123.758 21.3115C123.771 21.2388 123.783 21.1737 123.791 21.1197C123.795 21.0965 123.812 20.9903 123.812 20.886H121.812ZM122.204 22.888H114.946V24.888H122.204V22.888ZM115.921 24.1108L116.225 22.7808L114.276 22.3352L113.972 23.6652L115.921 24.1108ZM115.25 21.558H102.52V23.558H115.25V21.558ZM101.542 22.3521L99.0719 34.0941L101.029 34.5059L103.499 22.7639L101.542 22.3521ZM100.05 35.3H112.742V33.3H100.05V35.3ZM113.72 34.5113L114.632 30.2933L112.677 29.8707L111.765 34.0887L113.72 34.5113ZM113.654 29.082H108.6V31.082H113.654V29.082ZM109.579 30.288L110.339 26.678L108.382 26.266L107.622 29.876L109.579 30.288ZM109.36 27.472H121.634V25.472H109.36V27.472ZM120.656 26.2666L118.718 35.5006L120.675 35.9114L122.613 26.6774L120.656 26.2666ZM118.719 35.4965C118.684 35.6584 118.455 36.0632 117.279 36.4712L117.934 38.3608C119.241 37.9075 120.405 37.1723 120.674 35.9155L118.719 35.4965ZM117.276 36.4721C116.351 36.7961 115.5 36.948 114.718 36.948V38.948C115.761 38.948 116.836 38.7453 117.937 38.3599L117.276 36.4721Z" fill="url(#paint0_linear_309_32)"/>
</g>
<g filter="url(#filter1_f_309_32)">
<path d="M39.838 28.182V27.182L39.7613 29.1791L39.838 28.182ZM43.752 31.26L44.7406 31.411L44.742 31.4014L43.752 31.26ZM42.156 41.71V42.71H43.0149L43.1445 41.861L42.156 41.71ZM34.936 41.71L33.9474 41.5595L33.7722 42.71H34.936V41.71ZM36.608 30.728L37.5966 30.8785L37.7718 29.728H36.608V30.728ZM23.878 30.728V29.728H23.0187L22.8894 30.5775L23.878 30.728ZM22.206 41.71V42.71H23.0653L23.1946 41.8605L22.206 41.71ZM15.024 41.71L14.0353 41.5601L13.8609 42.71H15.024V41.71ZM19.052 15.148V14.148H18.1922L18.0633 14.9981L19.052 15.148ZM26.272 15.148L27.2602 15.3014L27.4392 14.148H26.272V15.148ZM24.638 25.674L23.6498 25.5206L23.4708 26.674H24.638V25.674ZM37.368 25.674V26.674H38.2278L38.3567 25.8239L37.368 25.674ZM38.964 15.148V14.148H38.1042L37.9753 14.9981L38.964 15.148ZM46.184 15.148L47.1726 15.2984L47.3476 14.148H46.184V15.148ZM44.664 25.142L45.6512 25.3021L45.6526 25.2924L44.664 25.142ZM42.802 27.422L42.3303 26.5402L42.3265 26.5423L42.802 27.422ZM39.7613 29.1791C41.006 29.2748 41.7899 29.5284 42.2382 29.8344C42.6237 30.0976 42.79 30.4122 42.79 30.88H44.79C44.79 29.7518 44.2976 28.8187 43.3658 28.1826C42.4967 27.5893 41.3047 27.2919 39.9147 27.1849L39.7613 29.1791ZM42.79 30.88C42.79 30.8701 42.7904 30.8834 42.7855 30.9325C42.781 30.9775 42.7735 31.0387 42.7621 31.1186L44.742 31.4014C44.7675 31.2229 44.79 31.0339 44.79 30.88H42.79ZM42.7635 31.109L41.1675 41.559L43.1445 41.861L44.7405 31.411L42.7635 31.109ZM42.156 40.71H34.936V42.71H42.156V40.71ZM35.9246 41.8605L37.5966 30.8785L35.6194 30.5775L33.9474 41.5595L35.9246 41.8605ZM36.608 29.728H23.878V31.728H36.608V29.728ZM22.8894 30.5775L21.2174 41.5595L23.1946 41.8605L24.8666 30.8785L22.8894 30.5775ZM22.206 40.71H15.024V42.71H22.206V40.71ZM16.0127 41.8599L20.0407 15.2979L18.0633 14.9981L14.0353 41.5601L16.0127 41.8599ZM19.052 16.148H26.272V14.148H19.052V16.148ZM25.2838 14.9946L23.6498 25.5206L25.6262 25.8274L27.2602 15.3014L25.2838 14.9946ZM24.638 26.674H37.368V24.674H24.638V26.674ZM38.3567 25.8239L39.9527 15.2979L37.9753 14.9981L36.3793 25.5241L38.3567 25.8239ZM38.964 16.148H46.184V14.148H38.964V16.148ZM45.1954 14.9976L43.6754 24.9916L45.6526 25.2924L47.1726 15.2984L45.1954 14.9976ZM43.6769 24.9819C43.5892 25.5229 43.235 26.0563 42.3303 26.5402L43.2737 28.3038C44.5477 27.6223 45.4348 26.6358 45.6511 25.3021L43.6769 24.9819ZM42.3265 26.5423C41.5313 26.9721 40.7062 27.182 39.838 27.182V29.182C41.0471 29.182 42.1981 28.8852 43.2775 28.3017L42.3265 26.5423ZM54.4318 37.91V38.91H55.2401L55.4096 38.1197L54.4318 37.91ZM47.2498 37.91L46.2716 37.7022L46.015 38.91H47.2498V37.91ZM51.2778 18.948V17.948H50.4679L50.2996 18.7402L51.2778 18.948ZM58.4978 18.948L59.4756 19.1577L59.7349 17.948H58.4978V18.948ZM54.4318 36.91H47.2498V38.91H54.4318V36.91ZM48.228 38.1178L52.256 19.1558L50.2996 18.7402L46.2716 37.7022L48.228 38.1178ZM51.2778 19.948H58.4978V17.948H51.2778V19.948ZM57.52 18.7383L53.454 37.7003L55.4096 38.1197L59.4756 19.1577L57.52 18.7383ZM86.9767 37.91V38.91H87.7854L87.9546 38.1192L86.9767 37.91ZM79.7567 37.91L78.7786 37.7018L78.5214 38.91H79.7567V37.91ZM83.0247 22.558L84.0028 22.7662L84.26 21.558H83.0247V22.558ZM70.2947 22.558V21.558H69.4852L69.3166 22.3498L70.2947 22.558ZM67.0267 37.91V38.91H67.8362L68.0048 38.1182L67.0267 37.91ZM59.8447 37.91L58.8665 37.7022L58.61 38.91H59.8447V37.91ZM63.8727 18.948V17.948H63.0628L62.8945 18.7402L63.8727 18.948ZM88.8007 19.366L89.1047 18.4133L89.1005 18.412L88.8007 19.366ZM86.9767 36.91H79.7567V38.91H86.9767V36.91ZM80.7348 38.1182L84.0028 22.7662L82.0466 22.3498L78.7786 37.7018L80.7348 38.1182ZM83.0247 21.558H70.2947V23.558H83.0247V21.558ZM69.3166 22.3498L66.0486 37.7018L68.0048 38.1182L71.2728 22.7662L69.3166 22.3498ZM67.0267 36.91H59.8447V38.91H67.0267V36.91ZM60.8229 38.1178L64.8509 19.1558L62.8945 18.7402L58.8665 37.7022L60.8229 38.1178ZM63.8727 19.948H86.1787V17.948H63.8727V19.948ZM86.1787 19.948C86.9306 19.948 87.7036 20.0694 88.5009 20.32L89.1005 18.412C88.1245 18.1053 87.1495 17.948 86.1787 17.948V19.948ZM88.4967 20.3187C89.0325 20.4897 89.3377 20.6611 89.4921 20.7925C89.5636 20.8534 89.5851 20.8908 89.5887 20.8977C89.5904 20.9009 89.5893 20.8996 89.5881 20.8946C89.5868 20.8895 89.5867 20.886 89.5867 20.886H91.5867C91.5867 20.2088 91.2523 19.6643 90.7883 19.2695C90.3474 18.8942 89.7596 18.6223 89.1047 18.4133L88.4967 20.3187ZM89.5867 20.886C89.5867 20.7857 89.6055 20.6956 89.5969 20.7469C89.5962 20.7509 89.5941 20.7626 89.5899 20.7851C89.5817 20.8288 89.5685 20.8957 89.55 20.9879C89.513 21.1714 89.4572 21.4426 89.3821 21.803C89.2321 22.5232 89.0067 23.5922 88.706 25.0106C88.1045 27.847 87.2021 32.0769 85.9988 37.7008L87.9546 38.1192C89.1579 32.4951 90.0606 28.2637 90.6625 25.4254C90.9633 24.0065 91.1893 22.9348 91.3401 22.211C91.4154 21.8494 91.4723 21.5728 91.5106 21.3826C91.5297 21.288 91.5447 21.2115 91.5553 21.1555C91.5605 21.1282 91.5654 21.1009 91.5695 21.0768C91.5714 21.0653 91.5741 21.0485 91.5766 21.0301C91.5779 21.0209 91.5798 21.0063 91.5815 20.9887C91.5827 20.9773 91.5867 20.937 91.5867 20.886H89.5867ZM94.0465 37.492L94.3882 36.5522L94.3828 36.5503L94.0465 37.492ZM95.6045 21.19L96.5822 21.4002L96.5837 21.3926L95.6045 21.19ZM97.8465 19.442L98.1519 20.3942L98.1556 20.393L97.8465 19.442ZM121.026 19.366L120.719 20.3175L120.722 20.3187L121.026 19.366ZM122.204 23.888V24.888H123.014L123.182 24.0966L122.204 23.888ZM114.946 23.888L113.972 23.6652L113.692 24.888H114.946V23.888ZM115.25 22.558L116.225 22.7808L116.505 21.558H115.25V22.558ZM102.52 22.558V21.558H101.709L101.542 22.3521L102.52 22.558ZM100.05 34.3L99.0719 34.0941L98.8182 35.3H100.05V34.3ZM112.742 34.3V35.3H113.549L113.72 34.5113L112.742 34.3ZM113.654 30.082L114.632 30.2933L114.894 29.082H113.654V30.082ZM108.6 30.082L107.622 29.876L107.368 31.082H108.6V30.082ZM109.36 26.472V25.472H108.549L108.382 26.266L109.36 26.472ZM121.634 26.472L122.613 26.6774L122.866 25.472H121.634V26.472ZM119.696 35.706L120.674 35.9155L120.675 35.9114L119.696 35.706ZM117.606 37.416L117.279 36.4712L117.276 36.4721L117.606 37.416ZM114.718 36.948H96.5165V38.948H114.718V36.948ZM96.5165 36.948C95.8332 36.948 95.1253 36.8202 94.3882 36.5522L93.7047 38.4318C94.6396 38.7718 95.5785 38.948 96.5165 38.948V36.948ZM94.3828 36.5503C93.9226 36.3859 93.6715 36.2225 93.548 36.1019C93.4476 36.0039 93.4505 35.9582 93.4505 35.934H91.4505C91.4505 37.2741 92.5652 38.0248 93.7101 38.4337L94.3828 36.5503ZM93.4505 35.934C93.4505 35.9792 93.4473 36.0143 93.4463 36.0254C93.4448 36.0412 93.4433 36.0536 93.4424 36.0605C93.4406 36.0744 93.4389 36.0847 93.4384 36.0881C93.4371 36.0958 93.4363 36.0999 93.4368 36.0972C93.4376 36.0929 93.4396 36.0824 93.4435 36.0632C93.4509 36.0258 93.4626 35.9687 93.4789 35.8902C93.5113 35.7339 93.5603 35.5012 93.6259 35.1911C93.7571 34.5715 93.9541 33.6477 94.2169 32.4192C94.7424 29.9624 95.5308 26.2895 96.5821 21.4002L94.6268 20.9798C93.5755 25.8692 92.7869 29.5429 92.2611 32.0008C91.9982 33.2296 91.8009 34.1551 91.6693 34.7769C91.6035 35.0875 91.5539 35.3235 91.5206 35.4838C91.5041 35.5637 91.4911 35.6268 91.4821 35.6718C91.4778 35.6938 91.4736 35.7149 91.4703 35.7328C91.4688 35.7411 91.4664 35.754 91.4641 35.768C91.4631 35.7746 91.461 35.7875 91.459 35.8033C91.458 35.8112 91.4563 35.8245 91.4548 35.8409C91.4537 35.8528 91.4505 35.8884 91.4505 35.934H93.4505ZM96.5837 21.3926C96.6161 21.2361 96.8556 20.81 98.1519 20.3942L97.5411 18.4898C96.1521 18.9353 94.8968 19.6746 94.6252 20.9874L96.5837 21.3926ZM98.1556 20.393C99.0743 20.0945 99.9834 19.948 100.886 19.948V17.948C99.7629 17.948 98.6454 18.1309 97.5374 18.491L98.1556 20.393ZM100.886 19.948H118.404V17.948H100.886V19.948ZM118.404 19.948C119.184 19.948 119.955 20.0703 120.719 20.3174L121.334 18.4146C120.376 18.1044 119.398 17.948 118.404 17.948V19.948ZM120.722 20.3187C121.258 20.4897 121.563 20.6611 121.718 20.7925C121.789 20.8534 121.811 20.8908 121.814 20.8977C121.816 20.9009 121.815 20.8996 121.814 20.8946C121.813 20.8895 121.812 20.886 121.812 20.886H123.812C123.812 20.2088 123.478 19.6643 123.014 19.2695C122.573 18.8942 121.985 18.6223 121.331 18.4133L120.722 20.3187ZM121.812 20.886C121.812 20.8071 121.824 20.7543 121.815 20.8127C121.811 20.8402 121.803 20.8847 121.791 20.9497C121.767 21.0787 121.731 21.2658 121.68 21.514C121.58 22.0092 121.429 22.7303 121.226 23.6794L123.182 24.0966C123.385 23.1457 123.538 22.4165 123.641 21.911C123.692 21.6589 123.731 21.4581 123.758 21.3115C123.771 21.2388 123.783 21.1737 123.791 21.1197C123.795 21.0965 123.812 20.9903 123.812 20.886H121.812ZM122.204 22.888H114.946V24.888H122.204V22.888ZM115.921 24.1108L116.225 22.7808L114.276 22.3352L113.972 23.6652L115.921 24.1108ZM115.25 21.558H102.52V23.558H115.25V21.558ZM101.542 22.3521L99.0719 34.0941L101.029 34.5059L103.499 22.7639L101.542 22.3521ZM100.05 35.3H112.742V33.3H100.05V35.3ZM113.72 34.5113L114.632 30.2933L112.677 29.8707L111.765 34.0887L113.72 34.5113ZM113.654 29.082H108.6V31.082H113.654V29.082ZM109.579 30.288L110.339 26.678L108.382 26.266L107.622 29.876L109.579 30.288ZM109.36 27.472H121.634V25.472H109.36V27.472ZM120.656 26.2666L118.718 35.5006L120.675 35.9114L122.613 26.6774L120.656 26.2666ZM118.719 35.4965C118.684 35.6584 118.455 36.0632 117.279 36.4712L117.934 38.3608C119.241 37.9075 120.405 37.1723 120.674 35.9155L118.719 35.4965ZM117.276 36.4721C116.351 36.7961 115.5 36.948 114.718 36.948V38.948C115.761 38.948 116.836 38.7453 117.937 38.3599L117.276 36.4721Z" fill="url(#paint1_linear_309_32)"/>
</g>
<g filter="url(#filter2_f_309_32)">
<path d="M39.838 28.182V27.182L39.7613 29.1791L39.838 28.182ZM43.752 31.26L44.7406 31.411L44.742 31.4014L43.752 31.26ZM42.156 41.71V42.71H43.0149L43.1445 41.861L42.156 41.71ZM34.936 41.71L33.9474 41.5595L33.7722 42.71H34.936V41.71ZM36.608 30.728L37.5966 30.8785L37.7718 29.728H36.608V30.728ZM23.878 30.728V29.728H23.0187L22.8894 30.5775L23.878 30.728ZM22.206 41.71V42.71H23.0653L23.1946 41.8605L22.206 41.71ZM15.024 41.71L14.0353 41.5601L13.8609 42.71H15.024V41.71ZM19.052 15.148V14.148H18.1922L18.0633 14.9981L19.052 15.148ZM26.272 15.148L27.2602 15.3014L27.4392 14.148H26.272V15.148ZM24.638 25.674L23.6498 25.5206L23.4708 26.674H24.638V25.674ZM37.368 25.674V26.674H38.2278L38.3567 25.8239L37.368 25.674ZM38.964 15.148V14.148H38.1042L37.9753 14.9981L38.964 15.148ZM46.184 15.148L47.1726 15.2984L47.3476 14.148H46.184V15.148ZM44.664 25.142L45.6512 25.3021L45.6526 25.2924L44.664 25.142ZM42.802 27.422L42.3303 26.5402L42.3265 26.5423L42.802 27.422ZM39.7613 29.1791C41.006 29.2748 41.7899 29.5284 42.2382 29.8344C42.6237 30.0976 42.79 30.4122 42.79 30.88H44.79C44.79 29.7518 44.2976 28.8187 43.3658 28.1826C42.4967 27.5893 41.3047 27.2919 39.9147 27.1849L39.7613 29.1791ZM42.79 30.88C42.79 30.8701 42.7904 30.8834 42.7855 30.9325C42.781 30.9775 42.7735 31.0387 42.7621 31.1186L44.742 31.4014C44.7675 31.2229 44.79 31.0339 44.79 30.88H42.79ZM42.7635 31.109L41.1675 41.559L43.1445 41.861L44.7405 31.411L42.7635 31.109ZM42.156 40.71H34.936V42.71H42.156V40.71ZM35.9246 41.8605L37.5966 30.8785L35.6194 30.5775L33.9474 41.5595L35.9246 41.8605ZM36.608 29.728H23.878V31.728H36.608V29.728ZM22.8894 30.5775L21.2174 41.5595L23.1946 41.8605L24.8666 30.8785L22.8894 30.5775ZM22.206 40.71H15.024V42.71H22.206V40.71ZM16.0127 41.8599L20.0407 15.2979L18.0633 14.9981L14.0353 41.5601L16.0127 41.8599ZM19.052 16.148H26.272V14.148H19.052V16.148ZM25.2838 14.9946L23.6498 25.5206L25.6262 25.8274L27.2602 15.3014L25.2838 14.9946ZM24.638 26.674H37.368V24.674H24.638V26.674ZM38.3567 25.8239L39.9527 15.2979L37.9753 14.9981L36.3793 25.5241L38.3567 25.8239ZM38.964 16.148H46.184V14.148H38.964V16.148ZM45.1954 14.9976L43.6754 24.9916L45.6526 25.2924L47.1726 15.2984L45.1954 14.9976ZM43.6769 24.9819C43.5892 25.5229 43.235 26.0563 42.3303 26.5402L43.2737 28.3038C44.5477 27.6223 45.4348 26.6358 45.6511 25.3021L43.6769 24.9819ZM42.3265 26.5423C41.5313 26.9721 40.7062 27.182 39.838 27.182V29.182C41.0471 29.182 42.1981 28.8852 43.2775 28.3017L42.3265 26.5423ZM54.4318 37.91V38.91H55.2401L55.4096 38.1197L54.4318 37.91ZM47.2498 37.91L46.2716 37.7022L46.015 38.91H47.2498V37.91ZM51.2778 18.948V17.948H50.4679L50.2996 18.7402L51.2778 18.948ZM58.4978 18.948L59.4756 19.1577L59.7349 17.948H58.4978V18.948ZM54.4318 36.91H47.2498V38.91H54.4318V36.91ZM48.228 38.1178L52.256 19.1558L50.2996 18.7402L46.2716 37.7022L48.228 38.1178ZM51.2778 19.948H58.4978V17.948H51.2778V19.948ZM57.52 18.7383L53.454 37.7003L55.4096 38.1197L59.4756 19.1577L57.52 18.7383ZM86.9767 37.91V38.91H87.7854L87.9546 38.1192L86.9767 37.91ZM79.7567 37.91L78.7786 37.7018L78.5214 38.91H79.7567V37.91ZM83.0247 22.558L84.0028 22.7662L84.26 21.558H83.0247V22.558ZM70.2947 22.558V21.558H69.4852L69.3166 22.3498L70.2947 22.558ZM67.0267 37.91V38.91H67.8362L68.0048 38.1182L67.0267 37.91ZM59.8447 37.91L58.8665 37.7022L58.61 38.91H59.8447V37.91ZM63.8727 18.948V17.948H63.0628L62.8945 18.7402L63.8727 18.948ZM88.8007 19.366L89.1047 18.4133L89.1005 18.412L88.8007 19.366ZM86.9767 36.91H79.7567V38.91H86.9767V36.91ZM80.7348 38.1182L84.0028 22.7662L82.0466 22.3498L78.7786 37.7018L80.7348 38.1182ZM83.0247 21.558H70.2947V23.558H83.0247V21.558ZM69.3166 22.3498L66.0486 37.7018L68.0048 38.1182L71.2728 22.7662L69.3166 22.3498ZM67.0267 36.91H59.8447V38.91H67.0267V36.91ZM60.8229 38.1178L64.8509 19.1558L62.8945 18.7402L58.8665 37.7022L60.8229 38.1178ZM63.8727 19.948H86.1787V17.948H63.8727V19.948ZM86.1787 19.948C86.9306 19.948 87.7036 20.0694 88.5009 20.32L89.1005 18.412C88.1245 18.1053 87.1495 17.948 86.1787 17.948V19.948ZM88.4967 20.3187C89.0325 20.4897 89.3377 20.6611 89.4921 20.7925C89.5636 20.8534 89.5851 20.8908 89.5887 20.8977C89.5904 20.9009 89.5893 20.8996 89.5881 20.8946C89.5868 20.8895 89.5867 20.886 89.5867 20.886H91.5867C91.5867 20.2088 91.2523 19.6643 90.7883 19.2695C90.3474 18.8942 89.7596 18.6223 89.1047 18.4133L88.4967 20.3187ZM89.5867 20.886C89.5867 20.7857 89.6055 20.6956 89.5969 20.7469C89.5962 20.7509 89.5941 20.7626 89.5899 20.7851C89.5817 20.8288 89.5685 20.8957 89.55 20.9879C89.513 21.1714 89.4572 21.4426 89.3821 21.803C89.2321 22.5232 89.0067 23.5922 88.706 25.0106C88.1045 27.847 87.2021 32.0769 85.9988 37.7008L87.9546 38.1192C89.1579 32.4951 90.0606 28.2637 90.6625 25.4254C90.9633 24.0065 91.1893 22.9348 91.3401 22.211C91.4154 21.8494 91.4723 21.5728 91.5106 21.3826C91.5297 21.288 91.5447 21.2115 91.5553 21.1555C91.5605 21.1282 91.5654 21.1009 91.5695 21.0768C91.5714 21.0653 91.5741 21.0485 91.5766 21.0301C91.5779 21.0209 91.5798 21.0063 91.5815 20.9887C91.5827 20.9773 91.5867 20.937 91.5867 20.886H89.5867ZM94.0465 37.492L94.3882 36.5522L94.3828 36.5503L94.0465 37.492ZM95.6045 21.19L96.5822 21.4002L96.5837 21.3926L95.6045 21.19ZM97.8465 19.442L98.1519 20.3942L98.1556 20.393L97.8465 19.442ZM121.026 19.366L120.719 20.3175L120.722 20.3187L121.026 19.366ZM122.204 23.888V24.888H123.014L123.182 24.0966L122.204 23.888ZM114.946 23.888L113.972 23.6652L113.692 24.888H114.946V23.888ZM115.25 22.558L116.225 22.7808L116.505 21.558H115.25V22.558ZM102.52 22.558V21.558H101.709L101.542 22.3521L102.52 22.558ZM100.05 34.3L99.0719 34.0941L98.8182 35.3H100.05V34.3ZM112.742 34.3V35.3H113.549L113.72 34.5113L112.742 34.3ZM113.654 30.082L114.632 30.2933L114.894 29.082H113.654V30.082ZM108.6 30.082L107.622 29.876L107.368 31.082H108.6V30.082ZM109.36 26.472V25.472H108.549L108.382 26.266L109.36 26.472ZM121.634 26.472L122.613 26.6774L122.866 25.472H121.634V26.472ZM119.696 35.706L120.674 35.9155L120.675 35.9114L119.696 35.706ZM117.606 37.416L117.279 36.4712L117.276 36.4721L117.606 37.416ZM114.718 36.948H96.5165V38.948H114.718V36.948ZM96.5165 36.948C95.8332 36.948 95.1253 36.8202 94.3882 36.5522L93.7047 38.4318C94.6396 38.7718 95.5785 38.948 96.5165 38.948V36.948ZM94.3828 36.5503C93.9226 36.3859 93.6715 36.2225 93.548 36.1019C93.4476 36.0039 93.4505 35.9582 93.4505 35.934H91.4505C91.4505 37.2741 92.5652 38.0248 93.7101 38.4337L94.3828 36.5503ZM93.4505 35.934C93.4505 35.9792 93.4473 36.0143 93.4463 36.0254C93.4448 36.0412 93.4433 36.0536 93.4424 36.0605C93.4406 36.0744 93.4389 36.0847 93.4384 36.0881C93.4371 36.0958 93.4363 36.0999 93.4368 36.0972C93.4376 36.0929 93.4396 36.0824 93.4435 36.0632C93.4509 36.0258 93.4626 35.9687 93.4789 35.8902C93.5113 35.7339 93.5603 35.5012 93.6259 35.1911C93.7571 34.5715 93.9541 33.6477 94.2169 32.4192C94.7424 29.9624 95.5308 26.2895 96.5821 21.4002L94.6268 20.9798C93.5755 25.8692 92.7869 29.5429 92.2611 32.0008C91.9982 33.2296 91.8009 34.1551 91.6693 34.7769C91.6035 35.0875 91.5539 35.3235 91.5206 35.4838C91.5041 35.5637 91.4911 35.6268 91.4821 35.6718C91.4778 35.6938 91.4736 35.7149 91.4703 35.7328C91.4688 35.7411 91.4664 35.754 91.4641 35.768C91.4631 35.7746 91.461 35.7875 91.459 35.8033C91.458 35.8112 91.4563 35.8245 91.4548 35.8409C91.4537 35.8528 91.4505 35.8884 91.4505 35.934H93.4505ZM96.5837 21.3926C96.6161 21.2361 96.8556 20.81 98.1519 20.3942L97.5411 18.4898C96.1521 18.9353 94.8968 19.6746 94.6252 20.9874L96.5837 21.3926ZM98.1556 20.393C99.0743 20.0945 99.9834 19.948 100.886 19.948V17.948C99.7629 17.948 98.6454 18.1309 97.5374 18.491L98.1556 20.393ZM100.886 19.948H118.404V17.948H100.886V19.948ZM118.404 19.948C119.184 19.948 119.955 20.0703 120.719 20.3174L121.334 18.4146C120.376 18.1044 119.398 17.948 118.404 17.948V19.948ZM120.722 20.3187C121.258 20.4897 121.563 20.6611 121.718 20.7925C121.789 20.8534 121.811 20.8908 121.814 20.8977C121.816 20.9009 121.815 20.8996 121.814 20.8946C121.813 20.8895 121.812 20.886 121.812 20.886H123.812C123.812 20.2088 123.478 19.6643 123.014 19.2695C122.573 18.8942 121.985 18.6223 121.331 18.4133L120.722 20.3187ZM121.812 20.886C121.812 20.8071 121.824 20.7543 121.815 20.8127C121.811 20.8402 121.803 20.8847 121.791 20.9497C121.767 21.0787 121.731 21.2658 121.68 21.514C121.58 22.0092 121.429 22.7303 121.226 23.6794L123.182 24.0966C123.385 23.1457 123.538 22.4165 123.641 21.911C123.692 21.6589 123.731 21.4581 123.758 21.3115C123.771 21.2388 123.783 21.1737 123.791 21.1197C123.795 21.0965 123.812 20.9903 123.812 20.886H121.812ZM122.204 22.888H114.946V24.888H122.204V22.888ZM115.921 24.1108L116.225 22.7808L114.276 22.3352L113.972 23.6652L115.921 24.1108ZM115.25 21.558H102.52V23.558H115.25V21.558ZM101.542 22.3521L99.0719 34.0941L101.029 34.5059L103.499 22.7639L101.542 22.3521ZM100.05 35.3H112.742V33.3H100.05V35.3ZM113.72 34.5113L114.632 30.2933L112.677 29.8707L111.765 34.0887L113.72 34.5113ZM113.654 29.082H108.6V31.082H113.654V29.082ZM109.579 30.288L110.339 26.678L108.382 26.266L107.622 29.876L109.579 30.288ZM109.36 27.472H121.634V25.472H109.36V27.472ZM120.656 26.2666L118.718 35.5006L120.675 35.9114L122.613 26.6774L120.656 26.2666ZM118.719 35.4965C118.684 35.6584 118.455 36.0632 117.279 36.4712L117.934 38.3608C119.241 37.9075 120.405 37.1723 120.674 35.9155L118.719 35.4965ZM117.276 36.4721C116.351 36.7961 115.5 36.948 114.718 36.948V38.948C115.761 38.948 116.836 38.7453 117.937 38.3599L117.276 36.4721Z" fill="url(#paint2_linear_309_32)"/>
</g>
<path d="M39.838 28.182V27.182L39.7613 29.1791L39.838 28.182ZM43.752 31.26L44.7406 31.411L44.742 31.4014L43.752 31.26ZM42.156 41.71V42.71H43.0149L43.1445 41.861L42.156 41.71ZM34.936 41.71L33.9474 41.5595L33.7722 42.71H34.936V41.71ZM36.608 30.728L37.5966 30.8785L37.7718 29.728H36.608V30.728ZM23.878 30.728V29.728H23.0187L22.8894 30.5775L23.878 30.728ZM22.206 41.71V42.71H23.0653L23.1946 41.8605L22.206 41.71ZM15.024 41.71L14.0353 41.5601L13.8609 42.71H15.024V41.71ZM19.052 15.148V14.148H18.1922L18.0633 14.9981L19.052 15.148ZM26.272 15.148L27.2602 15.3014L27.4392 14.148H26.272V15.148ZM24.638 25.674L23.6498 25.5206L23.4708 26.674H24.638V25.674ZM37.368 25.674V26.674H38.2278L38.3567 25.8239L37.368 25.674ZM38.964 15.148V14.148H38.1042L37.9753 14.9981L38.964 15.148ZM46.184 15.148L47.1726 15.2984L47.3476 14.148H46.184V15.148ZM44.664 25.142L45.6512 25.3021L45.6526 25.2924L44.664 25.142ZM42.802 27.422L42.3303 26.5402L42.3265 26.5423L42.802 27.422ZM39.7613 29.1791C41.006 29.2748 41.7899 29.5284 42.2382 29.8344C42.6237 30.0976 42.79 30.4122 42.79 30.88H44.79C44.79 29.7518 44.2976 28.8187 43.3658 28.1826C42.4967 27.5893 41.3047 27.2919 39.9147 27.1849L39.7613 29.1791ZM42.79 30.88C42.79 30.8701 42.7904 30.8834 42.7855 30.9325C42.781 30.9775 42.7735 31.0387 42.7621 31.1186L44.742 31.4014C44.7675 31.2229 44.79 31.0339 44.79 30.88H42.79ZM42.7635 31.109L41.1675 41.559L43.1445 41.861L44.7405 31.411L42.7635 31.109ZM42.156 40.71H34.936V42.71H42.156V40.71ZM35.9246 41.8605L37.5966 30.8785L35.6194 30.5775L33.9474 41.5595L35.9246 41.8605ZM36.608 29.728H23.878V31.728H36.608V29.728ZM22.8894 30.5775L21.2174 41.5595L23.1946 41.8605L24.8666 30.8785L22.8894 30.5775ZM22.206 40.71H15.024V42.71H22.206V40.71ZM16.0127 41.8599L20.0407 15.2979L18.0633 14.9981L14.0353 41.5601L16.0127 41.8599ZM19.052 16.148H26.272V14.148H19.052V16.148ZM25.2838 14.9946L23.6498 25.5206L25.6262 25.8274L27.2602 15.3014L25.2838 14.9946ZM24.638 26.674H37.368V24.674H24.638V26.674ZM38.3567 25.8239L39.9527 15.2979L37.9753 14.9981L36.3793 25.5241L38.3567 25.8239ZM38.964 16.148H46.184V14.148H38.964V16.148ZM45.1954 14.9976L43.6754 24.9916L45.6526 25.2924L47.1726 15.2984L45.1954 14.9976ZM43.6769 24.9819C43.5892 25.5229 43.235 26.0563 42.3303 26.5402L43.2737 28.3038C44.5477 27.6223 45.4348 26.6358 45.6511 25.3021L43.6769 24.9819ZM42.3265 26.5423C41.5313 26.9721 40.7062 27.182 39.838 27.182V29.182C41.0471 29.182 42.1981 28.8852 43.2775 28.3017L42.3265 26.5423ZM54.4318 37.91V38.91H55.2401L55.4096 38.1197L54.4318 37.91ZM47.2498 37.91L46.2716 37.7022L46.015 38.91H47.2498V37.91ZM51.2778 18.948V17.948H50.4679L50.2996 18.7402L51.2778 18.948ZM58.4978 18.948L59.4756 19.1577L59.7349 17.948H58.4978V18.948ZM54.4318 36.91H47.2498V38.91H54.4318V36.91ZM48.228 38.1178L52.256 19.1558L50.2996 18.7402L46.2716 37.7022L48.228 38.1178ZM51.2778 19.948H58.4978V17.948H51.2778V19.948ZM57.52 18.7383L53.454 37.7003L55.4096 38.1197L59.4756 19.1577L57.52 18.7383ZM86.9767 37.91V38.91H87.7854L87.9546 38.1192L86.9767 37.91ZM79.7567 37.91L78.7786 37.7018L78.5214 38.91H79.7567V37.91ZM83.0247 22.558L84.0028 22.7662L84.26 21.558H83.0247V22.558ZM70.2947 22.558V21.558H69.4852L69.3166 22.3498L70.2947 22.558ZM67.0267 37.91V38.91H67.8362L68.0048 38.1182L67.0267 37.91ZM59.8447 37.91L58.8665 37.7022L58.61 38.91H59.8447V37.91ZM63.8727 18.948V17.948H63.0628L62.8945 18.7402L63.8727 18.948ZM88.8007 19.366L89.1047 18.4133L89.1005 18.412L88.8007 19.366ZM86.9767 36.91H79.7567V38.91H86.9767V36.91ZM80.7348 38.1182L84.0028 22.7662L82.0466 22.3498L78.7786 37.7018L80.7348 38.1182ZM83.0247 21.558H70.2947V23.558H83.0247V21.558ZM69.3166 22.3498L66.0486 37.7018L68.0048 38.1182L71.2728 22.7662L69.3166 22.3498ZM67.0267 36.91H59.8447V38.91H67.0267V36.91ZM60.8229 38.1178L64.8509 19.1558L62.8945 18.7402L58.8665 37.7022L60.8229 38.1178ZM63.8727 19.948H86.1787V17.948H63.8727V19.948ZM86.1787 19.948C86.9306 19.948 87.7036 20.0694 88.5009 20.32L89.1005 18.412C88.1245 18.1053 87.1495 17.948 86.1787 17.948V19.948ZM88.4967 20.3187C89.0325 20.4897 89.3377 20.6611 89.4921 20.7925C89.5636 20.8534 89.5851 20.8908 89.5887 20.8977C89.5904 20.9009 89.5893 20.8996 89.5881 20.8946C89.5868 20.8895 89.5867 20.886 89.5867 20.886H91.5867C91.5867 20.2088 91.2523 19.6643 90.7883 19.2695C90.3474 18.8942 89.7596 18.6223 89.1047 18.4133L88.4967 20.3187ZM89.5867 20.886C89.5867 20.7857 89.6055 20.6956 89.5969 20.7469C89.5962 20.7509 89.5941 20.7626 89.5899 20.7851C89.5817 20.8288 89.5685 20.8957 89.55 20.9879C89.513 21.1714 89.4572 21.4426 89.3821 21.803C89.2321 22.5232 89.0067 23.5922 88.706 25.0106C88.1045 27.847 87.2021 32.0769 85.9988 37.7008L87.9546 38.1192C89.1579 32.4951 90.0606 28.2637 90.6625 25.4254C90.9633 24.0065 91.1893 22.9348 91.3401 22.211C91.4154 21.8494 91.4723 21.5728 91.5106 21.3826C91.5297 21.288 91.5447 21.2115 91.5553 21.1555C91.5605 21.1282 91.5654 21.1009 91.5695 21.0768C91.5714 21.0653 91.5741 21.0485 91.5766 21.0301C91.5779 21.0209 91.5798 21.0063 91.5815 20.9887C91.5827 20.9773 91.5867 20.937 91.5867 20.886H89.5867ZM94.0465 37.492L94.3882 36.5522L94.3828 36.5503L94.0465 37.492ZM95.6045 21.19L96.5822 21.4002L96.5837 21.3926L95.6045 21.19ZM97.8465 19.442L98.1519 20.3942L98.1556 20.393L97.8465 19.442ZM121.026 19.366L120.719 20.3175L120.722 20.3187L121.026 19.366ZM122.204 23.888V24.888H123.014L123.182 24.0966L122.204 23.888ZM114.946 23.888L113.972 23.6652L113.692 24.888H114.946V23.888ZM115.25 22.558L116.225 22.7808L116.505 21.558H115.25V22.558ZM102.52 22.558V21.558H101.709L101.542 22.3521L102.52 22.558ZM100.05 34.3L99.0719 34.0941L98.8182 35.3H100.05V34.3ZM112.742 34.3V35.3H113.549L113.72 34.5113L112.742 34.3ZM113.654 30.082L114.632 30.2933L114.894 29.082H113.654V30.082ZM108.6 30.082L107.622 29.876L107.368 31.082H108.6V30.082ZM109.36 26.472V25.472H108.549L108.382 26.266L109.36 26.472ZM121.634 26.472L122.613 26.6774L122.866 25.472H121.634V26.472ZM119.696 35.706L120.674 35.9155L120.675 35.9114L119.696 35.706ZM117.606 37.416L117.279 36.4712L117.276 36.4721L117.606 37.416ZM114.718 36.948H96.5165V38.948H114.718V36.948ZM96.5165 36.948C95.8332 36.948 95.1253 36.8202 94.3882 36.5522L93.7047 38.4318C94.6396 38.7718 95.5785 38.948 96.5165 38.948V36.948ZM94.3828 36.5503C93.9226 36.3859 93.6715 36.2225 93.548 36.1019C93.4476 36.0039 93.4505 35.9582 93.4505 35.934H91.4505C91.4505 37.2741 92.5652 38.0248 93.7101 38.4337L94.3828 36.5503ZM93.4505 35.934C93.4505 35.9792 93.4473 36.0143 93.4463 36.0254C93.4448 36.0412 93.4433 36.0536 93.4424 36.0605C93.4406 36.0744 93.4389 36.0847 93.4384 36.0881C93.4371 36.0958 93.4363 36.0999 93.4368 36.0972C93.4376 36.0929 93.4396 36.0824 93.4435 36.0632C93.4509 36.0258 93.4626 35.9687 93.4789 35.8902C93.5113 35.7339 93.5603 35.5012 93.6259 35.1911C93.7571 34.5715 93.9541 33.6477 94.2169 32.4192C94.7424 29.9624 95.5308 26.2895 96.5821 21.4002L94.6268 20.9798C93.5755 25.8692 92.7869 29.5429 92.2611 32.0008C91.9982 33.2296 91.8009 34.1551 91.6693 34.7769C91.6035 35.0875 91.5539 35.3235 91.5206 35.4838C91.5041 35.5637 91.4911 35.6268 91.4821 35.6718C91.4778 35.6938 91.4736 35.7149 91.4703 35.7328C91.4688 35.7411 91.4664 35.754 91.4641 35.768C91.4631 35.7746 91.461 35.7875 91.459 35.8033C91.458 35.8112 91.4563 35.8245 91.4548 35.8409C91.4537 35.8528 91.4505 35.8884 91.4505 35.934H93.4505ZM96.5837 21.3926C96.6161 21.2361 96.8556 20.81 98.1519 20.3942L97.5411 18.4898C96.1521 18.9353 94.8968 19.6746 94.6252 20.9874L96.5837 21.3926ZM98.1556 20.393C99.0743 20.0945 99.9834 19.948 100.886 19.948V17.948C99.7629 17.948 98.6454 18.1309 97.5374 18.491L98.1556 20.393ZM100.886 19.948H118.404V17.948H100.886V19.948ZM118.404 19.948C119.184 19.948 119.955 20.0703 120.719 20.3174L121.334 18.4146C120.376 18.1044 119.398 17.948 118.404 17.948V19.948ZM120.722 20.3187C121.258 20.4897 121.563 20.6611 121.718 20.7925C121.789 20.8534 121.811 20.8908 121.814 20.8977C121.816 20.9009 121.815 20.8996 121.814 20.8946C121.813 20.8895 121.812 20.886 121.812 20.886H123.812C123.812 20.2088 123.478 19.6643 123.014 19.2695C122.573 18.8942 121.985 18.6223 121.331 18.4133L120.722 20.3187ZM121.812 20.886C121.812 20.8071 121.824 20.7543 121.815 20.8127C121.811 20.8402 121.803 20.8847 121.791 20.9497C121.767 21.0787 121.731 21.2658 121.68 21.514C121.58 22.0092 121.429 22.7303 121.226 23.6794L123.182 24.0966C123.385 23.1457 123.538 22.4165 123.641 21.911C123.692 21.6589 123.731 21.4581 123.758 21.3115C123.771 21.2388 123.783 21.1737 123.791 21.1197C123.795 21.0965 123.812 20.9903 123.812 20.886H121.812ZM122.204 22.888H114.946V24.888H122.204V22.888ZM115.921 24.1108L116.225 22.7808L114.276 22.3352L113.972 23.6652L115.921 24.1108ZM115.25 21.558H102.52V23.558H115.25V21.558ZM101.542 22.3521L99.0719 34.0941L101.029 34.5059L103.499 22.7639L101.542 22.3521ZM100.05 35.3H112.742V33.3H100.05V35.3ZM113.72 34.5113L114.632 30.2933L112.677 29.8707L111.765 34.0887L113.72 34.5113ZM113.654 29.082H108.6V31.082H113.654V29.082ZM109.579 30.288L110.339 26.678L108.382 26.266L107.622 29.876L109.579 30.288ZM109.36 27.472H121.634V25.472H109.36V27.472ZM120.656 26.2666L118.718 35.5006L120.675 35.9114L122.613 26.6774L120.656 26.2666ZM118.719 35.4965C118.684 35.6584 118.455 36.0632 117.279 36.4712L117.934 38.3608C119.241 37.9075 120.405 37.1723 120.674 35.9155L118.719 35.4965ZM117.276 36.4721C116.351 36.7961 115.5 36.948 114.718 36.948V38.948C115.761 38.948 116.836 38.7453 117.937 38.3599L117.276 36.4721Z" fill="white"/>
<defs>
<filter id="filter0_f_309_32" x="5.02399" y="5.14844" width="127.788" height="46.5615" filterUnits="userSpaceOnUse" color-interpolation-filters="sRGB">
<feFlood flood-opacity="0" result="BackgroundImageFix"/>
<feBlend mode="normal" in="SourceGraphic" in2="BackgroundImageFix" result="shape"/>
<feGaussianBlur stdDeviation="5" result="effect1_foregroundBlur_309_32"/>
</filter>
<filter id="filter1_f_309_32" x="0.0239868" y="0.148438" width="137.788" height="56.5615" filterUnits="userSpaceOnUse" color-interpolation-filters="sRGB">
<feFlood flood-opacity="0" result="BackgroundImageFix"/>
<feBlend mode="normal" in="SourceGraphic" in2="BackgroundImageFix" result="shape"/>
<feGaussianBlur stdDeviation="7.5" result="effect1_foregroundBlur_309_32"/>
</filter>
<filter id="filter2_f_309_32" x="9.02399" y="9.14844" width="119.788" height="38.5615" filterUnits="userSpaceOnUse" color-interpolation-filters="sRGB">
<feFlood flood-opacity="0" result="BackgroundImageFix"/>
<feBlend mode="normal" in="SourceGraphic" in2="BackgroundImageFix" result="shape"/>
<feGaussianBlur stdDeviation="3" result="effect1_foregroundBlur_309_32"/>
</filter>
<linearGradient id="paint0_linear_309_32" x1="70" y1="10" x2="70" y2="48" gradientUnits="userSpaceOnUse">
<stop stop-color="#3BEDF9"/>
<stop offset="1" stop-color="#164FFF"/>
</linearGradient>
<linearGradient id="paint1_linear_309_32" x1="70" y1="10" x2="70" y2="48" gradientUnits="userSpaceOnUse">
<stop stop-color="#3BEDF9"/>
<stop offset="1" stop-color="#164FFF"/>
</linearGradient>
<linearGradient id="paint2_linear_309_32" x1="70" y1="10" x2="70" y2="48" gradientUnits="userSpaceOnUse">
<stop stop-color="#3BEDF9"/>
<stop offset="1" stop-color="#164FFF"/>
</linearGradient>
</defs>
</svg>
