<svg width="264" height="57" viewBox="0 0 264 57" fill="none" xmlns="http://www.w3.org/2000/svg">
<g filter="url(#filter0_f_309_47)">
<path d="M42.156 41.71V42.71H43.0154L43.1446 41.8604L42.156 41.71ZM34.936 41.71L33.9473 41.5598L33.7726 42.71H34.936V41.71ZM38.204 20.202L39.1927 20.3522L39.3674 19.202H38.204V20.202ZM35.772 20.202V19.202H34.9125L34.7833 20.0518L35.772 20.202ZM32.504 41.71V42.71H33.3635L33.4927 41.8602L32.504 41.71ZM25.322 41.71L24.3333 41.5598L24.1586 42.71H25.322V41.71ZM28.59 20.202L29.5787 20.3522L29.7534 19.202H28.59V20.202ZM25.474 20.202V19.202H24.6145L24.4853 20.0518L25.474 20.202ZM22.206 41.71V42.71H23.0655L23.1947 41.8602L22.206 41.71ZM15.024 41.71L14.0353 41.5601L13.8609 42.71H15.024V41.71ZM19.052 15.148V14.148H18.1922L18.0633 14.9981L19.052 15.148ZM44.132 15.794L44.5708 14.8954L44.5689 14.8945L44.132 15.794ZM45.728 18.226L44.7579 17.9835L44.7464 18.0291L44.7394 18.0756L45.728 18.226ZM42.156 40.71H34.936V42.71H42.156V40.71ZM35.9247 41.8602L39.1927 20.3522L37.2153 20.0518L33.9473 41.5598L35.9247 41.8602ZM38.204 19.202H35.772V21.202H38.204V19.202ZM34.7833 20.0518L31.5153 41.5598L33.4927 41.8602L36.7607 20.3522L34.7833 20.0518ZM32.504 40.71H25.322V42.71H32.504V40.71ZM26.3107 41.8602L29.5787 20.3522L27.6013 20.0518L24.3333 41.5598L26.3107 41.8602ZM28.59 19.202H25.474V21.202H28.59V19.202ZM24.4853 20.0518L21.2173 41.5598L23.1947 41.8602L26.4627 20.3522L24.4853 20.0518ZM22.206 40.71H15.024V42.71H22.206V40.71ZM16.0127 41.8599L20.0407 15.2979L18.0633 14.9981L14.0353 41.5601L16.0127 41.8599ZM19.052 16.148H41.358V14.148H19.052V16.148ZM41.358 16.148C42.1656 16.148 42.9412 16.3273 43.6951 16.6935L44.5689 14.8945C43.5495 14.3993 42.4757 14.148 41.358 14.148V16.148ZM43.6932 16.6926C44.6001 17.1355 44.766 17.5561 44.766 17.884H46.766C46.766 16.4892 45.8425 15.5165 44.5708 14.8954L43.6932 16.6926ZM44.766 17.884C44.766 17.9456 44.7597 17.9761 44.7579 17.9835L46.6981 18.4685C46.747 18.2732 46.766 18.0758 46.766 17.884H44.766ZM44.7394 18.0756L41.1674 41.5596L43.1446 41.8604L46.7166 18.3764L44.7394 18.0756ZM66.4018 30.082L66.4375 29.0826L65.5991 29.0527L65.4238 29.8731L66.4018 30.082ZM64.7298 37.91V38.91H65.5387L65.7077 38.1189L64.7298 37.91ZM57.5478 37.91L56.5698 37.7011L56.3116 38.91H57.5478V37.91ZM59.2198 30.082L60.1977 30.2909L60.4559 29.082H59.2198V30.082ZM50.8978 29.664L51.2524 28.729L51.2489 28.7277L50.8978 29.664ZM50.2138 23.622L51.1904 23.8369L51.1905 23.8364L50.2138 23.622ZM51.2398 18.948V17.948H50.4355L50.263 18.7336L51.2398 18.948ZM58.4978 18.948L59.475 19.1602L59.7383 17.948H58.4978V18.948ZM56.8638 26.472L55.8866 26.2598L55.6233 27.472H56.8638V26.472ZM69.5938 26.472V27.472H70.4039L70.572 26.6795L69.5938 26.472ZM71.1898 18.948V17.948H70.3797L70.2115 18.7405L71.1898 18.948ZM78.4098 18.948L79.3877 19.157L79.646 17.948H78.4098V18.948ZM76.5098 27.84L75.5319 27.631L75.5317 27.6316L76.5098 27.84ZM67.4658 30.12L67.5015 29.1206L67.5015 29.1206L67.4658 30.12ZM65.4238 29.8731L63.7518 37.7011L65.7077 38.1189L67.3797 30.2909L65.4238 29.8731ZM64.7298 36.91H57.5478V38.91H64.7298V36.91ZM58.5257 38.1189L60.1977 30.2909L58.2418 29.8731L56.5698 37.7011L58.5257 38.1189ZM59.2198 29.082H53.3678V31.082H59.2198V29.082ZM53.3678 29.082C52.5578 29.082 51.8572 28.9584 51.2524 28.729L50.5431 30.599C51.4077 30.9269 52.3538 31.082 53.3678 31.082V29.082ZM51.2489 28.7277C50.4072 28.412 50.3778 28.1169 50.3778 27.992H48.3778C48.3778 29.3364 49.3616 30.156 50.5467 30.6003L51.2489 28.7277ZM50.3778 27.992C50.3778 27.9965 50.3779 27.9727 50.3851 27.9057C50.3918 27.8437 50.4027 27.761 50.4187 27.6551C50.4508 27.4434 50.5005 27.1604 50.569 26.8024C50.7058 26.0873 50.9125 25.1001 51.1904 23.8369L49.2371 23.4071C48.9577 24.6772 48.7465 25.685 48.6046 26.4266C48.4717 27.1213 48.3778 27.6861 48.3778 27.992H50.3778ZM51.1905 23.8364L52.2165 19.1624L50.263 18.7336L49.237 23.4076L51.1905 23.8364ZM51.2398 19.948H58.4978V17.948H51.2398V19.948ZM57.5206 18.7358L55.8866 26.2598L57.841 26.6842L59.475 19.1602L57.5206 18.7358ZM56.8638 27.472H69.5938V25.472H56.8638V27.472ZM70.572 26.6795L72.168 19.1555L70.2115 18.7405L68.6155 26.2645L70.572 26.6795ZM71.1898 19.948H78.4098V17.948H71.1898V19.948ZM77.4319 18.739L75.5319 27.631L77.4877 28.049L79.3877 19.157L77.4319 18.739ZM75.5317 27.6316C75.4794 27.8771 75.2309 28.28 74.1521 28.6264C73.0958 28.9655 71.4951 29.158 69.2898 29.158V31.158C71.5684 31.158 73.4131 30.9642 74.7635 30.5306C76.0913 30.1043 77.2108 29.3483 77.4878 28.0484L75.5317 27.6316ZM69.2898 29.158C68.7987 29.158 68.2032 29.1457 67.5015 29.1206L67.4301 31.1194C68.147 31.145 68.7676 31.158 69.2898 31.158V29.158ZM67.5015 29.1206L66.4375 29.0826L66.3661 31.0814L67.4301 31.1194L67.5015 29.1206ZM81.4896 37.492L81.8313 36.5522L81.8259 36.5503L81.4896 37.492ZM80.5016 32.97V31.97H79.6924L79.5236 32.7614L80.5016 32.97ZM87.7216 32.97L88.7021 33.1661L88.9414 31.97H87.7216V32.97ZM87.4556 34.3L86.475 34.1039L86.2358 35.3H87.4556V34.3ZM100.148 34.3V35.3H100.954L101.125 34.5113L100.148 34.3ZM101.06 30.082L102.037 30.2933L102.299 29.082H101.06V30.082ZM83.1616 29.626L83.4944 28.683L83.4909 28.6818L83.1616 29.626ZM83.0096 21.19L83.9869 21.4018L83.9888 21.3926L83.0096 21.19ZM85.2516 19.442L85.557 20.3942L85.5606 20.393L85.2516 19.442ZM108.432 19.366L108.736 18.4133L108.731 18.412L108.432 19.366ZM109.61 23.888V24.888H110.419L110.588 24.0966L109.61 23.888ZM102.352 23.888L101.377 23.6652L101.097 24.888H102.352V23.888ZM102.656 22.558L103.63 22.7808L103.91 21.558H102.656V22.558ZM89.9256 22.558V21.558H89.1089L88.9457 22.3582L89.9256 22.558ZM89.1276 26.472L88.1477 26.2722L87.9031 27.472H89.1276V26.472ZM106.988 26.928L106.655 27.871L106.658 27.8722L106.988 26.928ZM107.102 35.706L108.079 35.9155L108.08 35.9141L107.102 35.706ZM105.012 37.416L104.684 36.4712L104.681 36.4721L105.012 37.416ZM102.124 36.948H83.9216V38.948H102.124V36.948ZM83.9216 36.948C83.2672 36.948 82.5722 36.8216 81.8313 36.5522L81.1478 38.4318C82.079 38.7704 83.0053 38.948 83.9216 38.948V36.948ZM81.8259 36.5503C81.3657 36.3859 81.1146 36.2225 80.9911 36.1019C80.8907 36.0039 80.8936 35.9582 80.8936 35.934H78.8936C78.8936 37.2741 80.0082 38.0248 81.1532 38.4337L81.8259 36.5503ZM80.8936 35.934C80.8936 36.0262 80.8779 36.0967 80.8895 36.0271C80.8939 36.0003 80.9018 35.9568 80.9139 35.8931C80.9379 35.7671 80.9748 35.5825 81.0252 35.3369C81.1257 34.8469 81.277 34.128 81.4796 33.1786L79.5236 32.7614C79.3208 33.712 79.1681 34.4371 79.066 34.9351C79.015 35.1835 78.9759 35.3789 78.9492 35.5189C78.936 35.5882 78.9249 35.6492 78.9167 35.6984C78.9156 35.7048 78.8936 35.8228 78.8936 35.934H80.8936ZM80.5016 33.97H87.7216V31.97H80.5016V33.97ZM86.741 32.7739L86.475 34.1039L88.4361 34.4961L88.7021 33.1661L86.741 32.7739ZM87.4556 35.3H100.148V33.3H87.4556V35.3ZM101.125 34.5113L102.037 30.2933L100.082 29.8707L99.1701 34.0887L101.125 34.5113ZM101.06 29.082H85.5936V31.082H101.06V29.082ZM85.5936 29.082C84.9672 29.082 84.2698 28.9567 83.4944 28.683L82.8287 30.569C83.776 30.9033 84.6999 31.082 85.5936 31.082V29.082ZM83.4909 28.6818C83.0124 28.5149 82.7479 28.3504 82.6172 28.2288C82.557 28.1728 82.5372 28.1371 82.532 28.1261C82.5284 28.1186 82.5276 28.1155 82.5276 28.106H80.5276C80.5276 29.4482 81.6991 30.1749 82.8322 30.5702L83.4909 28.6818ZM82.5276 28.106C82.5276 28.149 82.5247 28.1823 82.5236 28.1939C82.5222 28.2094 82.5208 28.2217 82.5199 28.2284C82.5182 28.2418 82.5167 28.2514 82.5163 28.2537C82.5154 28.2593 82.5152 28.2601 82.5165 28.2527C82.519 28.2392 82.5237 28.2153 82.5311 28.1784C82.5457 28.1058 82.5682 27.997 82.5989 27.8505C82.6602 27.5582 82.7524 27.1245 82.8759 26.5485C83.1226 25.397 83.4929 23.6816 83.9869 21.4018L82.0322 20.9782C81.5382 23.2584 81.1675 24.9757 80.9203 26.1295C80.7967 26.7062 80.7037 27.1433 80.6415 27.44C80.6104 27.588 80.5866 27.7033 80.5703 27.7842C80.5623 27.8241 80.5554 27.8594 80.5502 27.8875C80.5477 27.9009 80.5446 27.918 80.5417 27.9355C80.5404 27.9439 80.5381 27.9583 80.5359 27.9755C80.5357 27.9774 80.5276 28.0351 80.5276 28.106H82.5276ZM83.9888 21.3926C84.0212 21.2361 84.2607 20.81 85.557 20.3942L84.9461 18.4898C83.5571 18.9353 82.3019 19.6746 82.0303 20.9874L83.9888 21.3926ZM85.5606 20.393C86.4793 20.0945 87.3885 19.948 88.2916 19.948V17.948C87.168 17.948 86.0505 18.1309 84.9425 18.491L85.5606 20.393ZM88.2916 19.948H105.81V17.948H88.2916V19.948ZM105.81 19.948C106.561 19.948 107.334 20.0694 108.132 20.32L108.731 18.412C107.755 18.1053 106.78 17.948 105.81 17.948V19.948ZM108.128 20.3187C108.663 20.4897 108.969 20.6611 109.123 20.7925C109.194 20.8534 109.216 20.8908 109.22 20.8977C109.221 20.9009 109.22 20.8996 109.219 20.8946C109.218 20.8895 109.218 20.886 109.218 20.886H111.218C111.218 20.2088 110.883 19.6643 110.419 19.2695C109.978 18.8942 109.39 18.6223 108.736 18.4133L108.128 20.3187ZM109.218 20.886C109.218 20.8071 109.229 20.7543 109.22 20.8127C109.216 20.8402 109.208 20.8847 109.196 20.9497C109.172 21.0787 109.136 21.2658 109.085 21.514C108.985 22.0092 108.834 22.7303 108.632 23.6794L110.588 24.0966C110.79 23.1457 110.943 22.4165 111.046 21.911C111.097 21.6589 111.136 21.4581 111.163 21.3115C111.176 21.2388 111.188 21.1737 111.196 21.1197C111.2 21.0965 111.218 20.9903 111.218 20.886H109.218ZM109.61 22.888H102.352V24.888H109.61V22.888ZM103.326 24.1108L103.63 22.7808L101.681 22.3352L101.377 23.6652L103.326 24.1108ZM102.656 21.558H89.9256V23.558H102.656V21.558ZM88.9457 22.3582L88.1477 26.2722L90.1074 26.6718L90.9054 22.7578L88.9457 22.3582ZM89.1276 27.472H104.556V25.472H89.1276V27.472ZM104.556 27.472C105.182 27.472 105.879 27.5973 106.655 27.871L107.32 25.985C106.373 25.6507 105.449 25.472 104.556 25.472V27.472ZM106.658 27.8722C107.137 28.0391 107.401 28.2036 107.532 28.3252C107.592 28.3812 107.612 28.4169 107.617 28.4278C107.621 28.4354 107.622 28.4385 107.622 28.448H109.622C109.622 27.1058 108.45 26.3791 107.317 25.9838L106.658 27.8722ZM107.622 28.448C107.622 28.3946 107.626 28.3537 107.627 28.3478C107.628 28.334 107.63 28.3242 107.63 28.3211C107.631 28.3144 107.631 28.3131 107.63 28.3205C107.628 28.3342 107.623 28.3592 107.616 28.3984C107.601 28.4755 107.578 28.5905 107.547 28.7454C107.484 29.0542 107.389 29.5102 107.263 30.1145C107.01 31.3226 106.63 33.1168 106.123 35.4979L108.08 35.9141C108.586 33.5325 108.967 31.7358 109.22 30.5245C109.347 29.9191 109.443 29.4583 109.507 29.1434C109.538 28.9863 109.563 28.8626 109.58 28.7743C109.588 28.7308 109.596 28.6913 109.601 28.6589C109.604 28.6433 109.607 28.6234 109.61 28.6029C109.612 28.5928 109.614 28.5772 109.616 28.5588C109.617 28.5482 109.622 28.5038 109.622 28.448H107.622ZM106.124 35.4965C106.089 35.6584 105.86 36.0632 104.684 36.4712L105.339 38.3608C106.646 37.9075 107.81 37.1723 108.079 35.9155L106.124 35.4965ZM104.681 36.4721C103.756 36.7961 102.905 36.948 102.124 36.948V38.948C103.166 38.948 104.241 38.7453 105.342 38.3599L104.681 36.4721ZM142.101 22.558V23.558H142.913L143.08 22.764L142.101 22.558ZM132.449 22.558V21.558H131.64L131.471 22.3498L132.449 22.558ZM129.181 37.91V38.91H129.991L130.159 38.1182L129.181 37.91ZM121.999 37.91L121.021 37.7018L120.764 38.91H121.999V37.91ZM125.267 22.558L126.245 22.7662L126.503 21.558H125.267V22.558ZM114.969 22.558L113.991 22.352L113.737 23.558H114.969V22.558ZM115.729 18.948V17.948H114.918L114.751 18.742L115.729 18.948ZM142.861 18.948L143.84 19.154L144.094 17.948H142.861V18.948ZM142.101 21.558H132.449V23.558H142.101V21.558ZM131.471 22.3498L128.203 37.7018L130.159 38.1182L133.427 22.7662L131.471 22.3498ZM129.181 36.91H121.999V38.91H129.181V36.91ZM122.977 38.1182L126.245 22.7662L124.289 22.3498L121.021 37.7018L122.977 38.1182ZM125.267 21.558H114.969V23.558H125.267V21.558ZM115.948 22.764L116.708 19.154L114.751 18.742L113.991 22.352L115.948 22.764ZM115.729 19.948H142.861V17.948H115.729V19.948ZM141.883 18.742L141.123 22.352L143.08 22.764L143.84 19.154L141.883 18.742ZM151.109 37.91V38.91H151.917L152.087 38.1197L151.109 37.91ZM143.927 37.91L142.949 37.7022L142.692 38.91H143.927V37.91ZM147.955 18.948V17.948H147.145L146.977 18.7402L147.955 18.948ZM155.175 18.948L156.153 19.1577L156.412 17.948H155.175V18.948ZM151.109 36.91H143.927V38.91H151.109V36.91ZM144.905 38.1178L148.933 19.1558L146.977 18.7402L142.949 37.7022L144.905 38.1178ZM147.955 19.948H155.175V17.948H147.955V19.948ZM154.197 18.7383L150.131 37.7003L152.087 38.1197L156.153 19.1577L154.197 18.7383ZM158.498 37.492L158.84 36.5522L158.834 36.5503L158.498 37.492ZM160.056 21.19L161.034 21.4002L161.035 21.3926L160.056 21.19ZM162.298 19.442L162.603 20.3942L162.607 20.393L162.298 19.442ZM185.478 19.366L185.17 20.3175L185.174 20.3187L185.478 19.366ZM186.656 23.888V24.888H187.465L187.634 24.0966L186.656 23.888ZM179.398 23.888L178.423 23.6652L178.144 24.888H179.398V23.888ZM179.702 22.558L180.677 22.7808L180.956 21.558H179.702V22.558ZM166.972 22.558V21.558H166.161L165.993 22.3521L166.972 22.558ZM164.502 34.3L163.523 34.0941L163.27 35.3H164.502V34.3ZM177.194 34.3V35.3H177.991L178.169 34.5228L177.194 34.3ZM177.498 32.97V31.97H176.701L176.523 32.7472L177.498 32.97ZM184.718 32.97L185.697 33.174L185.948 31.97H184.718V32.97ZM184.148 35.706L185.126 35.9155L185.127 35.91L184.148 35.706ZM182.058 37.416L181.73 36.4712L181.72 36.4748L182.058 37.416ZM179.17 36.948H160.968V38.948H179.17V36.948ZM160.968 36.948C160.285 36.948 159.577 36.8202 158.84 36.5522L158.156 38.4318C159.091 38.7718 160.03 38.948 160.968 38.948V36.948ZM158.834 36.5503C158.374 36.3859 158.123 36.2225 158 36.1019C157.899 36.0039 157.902 35.9582 157.902 35.934H155.902C155.902 37.2741 157.017 38.0248 158.162 38.4337L158.834 36.5503ZM157.902 35.934C157.902 35.9792 157.899 36.0143 157.898 36.0254C157.896 36.0412 157.895 36.0536 157.894 36.0605C157.892 36.0744 157.89 36.0847 157.89 36.0881C157.889 36.0958 157.888 36.0999 157.888 36.0972C157.889 36.0929 157.891 36.0824 157.895 36.0632C157.902 36.0258 157.914 35.9687 157.93 35.8902C157.963 35.7339 158.012 35.5012 158.077 35.1911C158.209 34.5715 158.406 33.6477 158.668 32.4192C159.194 29.9624 159.982 26.2895 161.034 21.4002L159.078 20.9798C158.027 25.8692 157.238 29.5429 156.713 32.0008C156.45 33.2296 156.253 34.1551 156.121 34.7769C156.055 35.0875 156.005 35.3235 155.972 35.4838C155.956 35.5637 155.943 35.6268 155.934 35.6718C155.929 35.6938 155.925 35.7149 155.922 35.7328C155.92 35.7411 155.918 35.754 155.916 35.768C155.915 35.7746 155.913 35.7875 155.911 35.8033C155.91 35.8112 155.908 35.8245 155.906 35.8409C155.905 35.8528 155.902 35.8884 155.902 35.934H157.902ZM161.035 21.3926C161.068 21.2361 161.307 20.81 162.603 20.3942L161.993 18.4898C160.604 18.9353 159.348 19.6746 159.077 20.9874L161.035 21.3926ZM162.607 20.393C163.526 20.0945 164.435 19.948 165.338 19.948V17.948C164.214 17.948 163.097 18.1309 161.989 18.491L162.607 20.393ZM165.338 19.948H182.856V17.948H165.338V19.948ZM182.856 19.948C183.636 19.948 184.406 20.0703 185.17 20.3174L185.786 18.4146C184.827 18.1044 183.849 17.948 182.856 17.948V19.948ZM185.174 20.3187C185.71 20.4897 186.015 20.6611 186.169 20.7925C186.241 20.8534 186.262 20.8908 186.266 20.8977C186.268 20.9009 186.267 20.8996 186.265 20.8946C186.264 20.8895 186.264 20.886 186.264 20.886H188.264C188.264 20.2088 187.93 19.6643 187.466 19.2695C187.025 18.8942 186.437 18.6223 185.782 18.4133L185.174 20.3187ZM186.264 20.886C186.264 20.8071 186.275 20.7543 186.266 20.8127C186.262 20.8402 186.255 20.8847 186.243 20.9497C186.219 21.0787 186.182 21.2658 186.132 21.514C186.032 22.0092 185.881 22.7303 185.678 23.6794L187.634 24.0966C187.837 23.1457 187.99 22.4165 188.092 21.911C188.143 21.6589 188.183 21.4581 188.21 21.3115C188.223 21.2388 188.234 21.1737 188.243 21.1197C188.246 21.0965 188.264 20.9903 188.264 20.886H186.264ZM186.656 22.888H179.398V24.888H186.656V22.888ZM180.373 24.1108L180.677 22.7808L178.727 22.3352L178.423 23.6652L180.373 24.1108ZM179.702 21.558H166.972V23.558H179.702V21.558ZM165.993 22.3521L163.523 34.0941L165.481 34.5059L167.951 22.7639L165.993 22.3521ZM164.502 35.3H177.194V33.3H164.502V35.3ZM178.169 34.5228L178.473 33.1928L176.523 32.7472L176.219 34.0772L178.169 34.5228ZM177.498 33.97H184.718V31.97H177.498V33.97ZM183.739 32.766L183.169 35.502L185.127 35.91L185.697 33.174L183.739 32.766ZM183.17 35.4965C183.136 35.6584 182.906 36.0632 181.73 36.4712L182.386 38.3608C183.692 37.9075 184.857 37.1723 185.126 35.9155L183.17 35.4965ZM181.72 36.4748C180.828 36.7952 179.979 36.948 179.17 36.948V38.948C180.235 38.948 181.312 38.7461 182.396 38.3572L181.72 36.4748ZM215.88 37.91V38.91H216.689L216.858 38.1192L215.88 37.91ZM208.66 37.91L207.682 37.7021L207.425 38.91H208.66V37.91ZM210.332 30.044L211.31 30.2519L211.567 29.044H210.332V30.044ZM197.602 30.044V29.044H196.792L196.624 29.8361L197.602 30.044ZM195.93 37.91V38.91H196.74L196.908 38.1179L195.93 37.91ZM188.71 37.91L187.732 37.7011L187.474 38.91H188.71V37.91ZM192.282 21.19L193.26 21.3989L193.262 21.3861L192.282 21.19ZM194.524 19.404L194.829 20.3562L194.833 20.355L194.524 19.404ZM217.704 19.328L217.396 20.2795L217.4 20.2807L217.704 19.328ZM211.054 26.434V27.434H211.861L212.031 26.6448L211.054 26.434ZM211.89 22.558L212.867 22.7688L213.129 21.558H211.89V22.558ZM199.236 22.558V21.558H198.421L198.256 22.3563L199.236 22.558ZM198.438 26.434L197.458 26.2323L197.211 27.434H198.438V26.434ZM215.88 36.91H208.66V38.91H215.88V36.91ZM209.638 38.1179L211.31 30.2519L209.354 29.8361L207.682 37.7021L209.638 38.1179ZM210.332 29.044H197.602V31.044H210.332V29.044ZM196.624 29.8361L194.952 37.7021L196.908 38.1179L198.58 30.2519L196.624 29.8361ZM195.93 36.91H188.71V38.91H195.93V36.91ZM189.688 38.1189L193.26 21.3989L191.304 20.9811L187.732 37.7011L189.688 38.1189ZM193.262 21.3861C193.3 21.2006 193.548 20.7671 194.829 20.3562L194.218 18.4518C192.814 18.9023 191.568 19.6594 191.301 20.9939L193.262 21.3861ZM194.833 20.355C195.752 20.0565 196.661 19.91 197.564 19.91V17.91C196.44 17.91 195.323 18.0929 194.215 18.453L194.833 20.355ZM197.564 19.91H215.082V17.91H197.564V19.91ZM215.082 19.91C215.862 19.91 216.632 20.0323 217.396 20.2794L218.012 18.3766C217.053 18.0664 216.075 17.91 215.082 17.91V19.91ZM217.4 20.2807C217.932 20.4506 218.234 20.6232 218.386 20.7561C218.456 20.8175 218.48 20.8573 218.486 20.8692C218.49 20.8769 218.49 20.8783 218.49 20.886H220.49C220.49 20.2102 220.169 19.657 219.701 19.2489C219.258 18.8624 218.666 18.5854 218.008 18.3753L217.4 20.2807ZM218.49 20.886C218.49 20.7857 218.509 20.6956 218.5 20.7469C218.499 20.7509 218.497 20.7626 218.493 20.7851C218.485 20.8288 218.472 20.8957 218.453 20.9879C218.416 21.1714 218.36 21.4426 218.285 21.803C218.135 22.5232 217.91 23.5922 217.609 25.0106C217.008 27.847 216.105 32.0769 214.902 37.7008L216.858 38.1192C218.061 32.4951 218.964 28.2637 219.566 25.4254C219.866 24.0065 220.092 22.9348 220.243 22.211C220.319 21.8494 220.375 21.5728 220.414 21.3826C220.433 21.288 220.448 21.2115 220.458 21.1555C220.464 21.1282 220.469 21.1009 220.473 21.0768C220.475 21.0653 220.477 21.0485 220.48 21.0301C220.481 21.0209 220.483 21.0063 220.485 20.9887C220.486 20.9773 220.49 20.937 220.49 20.886H218.49ZM212.031 26.6448L212.867 22.7688L210.912 22.3472L210.076 26.2232L212.031 26.6448ZM211.89 21.558H199.236V23.558H211.89V21.558ZM198.256 22.3563L197.458 26.2323L199.417 26.6357L200.215 22.7597L198.256 22.3563ZM198.438 27.434H211.054V25.434H198.438V27.434ZM248.106 37.91V38.91H248.917L249.084 38.116L248.106 37.91ZM220.974 37.91L219.995 37.7022L219.739 38.91H220.974V37.91ZM225.002 18.948V17.948H224.192L224.023 18.7402L225.002 18.948ZM232.222 18.948L233.2 19.1562L233.457 17.948H232.222V18.948ZM228.954 34.3L227.976 34.0918L227.718 35.3H228.954V34.3ZM248.866 34.3L249.844 34.506L250.098 33.3H248.866V34.3ZM248.106 36.91H220.974V38.91H248.106V36.91ZM221.952 38.1178L225.98 19.1558L224.023 18.7402L219.995 37.7022L221.952 38.1178ZM225.002 19.948H232.222V17.948H225.002V19.948ZM231.244 18.7398L227.976 34.0918L229.932 34.5082L233.2 19.1562L231.244 18.7398ZM228.954 35.3H248.866V33.3H228.954V35.3ZM247.887 34.094L247.127 37.704L249.084 38.116L249.844 34.506L247.887 34.094Z" fill="url(#paint0_linear_309_47)"/>
</g>
<g filter="url(#filter1_f_309_47)">
<path d="M42.156 41.71V42.71H43.0154L43.1446 41.8604L42.156 41.71ZM34.936 41.71L33.9473 41.5598L33.7726 42.71H34.936V41.71ZM38.204 20.202L39.1927 20.3522L39.3674 19.202H38.204V20.202ZM35.772 20.202V19.202H34.9125L34.7833 20.0518L35.772 20.202ZM32.504 41.71V42.71H33.3635L33.4927 41.8602L32.504 41.71ZM25.322 41.71L24.3333 41.5598L24.1586 42.71H25.322V41.71ZM28.59 20.202L29.5787 20.3522L29.7534 19.202H28.59V20.202ZM25.474 20.202V19.202H24.6145L24.4853 20.0518L25.474 20.202ZM22.206 41.71V42.71H23.0655L23.1947 41.8602L22.206 41.71ZM15.024 41.71L14.0353 41.5601L13.8609 42.71H15.024V41.71ZM19.052 15.148V14.148H18.1922L18.0633 14.9981L19.052 15.148ZM44.132 15.794L44.5708 14.8954L44.5689 14.8945L44.132 15.794ZM45.728 18.226L44.7579 17.9835L44.7464 18.0291L44.7394 18.0756L45.728 18.226ZM42.156 40.71H34.936V42.71H42.156V40.71ZM35.9247 41.8602L39.1927 20.3522L37.2153 20.0518L33.9473 41.5598L35.9247 41.8602ZM38.204 19.202H35.772V21.202H38.204V19.202ZM34.7833 20.0518L31.5153 41.5598L33.4927 41.8602L36.7607 20.3522L34.7833 20.0518ZM32.504 40.71H25.322V42.71H32.504V40.71ZM26.3107 41.8602L29.5787 20.3522L27.6013 20.0518L24.3333 41.5598L26.3107 41.8602ZM28.59 19.202H25.474V21.202H28.59V19.202ZM24.4853 20.0518L21.2173 41.5598L23.1947 41.8602L26.4627 20.3522L24.4853 20.0518ZM22.206 40.71H15.024V42.71H22.206V40.71ZM16.0127 41.8599L20.0407 15.2979L18.0633 14.9981L14.0353 41.5601L16.0127 41.8599ZM19.052 16.148H41.358V14.148H19.052V16.148ZM41.358 16.148C42.1656 16.148 42.9412 16.3273 43.6951 16.6935L44.5689 14.8945C43.5495 14.3993 42.4757 14.148 41.358 14.148V16.148ZM43.6932 16.6926C44.6001 17.1355 44.766 17.5561 44.766 17.884H46.766C46.766 16.4892 45.8425 15.5165 44.5708 14.8954L43.6932 16.6926ZM44.766 17.884C44.766 17.9456 44.7597 17.9761 44.7579 17.9835L46.6981 18.4685C46.747 18.2732 46.766 18.0758 46.766 17.884H44.766ZM44.7394 18.0756L41.1674 41.5596L43.1446 41.8604L46.7166 18.3764L44.7394 18.0756ZM66.4018 30.082L66.4375 29.0826L65.5991 29.0527L65.4238 29.8731L66.4018 30.082ZM64.7298 37.91V38.91H65.5387L65.7077 38.1189L64.7298 37.91ZM57.5478 37.91L56.5698 37.7011L56.3116 38.91H57.5478V37.91ZM59.2198 30.082L60.1977 30.2909L60.4559 29.082H59.2198V30.082ZM50.8978 29.664L51.2524 28.729L51.2489 28.7277L50.8978 29.664ZM50.2138 23.622L51.1904 23.8369L51.1905 23.8364L50.2138 23.622ZM51.2398 18.948V17.948H50.4355L50.263 18.7336L51.2398 18.948ZM58.4978 18.948L59.475 19.1602L59.7383 17.948H58.4978V18.948ZM56.8638 26.472L55.8866 26.2598L55.6233 27.472H56.8638V26.472ZM69.5938 26.472V27.472H70.4039L70.572 26.6795L69.5938 26.472ZM71.1898 18.948V17.948H70.3797L70.2115 18.7405L71.1898 18.948ZM78.4098 18.948L79.3877 19.157L79.646 17.948H78.4098V18.948ZM76.5098 27.84L75.5319 27.631L75.5317 27.6316L76.5098 27.84ZM67.4658 30.12L67.5015 29.1206L67.5015 29.1206L67.4658 30.12ZM65.4238 29.8731L63.7518 37.7011L65.7077 38.1189L67.3797 30.2909L65.4238 29.8731ZM64.7298 36.91H57.5478V38.91H64.7298V36.91ZM58.5257 38.1189L60.1977 30.2909L58.2418 29.8731L56.5698 37.7011L58.5257 38.1189ZM59.2198 29.082H53.3678V31.082H59.2198V29.082ZM53.3678 29.082C52.5578 29.082 51.8572 28.9584 51.2524 28.729L50.5431 30.599C51.4077 30.9269 52.3538 31.082 53.3678 31.082V29.082ZM51.2489 28.7277C50.4072 28.412 50.3778 28.1169 50.3778 27.992H48.3778C48.3778 29.3364 49.3616 30.156 50.5467 30.6003L51.2489 28.7277ZM50.3778 27.992C50.3778 27.9965 50.3779 27.9727 50.3851 27.9057C50.3918 27.8437 50.4027 27.761 50.4187 27.6551C50.4508 27.4434 50.5005 27.1604 50.569 26.8024C50.7058 26.0873 50.9125 25.1001 51.1904 23.8369L49.2371 23.4071C48.9577 24.6772 48.7465 25.685 48.6046 26.4266C48.4717 27.1213 48.3778 27.6861 48.3778 27.992H50.3778ZM51.1905 23.8364L52.2165 19.1624L50.263 18.7336L49.237 23.4076L51.1905 23.8364ZM51.2398 19.948H58.4978V17.948H51.2398V19.948ZM57.5206 18.7358L55.8866 26.2598L57.841 26.6842L59.475 19.1602L57.5206 18.7358ZM56.8638 27.472H69.5938V25.472H56.8638V27.472ZM70.572 26.6795L72.168 19.1555L70.2115 18.7405L68.6155 26.2645L70.572 26.6795ZM71.1898 19.948H78.4098V17.948H71.1898V19.948ZM77.4319 18.739L75.5319 27.631L77.4877 28.049L79.3877 19.157L77.4319 18.739ZM75.5317 27.6316C75.4794 27.8771 75.2309 28.28 74.1521 28.6264C73.0958 28.9655 71.4951 29.158 69.2898 29.158V31.158C71.5684 31.158 73.4131 30.9642 74.7635 30.5306C76.0913 30.1043 77.2108 29.3483 77.4878 28.0484L75.5317 27.6316ZM69.2898 29.158C68.7987 29.158 68.2032 29.1457 67.5015 29.1206L67.4301 31.1194C68.147 31.145 68.7676 31.158 69.2898 31.158V29.158ZM67.5015 29.1206L66.4375 29.0826L66.3661 31.0814L67.4301 31.1194L67.5015 29.1206ZM81.4896 37.492L81.8313 36.5522L81.8259 36.5503L81.4896 37.492ZM80.5016 32.97V31.97H79.6924L79.5236 32.7614L80.5016 32.97ZM87.7216 32.97L88.7021 33.1661L88.9414 31.97H87.7216V32.97ZM87.4556 34.3L86.475 34.1039L86.2358 35.3H87.4556V34.3ZM100.148 34.3V35.3H100.954L101.125 34.5113L100.148 34.3ZM101.06 30.082L102.037 30.2933L102.299 29.082H101.06V30.082ZM83.1616 29.626L83.4944 28.683L83.4909 28.6818L83.1616 29.626ZM83.0096 21.19L83.9869 21.4018L83.9888 21.3926L83.0096 21.19ZM85.2516 19.442L85.557 20.3942L85.5606 20.393L85.2516 19.442ZM108.432 19.366L108.736 18.4133L108.731 18.412L108.432 19.366ZM109.61 23.888V24.888H110.419L110.588 24.0966L109.61 23.888ZM102.352 23.888L101.377 23.6652L101.097 24.888H102.352V23.888ZM102.656 22.558L103.63 22.7808L103.91 21.558H102.656V22.558ZM89.9256 22.558V21.558H89.1089L88.9457 22.3582L89.9256 22.558ZM89.1276 26.472L88.1477 26.2722L87.9031 27.472H89.1276V26.472ZM106.988 26.928L106.655 27.871L106.658 27.8722L106.988 26.928ZM107.102 35.706L108.079 35.9155L108.08 35.9141L107.102 35.706ZM105.012 37.416L104.684 36.4712L104.681 36.4721L105.012 37.416ZM102.124 36.948H83.9216V38.948H102.124V36.948ZM83.9216 36.948C83.2672 36.948 82.5722 36.8216 81.8313 36.5522L81.1478 38.4318C82.079 38.7704 83.0053 38.948 83.9216 38.948V36.948ZM81.8259 36.5503C81.3657 36.3859 81.1146 36.2225 80.9911 36.1019C80.8907 36.0039 80.8936 35.9582 80.8936 35.934H78.8936C78.8936 37.2741 80.0082 38.0248 81.1532 38.4337L81.8259 36.5503ZM80.8936 35.934C80.8936 36.0262 80.8779 36.0967 80.8895 36.0271C80.8939 36.0003 80.9018 35.9568 80.9139 35.8931C80.9379 35.7671 80.9748 35.5825 81.0252 35.3369C81.1257 34.8469 81.277 34.128 81.4796 33.1786L79.5236 32.7614C79.3208 33.712 79.1681 34.4371 79.066 34.9351C79.015 35.1835 78.9759 35.3789 78.9492 35.5189C78.936 35.5882 78.9249 35.6492 78.9167 35.6984C78.9156 35.7048 78.8936 35.8228 78.8936 35.934H80.8936ZM80.5016 33.97H87.7216V31.97H80.5016V33.97ZM86.741 32.7739L86.475 34.1039L88.4361 34.4961L88.7021 33.1661L86.741 32.7739ZM87.4556 35.3H100.148V33.3H87.4556V35.3ZM101.125 34.5113L102.037 30.2933L100.082 29.8707L99.1701 34.0887L101.125 34.5113ZM101.06 29.082H85.5936V31.082H101.06V29.082ZM85.5936 29.082C84.9672 29.082 84.2698 28.9567 83.4944 28.683L82.8287 30.569C83.776 30.9033 84.6999 31.082 85.5936 31.082V29.082ZM83.4909 28.6818C83.0124 28.5149 82.7479 28.3504 82.6172 28.2288C82.557 28.1728 82.5372 28.1371 82.532 28.1261C82.5284 28.1186 82.5276 28.1155 82.5276 28.106H80.5276C80.5276 29.4482 81.6991 30.1749 82.8322 30.5702L83.4909 28.6818ZM82.5276 28.106C82.5276 28.149 82.5247 28.1823 82.5236 28.1939C82.5222 28.2094 82.5208 28.2217 82.5199 28.2284C82.5182 28.2418 82.5167 28.2514 82.5163 28.2537C82.5154 28.2593 82.5152 28.2601 82.5165 28.2527C82.519 28.2392 82.5237 28.2153 82.5311 28.1784C82.5457 28.1058 82.5682 27.997 82.5989 27.8505C82.6602 27.5582 82.7524 27.1245 82.8759 26.5485C83.1226 25.397 83.4929 23.6816 83.9869 21.4018L82.0322 20.9782C81.5382 23.2584 81.1675 24.9757 80.9203 26.1295C80.7967 26.7062 80.7037 27.1433 80.6415 27.44C80.6104 27.588 80.5866 27.7033 80.5703 27.7842C80.5623 27.8241 80.5554 27.8594 80.5502 27.8875C80.5477 27.9009 80.5446 27.918 80.5417 27.9355C80.5404 27.9439 80.5381 27.9583 80.5359 27.9755C80.5357 27.9774 80.5276 28.0351 80.5276 28.106H82.5276ZM83.9888 21.3926C84.0212 21.2361 84.2607 20.81 85.557 20.3942L84.9461 18.4898C83.5571 18.9353 82.3019 19.6746 82.0303 20.9874L83.9888 21.3926ZM85.5606 20.393C86.4793 20.0945 87.3885 19.948 88.2916 19.948V17.948C87.168 17.948 86.0505 18.1309 84.9425 18.491L85.5606 20.393ZM88.2916 19.948H105.81V17.948H88.2916V19.948ZM105.81 19.948C106.561 19.948 107.334 20.0694 108.132 20.32L108.731 18.412C107.755 18.1053 106.78 17.948 105.81 17.948V19.948ZM108.128 20.3187C108.663 20.4897 108.969 20.6611 109.123 20.7925C109.194 20.8534 109.216 20.8908 109.22 20.8977C109.221 20.9009 109.22 20.8996 109.219 20.8946C109.218 20.8895 109.218 20.886 109.218 20.886H111.218C111.218 20.2088 110.883 19.6643 110.419 19.2695C109.978 18.8942 109.39 18.6223 108.736 18.4133L108.128 20.3187ZM109.218 20.886C109.218 20.8071 109.229 20.7543 109.22 20.8127C109.216 20.8402 109.208 20.8847 109.196 20.9497C109.172 21.0787 109.136 21.2658 109.085 21.514C108.985 22.0092 108.834 22.7303 108.632 23.6794L110.588 24.0966C110.79 23.1457 110.943 22.4165 111.046 21.911C111.097 21.6589 111.136 21.4581 111.163 21.3115C111.176 21.2388 111.188 21.1737 111.196 21.1197C111.2 21.0965 111.218 20.9903 111.218 20.886H109.218ZM109.61 22.888H102.352V24.888H109.61V22.888ZM103.326 24.1108L103.63 22.7808L101.681 22.3352L101.377 23.6652L103.326 24.1108ZM102.656 21.558H89.9256V23.558H102.656V21.558ZM88.9457 22.3582L88.1477 26.2722L90.1074 26.6718L90.9054 22.7578L88.9457 22.3582ZM89.1276 27.472H104.556V25.472H89.1276V27.472ZM104.556 27.472C105.182 27.472 105.879 27.5973 106.655 27.871L107.32 25.985C106.373 25.6507 105.449 25.472 104.556 25.472V27.472ZM106.658 27.8722C107.137 28.0391 107.401 28.2036 107.532 28.3252C107.592 28.3812 107.612 28.4169 107.617 28.4278C107.621 28.4354 107.622 28.4385 107.622 28.448H109.622C109.622 27.1058 108.45 26.3791 107.317 25.9838L106.658 27.8722ZM107.622 28.448C107.622 28.3946 107.626 28.3537 107.627 28.3478C107.628 28.334 107.63 28.3242 107.63 28.3211C107.631 28.3144 107.631 28.3131 107.63 28.3205C107.628 28.3342 107.623 28.3592 107.616 28.3984C107.601 28.4755 107.578 28.5905 107.547 28.7454C107.484 29.0542 107.389 29.5102 107.263 30.1145C107.01 31.3226 106.63 33.1168 106.123 35.4979L108.08 35.9141C108.586 33.5325 108.967 31.7358 109.22 30.5245C109.347 29.9191 109.443 29.4583 109.507 29.1434C109.538 28.9863 109.563 28.8626 109.58 28.7743C109.588 28.7308 109.596 28.6913 109.601 28.6589C109.604 28.6433 109.607 28.6234 109.61 28.6029C109.612 28.5928 109.614 28.5772 109.616 28.5588C109.617 28.5482 109.622 28.5038 109.622 28.448H107.622ZM106.124 35.4965C106.089 35.6584 105.86 36.0632 104.684 36.4712L105.339 38.3608C106.646 37.9075 107.81 37.1723 108.079 35.9155L106.124 35.4965ZM104.681 36.4721C103.756 36.7961 102.905 36.948 102.124 36.948V38.948C103.166 38.948 104.241 38.7453 105.342 38.3599L104.681 36.4721ZM142.101 22.558V23.558H142.913L143.08 22.764L142.101 22.558ZM132.449 22.558V21.558H131.64L131.471 22.3498L132.449 22.558ZM129.181 37.91V38.91H129.991L130.159 38.1182L129.181 37.91ZM121.999 37.91L121.021 37.7018L120.764 38.91H121.999V37.91ZM125.267 22.558L126.245 22.7662L126.503 21.558H125.267V22.558ZM114.969 22.558L113.991 22.352L113.737 23.558H114.969V22.558ZM115.729 18.948V17.948H114.918L114.751 18.742L115.729 18.948ZM142.861 18.948L143.84 19.154L144.094 17.948H142.861V18.948ZM142.101 21.558H132.449V23.558H142.101V21.558ZM131.471 22.3498L128.203 37.7018L130.159 38.1182L133.427 22.7662L131.471 22.3498ZM129.181 36.91H121.999V38.91H129.181V36.91ZM122.977 38.1182L126.245 22.7662L124.289 22.3498L121.021 37.7018L122.977 38.1182ZM125.267 21.558H114.969V23.558H125.267V21.558ZM115.948 22.764L116.708 19.154L114.751 18.742L113.991 22.352L115.948 22.764ZM115.729 19.948H142.861V17.948H115.729V19.948ZM141.883 18.742L141.123 22.352L143.08 22.764L143.84 19.154L141.883 18.742ZM151.109 37.91V38.91H151.917L152.087 38.1197L151.109 37.91ZM143.927 37.91L142.949 37.7022L142.692 38.91H143.927V37.91ZM147.955 18.948V17.948H147.145L146.977 18.7402L147.955 18.948ZM155.175 18.948L156.153 19.1577L156.412 17.948H155.175V18.948ZM151.109 36.91H143.927V38.91H151.109V36.91ZM144.905 38.1178L148.933 19.1558L146.977 18.7402L142.949 37.7022L144.905 38.1178ZM147.955 19.948H155.175V17.948H147.955V19.948ZM154.197 18.7383L150.131 37.7003L152.087 38.1197L156.153 19.1577L154.197 18.7383ZM158.498 37.492L158.84 36.5522L158.834 36.5503L158.498 37.492ZM160.056 21.19L161.034 21.4002L161.035 21.3926L160.056 21.19ZM162.298 19.442L162.603 20.3942L162.607 20.393L162.298 19.442ZM185.478 19.366L185.17 20.3175L185.174 20.3187L185.478 19.366ZM186.656 23.888V24.888H187.465L187.634 24.0966L186.656 23.888ZM179.398 23.888L178.423 23.6652L178.144 24.888H179.398V23.888ZM179.702 22.558L180.677 22.7808L180.956 21.558H179.702V22.558ZM166.972 22.558V21.558H166.161L165.993 22.3521L166.972 22.558ZM164.502 34.3L163.523 34.0941L163.27 35.3H164.502V34.3ZM177.194 34.3V35.3H177.991L178.169 34.5228L177.194 34.3ZM177.498 32.97V31.97H176.701L176.523 32.7472L177.498 32.97ZM184.718 32.97L185.697 33.174L185.948 31.97H184.718V32.97ZM184.148 35.706L185.126 35.9155L185.127 35.91L184.148 35.706ZM182.058 37.416L181.73 36.4712L181.72 36.4748L182.058 37.416ZM179.17 36.948H160.968V38.948H179.17V36.948ZM160.968 36.948C160.285 36.948 159.577 36.8202 158.84 36.5522L158.156 38.4318C159.091 38.7718 160.03 38.948 160.968 38.948V36.948ZM158.834 36.5503C158.374 36.3859 158.123 36.2225 158 36.1019C157.899 36.0039 157.902 35.9582 157.902 35.934H155.902C155.902 37.2741 157.017 38.0248 158.162 38.4337L158.834 36.5503ZM157.902 35.934C157.902 35.9792 157.899 36.0143 157.898 36.0254C157.896 36.0412 157.895 36.0536 157.894 36.0605C157.892 36.0744 157.89 36.0847 157.89 36.0881C157.889 36.0958 157.888 36.0999 157.888 36.0972C157.889 36.0929 157.891 36.0824 157.895 36.0632C157.902 36.0258 157.914 35.9687 157.93 35.8902C157.963 35.7339 158.012 35.5012 158.077 35.1911C158.209 34.5715 158.406 33.6477 158.668 32.4192C159.194 29.9624 159.982 26.2895 161.034 21.4002L159.078 20.9798C158.027 25.8692 157.238 29.5429 156.713 32.0008C156.45 33.2296 156.253 34.1551 156.121 34.7769C156.055 35.0875 156.005 35.3235 155.972 35.4838C155.956 35.5637 155.943 35.6268 155.934 35.6718C155.929 35.6938 155.925 35.7149 155.922 35.7328C155.92 35.7411 155.918 35.754 155.916 35.768C155.915 35.7746 155.913 35.7875 155.911 35.8033C155.91 35.8112 155.908 35.8245 155.906 35.8409C155.905 35.8528 155.902 35.8884 155.902 35.934H157.902ZM161.035 21.3926C161.068 21.2361 161.307 20.81 162.603 20.3942L161.993 18.4898C160.604 18.9353 159.348 19.6746 159.077 20.9874L161.035 21.3926ZM162.607 20.393C163.526 20.0945 164.435 19.948 165.338 19.948V17.948C164.214 17.948 163.097 18.1309 161.989 18.491L162.607 20.393ZM165.338 19.948H182.856V17.948H165.338V19.948ZM182.856 19.948C183.636 19.948 184.406 20.0703 185.17 20.3174L185.786 18.4146C184.827 18.1044 183.849 17.948 182.856 17.948V19.948ZM185.174 20.3187C185.71 20.4897 186.015 20.6611 186.169 20.7925C186.241 20.8534 186.262 20.8908 186.266 20.8977C186.268 20.9009 186.267 20.8996 186.265 20.8946C186.264 20.8895 186.264 20.886 186.264 20.886H188.264C188.264 20.2088 187.93 19.6643 187.466 19.2695C187.025 18.8942 186.437 18.6223 185.782 18.4133L185.174 20.3187ZM186.264 20.886C186.264 20.8071 186.275 20.7543 186.266 20.8127C186.262 20.8402 186.255 20.8847 186.243 20.9497C186.219 21.0787 186.182 21.2658 186.132 21.514C186.032 22.0092 185.881 22.7303 185.678 23.6794L187.634 24.0966C187.837 23.1457 187.99 22.4165 188.092 21.911C188.143 21.6589 188.183 21.4581 188.21 21.3115C188.223 21.2388 188.234 21.1737 188.243 21.1197C188.246 21.0965 188.264 20.9903 188.264 20.886H186.264ZM186.656 22.888H179.398V24.888H186.656V22.888ZM180.373 24.1108L180.677 22.7808L178.727 22.3352L178.423 23.6652L180.373 24.1108ZM179.702 21.558H166.972V23.558H179.702V21.558ZM165.993 22.3521L163.523 34.0941L165.481 34.5059L167.951 22.7639L165.993 22.3521ZM164.502 35.3H177.194V33.3H164.502V35.3ZM178.169 34.5228L178.473 33.1928L176.523 32.7472L176.219 34.0772L178.169 34.5228ZM177.498 33.97H184.718V31.97H177.498V33.97ZM183.739 32.766L183.169 35.502L185.127 35.91L185.697 33.174L183.739 32.766ZM183.17 35.4965C183.136 35.6584 182.906 36.0632 181.73 36.4712L182.386 38.3608C183.692 37.9075 184.857 37.1723 185.126 35.9155L183.17 35.4965ZM181.72 36.4748C180.828 36.7952 179.979 36.948 179.17 36.948V38.948C180.235 38.948 181.312 38.7461 182.396 38.3572L181.72 36.4748ZM215.88 37.91V38.91H216.689L216.858 38.1192L215.88 37.91ZM208.66 37.91L207.682 37.7021L207.425 38.91H208.66V37.91ZM210.332 30.044L211.31 30.2519L211.567 29.044H210.332V30.044ZM197.602 30.044V29.044H196.792L196.624 29.8361L197.602 30.044ZM195.93 37.91V38.91H196.74L196.908 38.1179L195.93 37.91ZM188.71 37.91L187.732 37.7011L187.474 38.91H188.71V37.91ZM192.282 21.19L193.26 21.3989L193.262 21.3861L192.282 21.19ZM194.524 19.404L194.829 20.3562L194.833 20.355L194.524 19.404ZM217.704 19.328L217.396 20.2795L217.4 20.2807L217.704 19.328ZM211.054 26.434V27.434H211.861L212.031 26.6448L211.054 26.434ZM211.89 22.558L212.867 22.7688L213.129 21.558H211.89V22.558ZM199.236 22.558V21.558H198.421L198.256 22.3563L199.236 22.558ZM198.438 26.434L197.458 26.2323L197.211 27.434H198.438V26.434ZM215.88 36.91H208.66V38.91H215.88V36.91ZM209.638 38.1179L211.31 30.2519L209.354 29.8361L207.682 37.7021L209.638 38.1179ZM210.332 29.044H197.602V31.044H210.332V29.044ZM196.624 29.8361L194.952 37.7021L196.908 38.1179L198.58 30.2519L196.624 29.8361ZM195.93 36.91H188.71V38.91H195.93V36.91ZM189.688 38.1189L193.26 21.3989L191.304 20.9811L187.732 37.7011L189.688 38.1189ZM193.262 21.3861C193.3 21.2006 193.548 20.7671 194.829 20.3562L194.218 18.4518C192.814 18.9023 191.568 19.6594 191.301 20.9939L193.262 21.3861ZM194.833 20.355C195.752 20.0565 196.661 19.91 197.564 19.91V17.91C196.44 17.91 195.323 18.0929 194.215 18.453L194.833 20.355ZM197.564 19.91H215.082V17.91H197.564V19.91ZM215.082 19.91C215.862 19.91 216.632 20.0323 217.396 20.2794L218.012 18.3766C217.053 18.0664 216.075 17.91 215.082 17.91V19.91ZM217.4 20.2807C217.932 20.4506 218.234 20.6232 218.386 20.7561C218.456 20.8175 218.48 20.8573 218.486 20.8692C218.49 20.8769 218.49 20.8783 218.49 20.886H220.49C220.49 20.2102 220.169 19.657 219.701 19.2489C219.258 18.8624 218.666 18.5854 218.008 18.3753L217.4 20.2807ZM218.49 20.886C218.49 20.7857 218.509 20.6956 218.5 20.7469C218.499 20.7509 218.497 20.7626 218.493 20.7851C218.485 20.8288 218.472 20.8957 218.453 20.9879C218.416 21.1714 218.36 21.4426 218.285 21.803C218.135 22.5232 217.91 23.5922 217.609 25.0106C217.008 27.847 216.105 32.0769 214.902 37.7008L216.858 38.1192C218.061 32.4951 218.964 28.2637 219.566 25.4254C219.866 24.0065 220.092 22.9348 220.243 22.211C220.319 21.8494 220.375 21.5728 220.414 21.3826C220.433 21.288 220.448 21.2115 220.458 21.1555C220.464 21.1282 220.469 21.1009 220.473 21.0768C220.475 21.0653 220.477 21.0485 220.48 21.0301C220.481 21.0209 220.483 21.0063 220.485 20.9887C220.486 20.9773 220.49 20.937 220.49 20.886H218.49ZM212.031 26.6448L212.867 22.7688L210.912 22.3472L210.076 26.2232L212.031 26.6448ZM211.89 21.558H199.236V23.558H211.89V21.558ZM198.256 22.3563L197.458 26.2323L199.417 26.6357L200.215 22.7597L198.256 22.3563ZM198.438 27.434H211.054V25.434H198.438V27.434ZM248.106 37.91V38.91H248.917L249.084 38.116L248.106 37.91ZM220.974 37.91L219.995 37.7022L219.739 38.91H220.974V37.91ZM225.002 18.948V17.948H224.192L224.023 18.7402L225.002 18.948ZM232.222 18.948L233.2 19.1562L233.457 17.948H232.222V18.948ZM228.954 34.3L227.976 34.0918L227.718 35.3H228.954V34.3ZM248.866 34.3L249.844 34.506L250.098 33.3H248.866V34.3ZM248.106 36.91H220.974V38.91H248.106V36.91ZM221.952 38.1178L225.98 19.1558L224.023 18.7402L219.995 37.7022L221.952 38.1178ZM225.002 19.948H232.222V17.948H225.002V19.948ZM231.244 18.7398L227.976 34.0918L229.932 34.5082L233.2 19.1562L231.244 18.7398ZM228.954 35.3H248.866V33.3H228.954V35.3ZM247.887 34.094L247.127 37.704L249.084 38.116L249.844 34.506L247.887 34.094Z" fill="url(#paint1_linear_309_47)"/>
</g>
<g filter="url(#filter2_f_309_47)">
<path d="M42.156 41.71V42.71H43.0154L43.1446 41.8604L42.156 41.71ZM34.936 41.71L33.9473 41.5598L33.7726 42.71H34.936V41.71ZM38.204 20.202L39.1927 20.3522L39.3674 19.202H38.204V20.202ZM35.772 20.202V19.202H34.9125L34.7833 20.0518L35.772 20.202ZM32.504 41.71V42.71H33.3635L33.4927 41.8602L32.504 41.71ZM25.322 41.71L24.3333 41.5598L24.1586 42.71H25.322V41.71ZM28.59 20.202L29.5787 20.3522L29.7534 19.202H28.59V20.202ZM25.474 20.202V19.202H24.6145L24.4853 20.0518L25.474 20.202ZM22.206 41.71V42.71H23.0655L23.1947 41.8602L22.206 41.71ZM15.024 41.71L14.0353 41.5601L13.8609 42.71H15.024V41.71ZM19.052 15.148V14.148H18.1922L18.0633 14.9981L19.052 15.148ZM44.132 15.794L44.5708 14.8954L44.5689 14.8945L44.132 15.794ZM45.728 18.226L44.7579 17.9835L44.7464 18.0291L44.7394 18.0756L45.728 18.226ZM42.156 40.71H34.936V42.71H42.156V40.71ZM35.9247 41.8602L39.1927 20.3522L37.2153 20.0518L33.9473 41.5598L35.9247 41.8602ZM38.204 19.202H35.772V21.202H38.204V19.202ZM34.7833 20.0518L31.5153 41.5598L33.4927 41.8602L36.7607 20.3522L34.7833 20.0518ZM32.504 40.71H25.322V42.71H32.504V40.71ZM26.3107 41.8602L29.5787 20.3522L27.6013 20.0518L24.3333 41.5598L26.3107 41.8602ZM28.59 19.202H25.474V21.202H28.59V19.202ZM24.4853 20.0518L21.2173 41.5598L23.1947 41.8602L26.4627 20.3522L24.4853 20.0518ZM22.206 40.71H15.024V42.71H22.206V40.71ZM16.0127 41.8599L20.0407 15.2979L18.0633 14.9981L14.0353 41.5601L16.0127 41.8599ZM19.052 16.148H41.358V14.148H19.052V16.148ZM41.358 16.148C42.1656 16.148 42.9412 16.3273 43.6951 16.6935L44.5689 14.8945C43.5495 14.3993 42.4757 14.148 41.358 14.148V16.148ZM43.6932 16.6926C44.6001 17.1355 44.766 17.5561 44.766 17.884H46.766C46.766 16.4892 45.8425 15.5165 44.5708 14.8954L43.6932 16.6926ZM44.766 17.884C44.766 17.9456 44.7597 17.9761 44.7579 17.9835L46.6981 18.4685C46.747 18.2732 46.766 18.0758 46.766 17.884H44.766ZM44.7394 18.0756L41.1674 41.5596L43.1446 41.8604L46.7166 18.3764L44.7394 18.0756ZM66.4018 30.082L66.4375 29.0826L65.5991 29.0527L65.4238 29.8731L66.4018 30.082ZM64.7298 37.91V38.91H65.5387L65.7077 38.1189L64.7298 37.91ZM57.5478 37.91L56.5698 37.7011L56.3116 38.91H57.5478V37.91ZM59.2198 30.082L60.1977 30.2909L60.4559 29.082H59.2198V30.082ZM50.8978 29.664L51.2524 28.729L51.2489 28.7277L50.8978 29.664ZM50.2138 23.622L51.1904 23.8369L51.1905 23.8364L50.2138 23.622ZM51.2398 18.948V17.948H50.4355L50.263 18.7336L51.2398 18.948ZM58.4978 18.948L59.475 19.1602L59.7383 17.948H58.4978V18.948ZM56.8638 26.472L55.8866 26.2598L55.6233 27.472H56.8638V26.472ZM69.5938 26.472V27.472H70.4039L70.572 26.6795L69.5938 26.472ZM71.1898 18.948V17.948H70.3797L70.2115 18.7405L71.1898 18.948ZM78.4098 18.948L79.3877 19.157L79.646 17.948H78.4098V18.948ZM76.5098 27.84L75.5319 27.631L75.5317 27.6316L76.5098 27.84ZM67.4658 30.12L67.5015 29.1206L67.5015 29.1206L67.4658 30.12ZM65.4238 29.8731L63.7518 37.7011L65.7077 38.1189L67.3797 30.2909L65.4238 29.8731ZM64.7298 36.91H57.5478V38.91H64.7298V36.91ZM58.5257 38.1189L60.1977 30.2909L58.2418 29.8731L56.5698 37.7011L58.5257 38.1189ZM59.2198 29.082H53.3678V31.082H59.2198V29.082ZM53.3678 29.082C52.5578 29.082 51.8572 28.9584 51.2524 28.729L50.5431 30.599C51.4077 30.9269 52.3538 31.082 53.3678 31.082V29.082ZM51.2489 28.7277C50.4072 28.412 50.3778 28.1169 50.3778 27.992H48.3778C48.3778 29.3364 49.3616 30.156 50.5467 30.6003L51.2489 28.7277ZM50.3778 27.992C50.3778 27.9965 50.3779 27.9727 50.3851 27.9057C50.3918 27.8437 50.4027 27.761 50.4187 27.6551C50.4508 27.4434 50.5005 27.1604 50.569 26.8024C50.7058 26.0873 50.9125 25.1001 51.1904 23.8369L49.2371 23.4071C48.9577 24.6772 48.7465 25.685 48.6046 26.4266C48.4717 27.1213 48.3778 27.6861 48.3778 27.992H50.3778ZM51.1905 23.8364L52.2165 19.1624L50.263 18.7336L49.237 23.4076L51.1905 23.8364ZM51.2398 19.948H58.4978V17.948H51.2398V19.948ZM57.5206 18.7358L55.8866 26.2598L57.841 26.6842L59.475 19.1602L57.5206 18.7358ZM56.8638 27.472H69.5938V25.472H56.8638V27.472ZM70.572 26.6795L72.168 19.1555L70.2115 18.7405L68.6155 26.2645L70.572 26.6795ZM71.1898 19.948H78.4098V17.948H71.1898V19.948ZM77.4319 18.739L75.5319 27.631L77.4877 28.049L79.3877 19.157L77.4319 18.739ZM75.5317 27.6316C75.4794 27.8771 75.2309 28.28 74.1521 28.6264C73.0958 28.9655 71.4951 29.158 69.2898 29.158V31.158C71.5684 31.158 73.4131 30.9642 74.7635 30.5306C76.0913 30.1043 77.2108 29.3483 77.4878 28.0484L75.5317 27.6316ZM69.2898 29.158C68.7987 29.158 68.2032 29.1457 67.5015 29.1206L67.4301 31.1194C68.147 31.145 68.7676 31.158 69.2898 31.158V29.158ZM67.5015 29.1206L66.4375 29.0826L66.3661 31.0814L67.4301 31.1194L67.5015 29.1206ZM81.4896 37.492L81.8313 36.5522L81.8259 36.5503L81.4896 37.492ZM80.5016 32.97V31.97H79.6924L79.5236 32.7614L80.5016 32.97ZM87.7216 32.97L88.7021 33.1661L88.9414 31.97H87.7216V32.97ZM87.4556 34.3L86.475 34.1039L86.2358 35.3H87.4556V34.3ZM100.148 34.3V35.3H100.954L101.125 34.5113L100.148 34.3ZM101.06 30.082L102.037 30.2933L102.299 29.082H101.06V30.082ZM83.1616 29.626L83.4944 28.683L83.4909 28.6818L83.1616 29.626ZM83.0096 21.19L83.9869 21.4018L83.9888 21.3926L83.0096 21.19ZM85.2516 19.442L85.557 20.3942L85.5606 20.393L85.2516 19.442ZM108.432 19.366L108.736 18.4133L108.731 18.412L108.432 19.366ZM109.61 23.888V24.888H110.419L110.588 24.0966L109.61 23.888ZM102.352 23.888L101.377 23.6652L101.097 24.888H102.352V23.888ZM102.656 22.558L103.63 22.7808L103.91 21.558H102.656V22.558ZM89.9256 22.558V21.558H89.1089L88.9457 22.3582L89.9256 22.558ZM89.1276 26.472L88.1477 26.2722L87.9031 27.472H89.1276V26.472ZM106.988 26.928L106.655 27.871L106.658 27.8722L106.988 26.928ZM107.102 35.706L108.079 35.9155L108.08 35.9141L107.102 35.706ZM105.012 37.416L104.684 36.4712L104.681 36.4721L105.012 37.416ZM102.124 36.948H83.9216V38.948H102.124V36.948ZM83.9216 36.948C83.2672 36.948 82.5722 36.8216 81.8313 36.5522L81.1478 38.4318C82.079 38.7704 83.0053 38.948 83.9216 38.948V36.948ZM81.8259 36.5503C81.3657 36.3859 81.1146 36.2225 80.9911 36.1019C80.8907 36.0039 80.8936 35.9582 80.8936 35.934H78.8936C78.8936 37.2741 80.0082 38.0248 81.1532 38.4337L81.8259 36.5503ZM80.8936 35.934C80.8936 36.0262 80.8779 36.0967 80.8895 36.0271C80.8939 36.0003 80.9018 35.9568 80.9139 35.8931C80.9379 35.7671 80.9748 35.5825 81.0252 35.3369C81.1257 34.8469 81.277 34.128 81.4796 33.1786L79.5236 32.7614C79.3208 33.712 79.1681 34.4371 79.066 34.9351C79.015 35.1835 78.9759 35.3789 78.9492 35.5189C78.936 35.5882 78.9249 35.6492 78.9167 35.6984C78.9156 35.7048 78.8936 35.8228 78.8936 35.934H80.8936ZM80.5016 33.97H87.7216V31.97H80.5016V33.97ZM86.741 32.7739L86.475 34.1039L88.4361 34.4961L88.7021 33.1661L86.741 32.7739ZM87.4556 35.3H100.148V33.3H87.4556V35.3ZM101.125 34.5113L102.037 30.2933L100.082 29.8707L99.1701 34.0887L101.125 34.5113ZM101.06 29.082H85.5936V31.082H101.06V29.082ZM85.5936 29.082C84.9672 29.082 84.2698 28.9567 83.4944 28.683L82.8287 30.569C83.776 30.9033 84.6999 31.082 85.5936 31.082V29.082ZM83.4909 28.6818C83.0124 28.5149 82.7479 28.3504 82.6172 28.2288C82.557 28.1728 82.5372 28.1371 82.532 28.1261C82.5284 28.1186 82.5276 28.1155 82.5276 28.106H80.5276C80.5276 29.4482 81.6991 30.1749 82.8322 30.5702L83.4909 28.6818ZM82.5276 28.106C82.5276 28.149 82.5247 28.1823 82.5236 28.1939C82.5222 28.2094 82.5208 28.2217 82.5199 28.2284C82.5182 28.2418 82.5167 28.2514 82.5163 28.2537C82.5154 28.2593 82.5152 28.2601 82.5165 28.2527C82.519 28.2392 82.5237 28.2153 82.5311 28.1784C82.5457 28.1058 82.5682 27.997 82.5989 27.8505C82.6602 27.5582 82.7524 27.1245 82.8759 26.5485C83.1226 25.397 83.4929 23.6816 83.9869 21.4018L82.0322 20.9782C81.5382 23.2584 81.1675 24.9757 80.9203 26.1295C80.7967 26.7062 80.7037 27.1433 80.6415 27.44C80.6104 27.588 80.5866 27.7033 80.5703 27.7842C80.5623 27.8241 80.5554 27.8594 80.5502 27.8875C80.5477 27.9009 80.5446 27.918 80.5417 27.9355C80.5404 27.9439 80.5381 27.9583 80.5359 27.9755C80.5357 27.9774 80.5276 28.0351 80.5276 28.106H82.5276ZM83.9888 21.3926C84.0212 21.2361 84.2607 20.81 85.557 20.3942L84.9461 18.4898C83.5571 18.9353 82.3019 19.6746 82.0303 20.9874L83.9888 21.3926ZM85.5606 20.393C86.4793 20.0945 87.3885 19.948 88.2916 19.948V17.948C87.168 17.948 86.0505 18.1309 84.9425 18.491L85.5606 20.393ZM88.2916 19.948H105.81V17.948H88.2916V19.948ZM105.81 19.948C106.561 19.948 107.334 20.0694 108.132 20.32L108.731 18.412C107.755 18.1053 106.78 17.948 105.81 17.948V19.948ZM108.128 20.3187C108.663 20.4897 108.969 20.6611 109.123 20.7925C109.194 20.8534 109.216 20.8908 109.22 20.8977C109.221 20.9009 109.22 20.8996 109.219 20.8946C109.218 20.8895 109.218 20.886 109.218 20.886H111.218C111.218 20.2088 110.883 19.6643 110.419 19.2695C109.978 18.8942 109.39 18.6223 108.736 18.4133L108.128 20.3187ZM109.218 20.886C109.218 20.8071 109.229 20.7543 109.22 20.8127C109.216 20.8402 109.208 20.8847 109.196 20.9497C109.172 21.0787 109.136 21.2658 109.085 21.514C108.985 22.0092 108.834 22.7303 108.632 23.6794L110.588 24.0966C110.79 23.1457 110.943 22.4165 111.046 21.911C111.097 21.6589 111.136 21.4581 111.163 21.3115C111.176 21.2388 111.188 21.1737 111.196 21.1197C111.2 21.0965 111.218 20.9903 111.218 20.886H109.218ZM109.61 22.888H102.352V24.888H109.61V22.888ZM103.326 24.1108L103.63 22.7808L101.681 22.3352L101.377 23.6652L103.326 24.1108ZM102.656 21.558H89.9256V23.558H102.656V21.558ZM88.9457 22.3582L88.1477 26.2722L90.1074 26.6718L90.9054 22.7578L88.9457 22.3582ZM89.1276 27.472H104.556V25.472H89.1276V27.472ZM104.556 27.472C105.182 27.472 105.879 27.5973 106.655 27.871L107.32 25.985C106.373 25.6507 105.449 25.472 104.556 25.472V27.472ZM106.658 27.8722C107.137 28.0391 107.401 28.2036 107.532 28.3252C107.592 28.3812 107.612 28.4169 107.617 28.4278C107.621 28.4354 107.622 28.4385 107.622 28.448H109.622C109.622 27.1058 108.45 26.3791 107.317 25.9838L106.658 27.8722ZM107.622 28.448C107.622 28.3946 107.626 28.3537 107.627 28.3478C107.628 28.334 107.63 28.3242 107.63 28.3211C107.631 28.3144 107.631 28.3131 107.63 28.3205C107.628 28.3342 107.623 28.3592 107.616 28.3984C107.601 28.4755 107.578 28.5905 107.547 28.7454C107.484 29.0542 107.389 29.5102 107.263 30.1145C107.01 31.3226 106.63 33.1168 106.123 35.4979L108.08 35.9141C108.586 33.5325 108.967 31.7358 109.22 30.5245C109.347 29.9191 109.443 29.4583 109.507 29.1434C109.538 28.9863 109.563 28.8626 109.58 28.7743C109.588 28.7308 109.596 28.6913 109.601 28.6589C109.604 28.6433 109.607 28.6234 109.61 28.6029C109.612 28.5928 109.614 28.5772 109.616 28.5588C109.617 28.5482 109.622 28.5038 109.622 28.448H107.622ZM106.124 35.4965C106.089 35.6584 105.86 36.0632 104.684 36.4712L105.339 38.3608C106.646 37.9075 107.81 37.1723 108.079 35.9155L106.124 35.4965ZM104.681 36.4721C103.756 36.7961 102.905 36.948 102.124 36.948V38.948C103.166 38.948 104.241 38.7453 105.342 38.3599L104.681 36.4721ZM142.101 22.558V23.558H142.913L143.08 22.764L142.101 22.558ZM132.449 22.558V21.558H131.64L131.471 22.3498L132.449 22.558ZM129.181 37.91V38.91H129.991L130.159 38.1182L129.181 37.91ZM121.999 37.91L121.021 37.7018L120.764 38.91H121.999V37.91ZM125.267 22.558L126.245 22.7662L126.503 21.558H125.267V22.558ZM114.969 22.558L113.991 22.352L113.737 23.558H114.969V22.558ZM115.729 18.948V17.948H114.918L114.751 18.742L115.729 18.948ZM142.861 18.948L143.84 19.154L144.094 17.948H142.861V18.948ZM142.101 21.558H132.449V23.558H142.101V21.558ZM131.471 22.3498L128.203 37.7018L130.159 38.1182L133.427 22.7662L131.471 22.3498ZM129.181 36.91H121.999V38.91H129.181V36.91ZM122.977 38.1182L126.245 22.7662L124.289 22.3498L121.021 37.7018L122.977 38.1182ZM125.267 21.558H114.969V23.558H125.267V21.558ZM115.948 22.764L116.708 19.154L114.751 18.742L113.991 22.352L115.948 22.764ZM115.729 19.948H142.861V17.948H115.729V19.948ZM141.883 18.742L141.123 22.352L143.08 22.764L143.84 19.154L141.883 18.742ZM151.109 37.91V38.91H151.917L152.087 38.1197L151.109 37.91ZM143.927 37.91L142.949 37.7022L142.692 38.91H143.927V37.91ZM147.955 18.948V17.948H147.145L146.977 18.7402L147.955 18.948ZM155.175 18.948L156.153 19.1577L156.412 17.948H155.175V18.948ZM151.109 36.91H143.927V38.91H151.109V36.91ZM144.905 38.1178L148.933 19.1558L146.977 18.7402L142.949 37.7022L144.905 38.1178ZM147.955 19.948H155.175V17.948H147.955V19.948ZM154.197 18.7383L150.131 37.7003L152.087 38.1197L156.153 19.1577L154.197 18.7383ZM158.498 37.492L158.84 36.5522L158.834 36.5503L158.498 37.492ZM160.056 21.19L161.034 21.4002L161.035 21.3926L160.056 21.19ZM162.298 19.442L162.603 20.3942L162.607 20.393L162.298 19.442ZM185.478 19.366L185.17 20.3175L185.174 20.3187L185.478 19.366ZM186.656 23.888V24.888H187.465L187.634 24.0966L186.656 23.888ZM179.398 23.888L178.423 23.6652L178.144 24.888H179.398V23.888ZM179.702 22.558L180.677 22.7808L180.956 21.558H179.702V22.558ZM166.972 22.558V21.558H166.161L165.993 22.3521L166.972 22.558ZM164.502 34.3L163.523 34.0941L163.27 35.3H164.502V34.3ZM177.194 34.3V35.3H177.991L178.169 34.5228L177.194 34.3ZM177.498 32.97V31.97H176.701L176.523 32.7472L177.498 32.97ZM184.718 32.97L185.697 33.174L185.948 31.97H184.718V32.97ZM184.148 35.706L185.126 35.9155L185.127 35.91L184.148 35.706ZM182.058 37.416L181.73 36.4712L181.72 36.4748L182.058 37.416ZM179.17 36.948H160.968V38.948H179.17V36.948ZM160.968 36.948C160.285 36.948 159.577 36.8202 158.84 36.5522L158.156 38.4318C159.091 38.7718 160.03 38.948 160.968 38.948V36.948ZM158.834 36.5503C158.374 36.3859 158.123 36.2225 158 36.1019C157.899 36.0039 157.902 35.9582 157.902 35.934H155.902C155.902 37.2741 157.017 38.0248 158.162 38.4337L158.834 36.5503ZM157.902 35.934C157.902 35.9792 157.899 36.0143 157.898 36.0254C157.896 36.0412 157.895 36.0536 157.894 36.0605C157.892 36.0744 157.89 36.0847 157.89 36.0881C157.889 36.0958 157.888 36.0999 157.888 36.0972C157.889 36.0929 157.891 36.0824 157.895 36.0632C157.902 36.0258 157.914 35.9687 157.93 35.8902C157.963 35.7339 158.012 35.5012 158.077 35.1911C158.209 34.5715 158.406 33.6477 158.668 32.4192C159.194 29.9624 159.982 26.2895 161.034 21.4002L159.078 20.9798C158.027 25.8692 157.238 29.5429 156.713 32.0008C156.45 33.2296 156.253 34.1551 156.121 34.7769C156.055 35.0875 156.005 35.3235 155.972 35.4838C155.956 35.5637 155.943 35.6268 155.934 35.6718C155.929 35.6938 155.925 35.7149 155.922 35.7328C155.92 35.7411 155.918 35.754 155.916 35.768C155.915 35.7746 155.913 35.7875 155.911 35.8033C155.91 35.8112 155.908 35.8245 155.906 35.8409C155.905 35.8528 155.902 35.8884 155.902 35.934H157.902ZM161.035 21.3926C161.068 21.2361 161.307 20.81 162.603 20.3942L161.993 18.4898C160.604 18.9353 159.348 19.6746 159.077 20.9874L161.035 21.3926ZM162.607 20.393C163.526 20.0945 164.435 19.948 165.338 19.948V17.948C164.214 17.948 163.097 18.1309 161.989 18.491L162.607 20.393ZM165.338 19.948H182.856V17.948H165.338V19.948ZM182.856 19.948C183.636 19.948 184.406 20.0703 185.17 20.3174L185.786 18.4146C184.827 18.1044 183.849 17.948 182.856 17.948V19.948ZM185.174 20.3187C185.71 20.4897 186.015 20.6611 186.169 20.7925C186.241 20.8534 186.262 20.8908 186.266 20.8977C186.268 20.9009 186.267 20.8996 186.265 20.8946C186.264 20.8895 186.264 20.886 186.264 20.886H188.264C188.264 20.2088 187.93 19.6643 187.466 19.2695C187.025 18.8942 186.437 18.6223 185.782 18.4133L185.174 20.3187ZM186.264 20.886C186.264 20.8071 186.275 20.7543 186.266 20.8127C186.262 20.8402 186.255 20.8847 186.243 20.9497C186.219 21.0787 186.182 21.2658 186.132 21.514C186.032 22.0092 185.881 22.7303 185.678 23.6794L187.634 24.0966C187.837 23.1457 187.99 22.4165 188.092 21.911C188.143 21.6589 188.183 21.4581 188.21 21.3115C188.223 21.2388 188.234 21.1737 188.243 21.1197C188.246 21.0965 188.264 20.9903 188.264 20.886H186.264ZM186.656 22.888H179.398V24.888H186.656V22.888ZM180.373 24.1108L180.677 22.7808L178.727 22.3352L178.423 23.6652L180.373 24.1108ZM179.702 21.558H166.972V23.558H179.702V21.558ZM165.993 22.3521L163.523 34.0941L165.481 34.5059L167.951 22.7639L165.993 22.3521ZM164.502 35.3H177.194V33.3H164.502V35.3ZM178.169 34.5228L178.473 33.1928L176.523 32.7472L176.219 34.0772L178.169 34.5228ZM177.498 33.97H184.718V31.97H177.498V33.97ZM183.739 32.766L183.169 35.502L185.127 35.91L185.697 33.174L183.739 32.766ZM183.17 35.4965C183.136 35.6584 182.906 36.0632 181.73 36.4712L182.386 38.3608C183.692 37.9075 184.857 37.1723 185.126 35.9155L183.17 35.4965ZM181.72 36.4748C180.828 36.7952 179.979 36.948 179.17 36.948V38.948C180.235 38.948 181.312 38.7461 182.396 38.3572L181.72 36.4748ZM215.88 37.91V38.91H216.689L216.858 38.1192L215.88 37.91ZM208.66 37.91L207.682 37.7021L207.425 38.91H208.66V37.91ZM210.332 30.044L211.31 30.2519L211.567 29.044H210.332V30.044ZM197.602 30.044V29.044H196.792L196.624 29.8361L197.602 30.044ZM195.93 37.91V38.91H196.74L196.908 38.1179L195.93 37.91ZM188.71 37.91L187.732 37.7011L187.474 38.91H188.71V37.91ZM192.282 21.19L193.26 21.3989L193.262 21.3861L192.282 21.19ZM194.524 19.404L194.829 20.3562L194.833 20.355L194.524 19.404ZM217.704 19.328L217.396 20.2795L217.4 20.2807L217.704 19.328ZM211.054 26.434V27.434H211.861L212.031 26.6448L211.054 26.434ZM211.89 22.558L212.867 22.7688L213.129 21.558H211.89V22.558ZM199.236 22.558V21.558H198.421L198.256 22.3563L199.236 22.558ZM198.438 26.434L197.458 26.2323L197.211 27.434H198.438V26.434ZM215.88 36.91H208.66V38.91H215.88V36.91ZM209.638 38.1179L211.31 30.2519L209.354 29.8361L207.682 37.7021L209.638 38.1179ZM210.332 29.044H197.602V31.044H210.332V29.044ZM196.624 29.8361L194.952 37.7021L196.908 38.1179L198.58 30.2519L196.624 29.8361ZM195.93 36.91H188.71V38.91H195.93V36.91ZM189.688 38.1189L193.26 21.3989L191.304 20.9811L187.732 37.7011L189.688 38.1189ZM193.262 21.3861C193.3 21.2006 193.548 20.7671 194.829 20.3562L194.218 18.4518C192.814 18.9023 191.568 19.6594 191.301 20.9939L193.262 21.3861ZM194.833 20.355C195.752 20.0565 196.661 19.91 197.564 19.91V17.91C196.44 17.91 195.323 18.0929 194.215 18.453L194.833 20.355ZM197.564 19.91H215.082V17.91H197.564V19.91ZM215.082 19.91C215.862 19.91 216.632 20.0323 217.396 20.2794L218.012 18.3766C217.053 18.0664 216.075 17.91 215.082 17.91V19.91ZM217.4 20.2807C217.932 20.4506 218.234 20.6232 218.386 20.7561C218.456 20.8175 218.48 20.8573 218.486 20.8692C218.49 20.8769 218.49 20.8783 218.49 20.886H220.49C220.49 20.2102 220.169 19.657 219.701 19.2489C219.258 18.8624 218.666 18.5854 218.008 18.3753L217.4 20.2807ZM218.49 20.886C218.49 20.7857 218.509 20.6956 218.5 20.7469C218.499 20.7509 218.497 20.7626 218.493 20.7851C218.485 20.8288 218.472 20.8957 218.453 20.9879C218.416 21.1714 218.36 21.4426 218.285 21.803C218.135 22.5232 217.91 23.5922 217.609 25.0106C217.008 27.847 216.105 32.0769 214.902 37.7008L216.858 38.1192C218.061 32.4951 218.964 28.2637 219.566 25.4254C219.866 24.0065 220.092 22.9348 220.243 22.211C220.319 21.8494 220.375 21.5728 220.414 21.3826C220.433 21.288 220.448 21.2115 220.458 21.1555C220.464 21.1282 220.469 21.1009 220.473 21.0768C220.475 21.0653 220.477 21.0485 220.48 21.0301C220.481 21.0209 220.483 21.0063 220.485 20.9887C220.486 20.9773 220.49 20.937 220.49 20.886H218.49ZM212.031 26.6448L212.867 22.7688L210.912 22.3472L210.076 26.2232L212.031 26.6448ZM211.89 21.558H199.236V23.558H211.89V21.558ZM198.256 22.3563L197.458 26.2323L199.417 26.6357L200.215 22.7597L198.256 22.3563ZM198.438 27.434H211.054V25.434H198.438V27.434ZM248.106 37.91V38.91H248.917L249.084 38.116L248.106 37.91ZM220.974 37.91L219.995 37.7022L219.739 38.91H220.974V37.91ZM225.002 18.948V17.948H224.192L224.023 18.7402L225.002 18.948ZM232.222 18.948L233.2 19.1562L233.457 17.948H232.222V18.948ZM228.954 34.3L227.976 34.0918L227.718 35.3H228.954V34.3ZM248.866 34.3L249.844 34.506L250.098 33.3H248.866V34.3ZM248.106 36.91H220.974V38.91H248.106V36.91ZM221.952 38.1178L225.98 19.1558L224.023 18.7402L219.995 37.7022L221.952 38.1178ZM225.002 19.948H232.222V17.948H225.002V19.948ZM231.244 18.7398L227.976 34.0918L229.932 34.5082L233.2 19.1562L231.244 18.7398ZM228.954 35.3H248.866V33.3H228.954V35.3ZM247.887 34.094L247.127 37.704L249.084 38.116L249.844 34.506L247.887 34.094Z" fill="url(#paint2_linear_309_47)"/>
</g>
<path d="M42.156 41.71V42.71H43.0154L43.1446 41.8604L42.156 41.71ZM34.936 41.71L33.9473 41.5598L33.7726 42.71H34.936V41.71ZM38.204 20.202L39.1927 20.3522L39.3674 19.202H38.204V20.202ZM35.772 20.202V19.202H34.9125L34.7833 20.0518L35.772 20.202ZM32.504 41.71V42.71H33.3635L33.4927 41.8602L32.504 41.71ZM25.322 41.71L24.3333 41.5598L24.1586 42.71H25.322V41.71ZM28.59 20.202L29.5787 20.3522L29.7534 19.202H28.59V20.202ZM25.474 20.202V19.202H24.6145L24.4853 20.0518L25.474 20.202ZM22.206 41.71V42.71H23.0655L23.1947 41.8602L22.206 41.71ZM15.024 41.71L14.0353 41.5601L13.8609 42.71H15.024V41.71ZM19.052 15.148V14.148H18.1922L18.0633 14.9981L19.052 15.148ZM44.132 15.794L44.5708 14.8954L44.5689 14.8945L44.132 15.794ZM45.728 18.226L44.7579 17.9835L44.7464 18.0291L44.7394 18.0756L45.728 18.226ZM42.156 40.71H34.936V42.71H42.156V40.71ZM35.9247 41.8602L39.1927 20.3522L37.2153 20.0518L33.9473 41.5598L35.9247 41.8602ZM38.204 19.202H35.772V21.202H38.204V19.202ZM34.7833 20.0518L31.5153 41.5598L33.4927 41.8602L36.7607 20.3522L34.7833 20.0518ZM32.504 40.71H25.322V42.71H32.504V40.71ZM26.3107 41.8602L29.5787 20.3522L27.6013 20.0518L24.3333 41.5598L26.3107 41.8602ZM28.59 19.202H25.474V21.202H28.59V19.202ZM24.4853 20.0518L21.2173 41.5598L23.1947 41.8602L26.4627 20.3522L24.4853 20.0518ZM22.206 40.71H15.024V42.71H22.206V40.71ZM16.0127 41.8599L20.0407 15.2979L18.0633 14.9981L14.0353 41.5601L16.0127 41.8599ZM19.052 16.148H41.358V14.148H19.052V16.148ZM41.358 16.148C42.1656 16.148 42.9412 16.3273 43.6951 16.6935L44.5689 14.8945C43.5495 14.3993 42.4757 14.148 41.358 14.148V16.148ZM43.6932 16.6926C44.6001 17.1355 44.766 17.5561 44.766 17.884H46.766C46.766 16.4892 45.8425 15.5165 44.5708 14.8954L43.6932 16.6926ZM44.766 17.884C44.766 17.9456 44.7597 17.9761 44.7579 17.9835L46.6981 18.4685C46.747 18.2732 46.766 18.0758 46.766 17.884H44.766ZM44.7394 18.0756L41.1674 41.5596L43.1446 41.8604L46.7166 18.3764L44.7394 18.0756ZM66.4018 30.082L66.4375 29.0826L65.5991 29.0527L65.4238 29.8731L66.4018 30.082ZM64.7298 37.91V38.91H65.5387L65.7077 38.1189L64.7298 37.91ZM57.5478 37.91L56.5698 37.7011L56.3116 38.91H57.5478V37.91ZM59.2198 30.082L60.1977 30.2909L60.4559 29.082H59.2198V30.082ZM50.8978 29.664L51.2524 28.729L51.2489 28.7277L50.8978 29.664ZM50.2138 23.622L51.1904 23.8369L51.1905 23.8364L50.2138 23.622ZM51.2398 18.948V17.948H50.4355L50.263 18.7336L51.2398 18.948ZM58.4978 18.948L59.475 19.1602L59.7383 17.948H58.4978V18.948ZM56.8638 26.472L55.8866 26.2598L55.6233 27.472H56.8638V26.472ZM69.5938 26.472V27.472H70.4039L70.572 26.6795L69.5938 26.472ZM71.1898 18.948V17.948H70.3797L70.2115 18.7405L71.1898 18.948ZM78.4098 18.948L79.3877 19.157L79.646 17.948H78.4098V18.948ZM76.5098 27.84L75.5319 27.631L75.5317 27.6316L76.5098 27.84ZM67.4658 30.12L67.5015 29.1206L67.5015 29.1206L67.4658 30.12ZM65.4238 29.8731L63.7518 37.7011L65.7077 38.1189L67.3797 30.2909L65.4238 29.8731ZM64.7298 36.91H57.5478V38.91H64.7298V36.91ZM58.5257 38.1189L60.1977 30.2909L58.2418 29.8731L56.5698 37.7011L58.5257 38.1189ZM59.2198 29.082H53.3678V31.082H59.2198V29.082ZM53.3678 29.082C52.5578 29.082 51.8572 28.9584 51.2524 28.729L50.5431 30.599C51.4077 30.9269 52.3538 31.082 53.3678 31.082V29.082ZM51.2489 28.7277C50.4072 28.412 50.3778 28.1169 50.3778 27.992H48.3778C48.3778 29.3364 49.3616 30.156 50.5467 30.6003L51.2489 28.7277ZM50.3778 27.992C50.3778 27.9965 50.3779 27.9727 50.3851 27.9057C50.3918 27.8437 50.4027 27.761 50.4187 27.6551C50.4508 27.4434 50.5005 27.1604 50.569 26.8024C50.7058 26.0873 50.9125 25.1001 51.1904 23.8369L49.2371 23.4071C48.9577 24.6772 48.7465 25.685 48.6046 26.4266C48.4717 27.1213 48.3778 27.6861 48.3778 27.992H50.3778ZM51.1905 23.8364L52.2165 19.1624L50.263 18.7336L49.237 23.4076L51.1905 23.8364ZM51.2398 19.948H58.4978V17.948H51.2398V19.948ZM57.5206 18.7358L55.8866 26.2598L57.841 26.6842L59.475 19.1602L57.5206 18.7358ZM56.8638 27.472H69.5938V25.472H56.8638V27.472ZM70.572 26.6795L72.168 19.1555L70.2115 18.7405L68.6155 26.2645L70.572 26.6795ZM71.1898 19.948H78.4098V17.948H71.1898V19.948ZM77.4319 18.739L75.5319 27.631L77.4877 28.049L79.3877 19.157L77.4319 18.739ZM75.5317 27.6316C75.4794 27.8771 75.2309 28.28 74.1521 28.6264C73.0958 28.9655 71.4951 29.158 69.2898 29.158V31.158C71.5684 31.158 73.4131 30.9642 74.7635 30.5306C76.0913 30.1043 77.2108 29.3483 77.4878 28.0484L75.5317 27.6316ZM69.2898 29.158C68.7987 29.158 68.2032 29.1457 67.5015 29.1206L67.4301 31.1194C68.147 31.145 68.7676 31.158 69.2898 31.158V29.158ZM67.5015 29.1206L66.4375 29.0826L66.3661 31.0814L67.4301 31.1194L67.5015 29.1206ZM81.4896 37.492L81.8313 36.5522L81.8259 36.5503L81.4896 37.492ZM80.5016 32.97V31.97H79.6924L79.5236 32.7614L80.5016 32.97ZM87.7216 32.97L88.7021 33.1661L88.9414 31.97H87.7216V32.97ZM87.4556 34.3L86.475 34.1039L86.2358 35.3H87.4556V34.3ZM100.148 34.3V35.3H100.954L101.125 34.5113L100.148 34.3ZM101.06 30.082L102.037 30.2933L102.299 29.082H101.06V30.082ZM83.1616 29.626L83.4944 28.683L83.4909 28.6818L83.1616 29.626ZM83.0096 21.19L83.9869 21.4018L83.9888 21.3926L83.0096 21.19ZM85.2516 19.442L85.557 20.3942L85.5606 20.393L85.2516 19.442ZM108.432 19.366L108.736 18.4133L108.731 18.412L108.432 19.366ZM109.61 23.888V24.888H110.419L110.588 24.0966L109.61 23.888ZM102.352 23.888L101.377 23.6652L101.097 24.888H102.352V23.888ZM102.656 22.558L103.63 22.7808L103.91 21.558H102.656V22.558ZM89.9256 22.558V21.558H89.1089L88.9457 22.3582L89.9256 22.558ZM89.1276 26.472L88.1477 26.2722L87.9031 27.472H89.1276V26.472ZM106.988 26.928L106.655 27.871L106.658 27.8722L106.988 26.928ZM107.102 35.706L108.079 35.9155L108.08 35.9141L107.102 35.706ZM105.012 37.416L104.684 36.4712L104.681 36.4721L105.012 37.416ZM102.124 36.948H83.9216V38.948H102.124V36.948ZM83.9216 36.948C83.2672 36.948 82.5722 36.8216 81.8313 36.5522L81.1478 38.4318C82.079 38.7704 83.0053 38.948 83.9216 38.948V36.948ZM81.8259 36.5503C81.3657 36.3859 81.1146 36.2225 80.9911 36.1019C80.8907 36.0039 80.8936 35.9582 80.8936 35.934H78.8936C78.8936 37.2741 80.0082 38.0248 81.1532 38.4337L81.8259 36.5503ZM80.8936 35.934C80.8936 36.0262 80.8779 36.0967 80.8895 36.0271C80.8939 36.0003 80.9018 35.9568 80.9139 35.8931C80.9379 35.7671 80.9748 35.5825 81.0252 35.3369C81.1257 34.8469 81.277 34.128 81.4796 33.1786L79.5236 32.7614C79.3208 33.712 79.1681 34.4371 79.066 34.9351C79.015 35.1835 78.9759 35.3789 78.9492 35.5189C78.936 35.5882 78.9249 35.6492 78.9167 35.6984C78.9156 35.7048 78.8936 35.8228 78.8936 35.934H80.8936ZM80.5016 33.97H87.7216V31.97H80.5016V33.97ZM86.741 32.7739L86.475 34.1039L88.4361 34.4961L88.7021 33.1661L86.741 32.7739ZM87.4556 35.3H100.148V33.3H87.4556V35.3ZM101.125 34.5113L102.037 30.2933L100.082 29.8707L99.1701 34.0887L101.125 34.5113ZM101.06 29.082H85.5936V31.082H101.06V29.082ZM85.5936 29.082C84.9672 29.082 84.2698 28.9567 83.4944 28.683L82.8287 30.569C83.776 30.9033 84.6999 31.082 85.5936 31.082V29.082ZM83.4909 28.6818C83.0124 28.5149 82.7479 28.3504 82.6172 28.2288C82.557 28.1728 82.5372 28.1371 82.532 28.1261C82.5284 28.1186 82.5276 28.1155 82.5276 28.106H80.5276C80.5276 29.4482 81.6991 30.1749 82.8322 30.5702L83.4909 28.6818ZM82.5276 28.106C82.5276 28.149 82.5247 28.1823 82.5236 28.1939C82.5222 28.2094 82.5208 28.2217 82.5199 28.2284C82.5182 28.2418 82.5167 28.2514 82.5163 28.2537C82.5154 28.2593 82.5152 28.2601 82.5165 28.2527C82.519 28.2392 82.5237 28.2153 82.5311 28.1784C82.5457 28.1058 82.5682 27.997 82.5989 27.8505C82.6602 27.5582 82.7524 27.1245 82.8759 26.5485C83.1226 25.397 83.4929 23.6816 83.9869 21.4018L82.0322 20.9782C81.5382 23.2584 81.1675 24.9757 80.9203 26.1295C80.7967 26.7062 80.7037 27.1433 80.6415 27.44C80.6104 27.588 80.5866 27.7033 80.5703 27.7842C80.5623 27.8241 80.5554 27.8594 80.5502 27.8875C80.5477 27.9009 80.5446 27.918 80.5417 27.9355C80.5404 27.9439 80.5381 27.9583 80.5359 27.9755C80.5357 27.9774 80.5276 28.0351 80.5276 28.106H82.5276ZM83.9888 21.3926C84.0212 21.2361 84.2607 20.81 85.557 20.3942L84.9461 18.4898C83.5571 18.9353 82.3019 19.6746 82.0303 20.9874L83.9888 21.3926ZM85.5606 20.393C86.4793 20.0945 87.3885 19.948 88.2916 19.948V17.948C87.168 17.948 86.0505 18.1309 84.9425 18.491L85.5606 20.393ZM88.2916 19.948H105.81V17.948H88.2916V19.948ZM105.81 19.948C106.561 19.948 107.334 20.0694 108.132 20.32L108.731 18.412C107.755 18.1053 106.78 17.948 105.81 17.948V19.948ZM108.128 20.3187C108.663 20.4897 108.969 20.6611 109.123 20.7925C109.194 20.8534 109.216 20.8908 109.22 20.8977C109.221 20.9009 109.22 20.8996 109.219 20.8946C109.218 20.8895 109.218 20.886 109.218 20.886H111.218C111.218 20.2088 110.883 19.6643 110.419 19.2695C109.978 18.8942 109.39 18.6223 108.736 18.4133L108.128 20.3187ZM109.218 20.886C109.218 20.8071 109.229 20.7543 109.22 20.8127C109.216 20.8402 109.208 20.8847 109.196 20.9497C109.172 21.0787 109.136 21.2658 109.085 21.514C108.985 22.0092 108.834 22.7303 108.632 23.6794L110.588 24.0966C110.79 23.1457 110.943 22.4165 111.046 21.911C111.097 21.6589 111.136 21.4581 111.163 21.3115C111.176 21.2388 111.188 21.1737 111.196 21.1197C111.2 21.0965 111.218 20.9903 111.218 20.886H109.218ZM109.61 22.888H102.352V24.888H109.61V22.888ZM103.326 24.1108L103.63 22.7808L101.681 22.3352L101.377 23.6652L103.326 24.1108ZM102.656 21.558H89.9256V23.558H102.656V21.558ZM88.9457 22.3582L88.1477 26.2722L90.1074 26.6718L90.9054 22.7578L88.9457 22.3582ZM89.1276 27.472H104.556V25.472H89.1276V27.472ZM104.556 27.472C105.182 27.472 105.879 27.5973 106.655 27.871L107.32 25.985C106.373 25.6507 105.449 25.472 104.556 25.472V27.472ZM106.658 27.8722C107.137 28.0391 107.401 28.2036 107.532 28.3252C107.592 28.3812 107.612 28.4169 107.617 28.4278C107.621 28.4354 107.622 28.4385 107.622 28.448H109.622C109.622 27.1058 108.45 26.3791 107.317 25.9838L106.658 27.8722ZM107.622 28.448C107.622 28.3946 107.626 28.3537 107.627 28.3478C107.628 28.334 107.63 28.3242 107.63 28.3211C107.631 28.3144 107.631 28.3131 107.63 28.3205C107.628 28.3342 107.623 28.3592 107.616 28.3984C107.601 28.4755 107.578 28.5905 107.547 28.7454C107.484 29.0542 107.389 29.5102 107.263 30.1145C107.01 31.3226 106.63 33.1168 106.123 35.4979L108.08 35.9141C108.586 33.5325 108.967 31.7358 109.22 30.5245C109.347 29.9191 109.443 29.4583 109.507 29.1434C109.538 28.9863 109.563 28.8626 109.58 28.7743C109.588 28.7308 109.596 28.6913 109.601 28.6589C109.604 28.6433 109.607 28.6234 109.61 28.6029C109.612 28.5928 109.614 28.5772 109.616 28.5588C109.617 28.5482 109.622 28.5038 109.622 28.448H107.622ZM106.124 35.4965C106.089 35.6584 105.86 36.0632 104.684 36.4712L105.339 38.3608C106.646 37.9075 107.81 37.1723 108.079 35.9155L106.124 35.4965ZM104.681 36.4721C103.756 36.7961 102.905 36.948 102.124 36.948V38.948C103.166 38.948 104.241 38.7453 105.342 38.3599L104.681 36.4721ZM142.101 22.558V23.558H142.913L143.08 22.764L142.101 22.558ZM132.449 22.558V21.558H131.64L131.471 22.3498L132.449 22.558ZM129.181 37.91V38.91H129.991L130.159 38.1182L129.181 37.91ZM121.999 37.91L121.021 37.7018L120.764 38.91H121.999V37.91ZM125.267 22.558L126.245 22.7662L126.503 21.558H125.267V22.558ZM114.969 22.558L113.991 22.352L113.737 23.558H114.969V22.558ZM115.729 18.948V17.948H114.918L114.751 18.742L115.729 18.948ZM142.861 18.948L143.84 19.154L144.094 17.948H142.861V18.948ZM142.101 21.558H132.449V23.558H142.101V21.558ZM131.471 22.3498L128.203 37.7018L130.159 38.1182L133.427 22.7662L131.471 22.3498ZM129.181 36.91H121.999V38.91H129.181V36.91ZM122.977 38.1182L126.245 22.7662L124.289 22.3498L121.021 37.7018L122.977 38.1182ZM125.267 21.558H114.969V23.558H125.267V21.558ZM115.948 22.764L116.708 19.154L114.751 18.742L113.991 22.352L115.948 22.764ZM115.729 19.948H142.861V17.948H115.729V19.948ZM141.883 18.742L141.123 22.352L143.08 22.764L143.84 19.154L141.883 18.742ZM151.109 37.91V38.91H151.917L152.087 38.1197L151.109 37.91ZM143.927 37.91L142.949 37.7022L142.692 38.91H143.927V37.91ZM147.955 18.948V17.948H147.145L146.977 18.7402L147.955 18.948ZM155.175 18.948L156.153 19.1577L156.412 17.948H155.175V18.948ZM151.109 36.91H143.927V38.91H151.109V36.91ZM144.905 38.1178L148.933 19.1558L146.977 18.7402L142.949 37.7022L144.905 38.1178ZM147.955 19.948H155.175V17.948H147.955V19.948ZM154.197 18.7383L150.131 37.7003L152.087 38.1197L156.153 19.1577L154.197 18.7383ZM158.498 37.492L158.84 36.5522L158.834 36.5503L158.498 37.492ZM160.056 21.19L161.034 21.4002L161.035 21.3926L160.056 21.19ZM162.298 19.442L162.603 20.3942L162.607 20.393L162.298 19.442ZM185.478 19.366L185.17 20.3175L185.174 20.3187L185.478 19.366ZM186.656 23.888V24.888H187.465L187.634 24.0966L186.656 23.888ZM179.398 23.888L178.423 23.6652L178.144 24.888H179.398V23.888ZM179.702 22.558L180.677 22.7808L180.956 21.558H179.702V22.558ZM166.972 22.558V21.558H166.161L165.993 22.3521L166.972 22.558ZM164.502 34.3L163.523 34.0941L163.27 35.3H164.502V34.3ZM177.194 34.3V35.3H177.991L178.169 34.5228L177.194 34.3ZM177.498 32.97V31.97H176.701L176.523 32.7472L177.498 32.97ZM184.718 32.97L185.697 33.174L185.948 31.97H184.718V32.97ZM184.148 35.706L185.126 35.9155L185.127 35.91L184.148 35.706ZM182.058 37.416L181.73 36.4712L181.72 36.4748L182.058 37.416ZM179.17 36.948H160.968V38.948H179.17V36.948ZM160.968 36.948C160.285 36.948 159.577 36.8202 158.84 36.5522L158.156 38.4318C159.091 38.7718 160.03 38.948 160.968 38.948V36.948ZM158.834 36.5503C158.374 36.3859 158.123 36.2225 158 36.1019C157.899 36.0039 157.902 35.9582 157.902 35.934H155.902C155.902 37.2741 157.017 38.0248 158.162 38.4337L158.834 36.5503ZM157.902 35.934C157.902 35.9792 157.899 36.0143 157.898 36.0254C157.896 36.0412 157.895 36.0536 157.894 36.0605C157.892 36.0744 157.89 36.0847 157.89 36.0881C157.889 36.0958 157.888 36.0999 157.888 36.0972C157.889 36.0929 157.891 36.0824 157.895 36.0632C157.902 36.0258 157.914 35.9687 157.93 35.8902C157.963 35.7339 158.012 35.5012 158.077 35.1911C158.209 34.5715 158.406 33.6477 158.668 32.4192C159.194 29.9624 159.982 26.2895 161.034 21.4002L159.078 20.9798C158.027 25.8692 157.238 29.5429 156.713 32.0008C156.45 33.2296 156.253 34.1551 156.121 34.7769C156.055 35.0875 156.005 35.3235 155.972 35.4838C155.956 35.5637 155.943 35.6268 155.934 35.6718C155.929 35.6938 155.925 35.7149 155.922 35.7328C155.92 35.7411 155.918 35.754 155.916 35.768C155.915 35.7746 155.913 35.7875 155.911 35.8033C155.91 35.8112 155.908 35.8245 155.906 35.8409C155.905 35.8528 155.902 35.8884 155.902 35.934H157.902ZM161.035 21.3926C161.068 21.2361 161.307 20.81 162.603 20.3942L161.993 18.4898C160.604 18.9353 159.348 19.6746 159.077 20.9874L161.035 21.3926ZM162.607 20.393C163.526 20.0945 164.435 19.948 165.338 19.948V17.948C164.214 17.948 163.097 18.1309 161.989 18.491L162.607 20.393ZM165.338 19.948H182.856V17.948H165.338V19.948ZM182.856 19.948C183.636 19.948 184.406 20.0703 185.17 20.3174L185.786 18.4146C184.827 18.1044 183.849 17.948 182.856 17.948V19.948ZM185.174 20.3187C185.71 20.4897 186.015 20.6611 186.169 20.7925C186.241 20.8534 186.262 20.8908 186.266 20.8977C186.268 20.9009 186.267 20.8996 186.265 20.8946C186.264 20.8895 186.264 20.886 186.264 20.886H188.264C188.264 20.2088 187.93 19.6643 187.466 19.2695C187.025 18.8942 186.437 18.6223 185.782 18.4133L185.174 20.3187ZM186.264 20.886C186.264 20.8071 186.275 20.7543 186.266 20.8127C186.262 20.8402 186.255 20.8847 186.243 20.9497C186.219 21.0787 186.182 21.2658 186.132 21.514C186.032 22.0092 185.881 22.7303 185.678 23.6794L187.634 24.0966C187.837 23.1457 187.99 22.4165 188.092 21.911C188.143 21.6589 188.183 21.4581 188.21 21.3115C188.223 21.2388 188.234 21.1737 188.243 21.1197C188.246 21.0965 188.264 20.9903 188.264 20.886H186.264ZM186.656 22.888H179.398V24.888H186.656V22.888ZM180.373 24.1108L180.677 22.7808L178.727 22.3352L178.423 23.6652L180.373 24.1108ZM179.702 21.558H166.972V23.558H179.702V21.558ZM165.993 22.3521L163.523 34.0941L165.481 34.5059L167.951 22.7639L165.993 22.3521ZM164.502 35.3H177.194V33.3H164.502V35.3ZM178.169 34.5228L178.473 33.1928L176.523 32.7472L176.219 34.0772L178.169 34.5228ZM177.498 33.97H184.718V31.97H177.498V33.97ZM183.739 32.766L183.169 35.502L185.127 35.91L185.697 33.174L183.739 32.766ZM183.17 35.4965C183.136 35.6584 182.906 36.0632 181.73 36.4712L182.386 38.3608C183.692 37.9075 184.857 37.1723 185.126 35.9155L183.17 35.4965ZM181.72 36.4748C180.828 36.7952 179.979 36.948 179.17 36.948V38.948C180.235 38.948 181.312 38.7461 182.396 38.3572L181.72 36.4748ZM215.88 37.91V38.91H216.689L216.858 38.1192L215.88 37.91ZM208.66 37.91L207.682 37.7021L207.425 38.91H208.66V37.91ZM210.332 30.044L211.31 30.2519L211.567 29.044H210.332V30.044ZM197.602 30.044V29.044H196.792L196.624 29.8361L197.602 30.044ZM195.93 37.91V38.91H196.74L196.908 38.1179L195.93 37.91ZM188.71 37.91L187.732 37.7011L187.474 38.91H188.71V37.91ZM192.282 21.19L193.26 21.3989L193.262 21.3861L192.282 21.19ZM194.524 19.404L194.829 20.3562L194.833 20.355L194.524 19.404ZM217.704 19.328L217.396 20.2795L217.4 20.2807L217.704 19.328ZM211.054 26.434V27.434H211.861L212.031 26.6448L211.054 26.434ZM211.89 22.558L212.867 22.7688L213.129 21.558H211.89V22.558ZM199.236 22.558V21.558H198.421L198.256 22.3563L199.236 22.558ZM198.438 26.434L197.458 26.2323L197.211 27.434H198.438V26.434ZM215.88 36.91H208.66V38.91H215.88V36.91ZM209.638 38.1179L211.31 30.2519L209.354 29.8361L207.682 37.7021L209.638 38.1179ZM210.332 29.044H197.602V31.044H210.332V29.044ZM196.624 29.8361L194.952 37.7021L196.908 38.1179L198.58 30.2519L196.624 29.8361ZM195.93 36.91H188.71V38.91H195.93V36.91ZM189.688 38.1189L193.26 21.3989L191.304 20.9811L187.732 37.7011L189.688 38.1189ZM193.262 21.3861C193.3 21.2006 193.548 20.7671 194.829 20.3562L194.218 18.4518C192.814 18.9023 191.568 19.6594 191.301 20.9939L193.262 21.3861ZM194.833 20.355C195.752 20.0565 196.661 19.91 197.564 19.91V17.91C196.44 17.91 195.323 18.0929 194.215 18.453L194.833 20.355ZM197.564 19.91H215.082V17.91H197.564V19.91ZM215.082 19.91C215.862 19.91 216.632 20.0323 217.396 20.2794L218.012 18.3766C217.053 18.0664 216.075 17.91 215.082 17.91V19.91ZM217.4 20.2807C217.932 20.4506 218.234 20.6232 218.386 20.7561C218.456 20.8175 218.48 20.8573 218.486 20.8692C218.49 20.8769 218.49 20.8783 218.49 20.886H220.49C220.49 20.2102 220.169 19.657 219.701 19.2489C219.258 18.8624 218.666 18.5854 218.008 18.3753L217.4 20.2807ZM218.49 20.886C218.49 20.7857 218.509 20.6956 218.5 20.7469C218.499 20.7509 218.497 20.7626 218.493 20.7851C218.485 20.8288 218.472 20.8957 218.453 20.9879C218.416 21.1714 218.36 21.4426 218.285 21.803C218.135 22.5232 217.91 23.5922 217.609 25.0106C217.008 27.847 216.105 32.0769 214.902 37.7008L216.858 38.1192C218.061 32.4951 218.964 28.2637 219.566 25.4254C219.866 24.0065 220.092 22.9348 220.243 22.211C220.319 21.8494 220.375 21.5728 220.414 21.3826C220.433 21.288 220.448 21.2115 220.458 21.1555C220.464 21.1282 220.469 21.1009 220.473 21.0768C220.475 21.0653 220.477 21.0485 220.48 21.0301C220.481 21.0209 220.483 21.0063 220.485 20.9887C220.486 20.9773 220.49 20.937 220.49 20.886H218.49ZM212.031 26.6448L212.867 22.7688L210.912 22.3472L210.076 26.2232L212.031 26.6448ZM211.89 21.558H199.236V23.558H211.89V21.558ZM198.256 22.3563L197.458 26.2323L199.417 26.6357L200.215 22.7597L198.256 22.3563ZM198.438 27.434H211.054V25.434H198.438V27.434ZM248.106 37.91V38.91H248.917L249.084 38.116L248.106 37.91ZM220.974 37.91L219.995 37.7022L219.739 38.91H220.974V37.91ZM225.002 18.948V17.948H224.192L224.023 18.7402L225.002 18.948ZM232.222 18.948L233.2 19.1562L233.457 17.948H232.222V18.948ZM228.954 34.3L227.976 34.0918L227.718 35.3H228.954V34.3ZM248.866 34.3L249.844 34.506L250.098 33.3H248.866V34.3ZM248.106 36.91H220.974V38.91H248.106V36.91ZM221.952 38.1178L225.98 19.1558L224.023 18.7402L219.995 37.7022L221.952 38.1178ZM225.002 19.948H232.222V17.948H225.002V19.948ZM231.244 18.7398L227.976 34.0918L229.932 34.5082L233.2 19.1562L231.244 18.7398ZM228.954 35.3H248.866V33.3H228.954V35.3ZM247.887 34.094L247.127 37.704L249.084 38.116L249.844 34.506L247.887 34.094Z" fill="white"/>
<defs>
<filter id="filter0_f_309_47" x="5.02399" y="5.14844" width="253.842" height="46.5615" filterUnits="userSpaceOnUse" color-interpolation-filters="sRGB">
<feFlood flood-opacity="0" result="BackgroundImageFix"/>
<feBlend mode="normal" in="SourceGraphic" in2="BackgroundImageFix" result="shape"/>
<feGaussianBlur stdDeviation="5" result="effect1_foregroundBlur_309_47"/>
</filter>
<filter id="filter1_f_309_47" x="0.0239868" y="0.148438" width="263.842" height="56.5615" filterUnits="userSpaceOnUse" color-interpolation-filters="sRGB">
<feFlood flood-opacity="0" result="BackgroundImageFix"/>
<feBlend mode="normal" in="SourceGraphic" in2="BackgroundImageFix" result="shape"/>
<feGaussianBlur stdDeviation="7.5" result="effect1_foregroundBlur_309_47"/>
</filter>
<filter id="filter2_f_309_47" x="9.02399" y="9.14844" width="245.842" height="38.5615" filterUnits="userSpaceOnUse" color-interpolation-filters="sRGB">
<feFlood flood-opacity="0" result="BackgroundImageFix"/>
<feBlend mode="normal" in="SourceGraphic" in2="BackgroundImageFix" result="shape"/>
<feGaussianBlur stdDeviation="3" result="effect1_foregroundBlur_309_47"/>
</filter>
<linearGradient id="paint0_linear_309_47" x1="134.5" y1="10" x2="134.5" y2="48" gradientUnits="userSpaceOnUse">
<stop stop-color="#3BEDF9"/>
<stop offset="1" stop-color="#164FFF"/>
</linearGradient>
<linearGradient id="paint1_linear_309_47" x1="134.5" y1="10" x2="134.5" y2="48" gradientUnits="userSpaceOnUse">
<stop stop-color="#3BEDF9"/>
<stop offset="1" stop-color="#164FFF"/>
</linearGradient>
<linearGradient id="paint2_linear_309_47" x1="134.5" y1="10" x2="134.5" y2="48" gradientUnits="userSpaceOnUse">
<stop stop-color="#3BEDF9"/>
<stop offset="1" stop-color="#164FFF"/>
</linearGradient>
</defs>
</svg>
