<svg width="138" height="57" viewBox="0 0 138 57" fill="none" xmlns="http://www.w3.org/2000/svg">
<g filter="url(#filter0_f_309_79)">
<path d="M42.156 41.71V42.71H43.0169L43.1449 41.8587L42.156 41.71ZM15.024 41.71L14.0353 41.5601L13.8609 42.71H15.024V41.71ZM19.052 15.148V14.148H18.1922L18.0633 14.9981L19.052 15.148ZM46.184 15.148L47.1729 15.2967L47.3456 14.148H46.184V15.148ZM45.424 20.202V21.202H46.2849L46.4129 20.3507L45.424 20.202ZM25.474 20.202V19.202H24.6152L24.4855 20.051L25.474 20.202ZM24.638 25.674L23.6495 25.523L23.4736 26.674H24.638V25.674ZM37.33 25.674L38.3189 25.8227L38.4916 24.674H37.33V25.674ZM36.57 30.728V31.728H37.4309L37.5589 30.8767L36.57 30.728ZM23.878 30.728V29.728H23.0146L22.8887 30.5821L23.878 30.728ZM23.004 36.656L22.0147 36.5101L21.8458 37.656H23.004V36.656ZM42.916 36.656L43.9049 36.8047L44.0776 35.656H42.916V36.656ZM42.156 40.71H15.024V42.71H42.156V40.71ZM16.0127 41.8599L20.0407 15.2979L18.0633 14.9981L14.0353 41.5601L16.0127 41.8599ZM19.052 16.148H46.184V14.148H19.052V16.148ZM45.1951 14.9993L44.4351 20.0533L46.4129 20.3507L47.1729 15.2967L45.1951 14.9993ZM45.424 19.202H25.474V21.202H45.424V19.202ZM24.4855 20.051L23.6495 25.523L25.6265 25.825L26.4625 20.353L24.4855 20.051ZM24.638 26.674H37.33V24.674H24.638V26.674ZM36.3411 25.5253L35.5811 30.5793L37.5589 30.8767L38.3189 25.8227L36.3411 25.5253ZM36.57 29.728H23.878V31.728H36.57V29.728ZM22.8887 30.5821L22.0147 36.5101L23.9933 36.8019L24.8673 30.8739L22.8887 30.5821ZM23.004 37.656H42.916V35.656H23.004V37.656ZM41.9271 36.5073L41.1671 41.5613L43.1449 41.8587L43.9049 36.8047L41.9271 36.5073ZM56.1038 30.082V29.082H55.2948L55.1258 29.8731L56.1038 30.082ZM54.4318 37.91V38.91H55.2407L55.4097 38.1189L54.4318 37.91ZM47.2498 37.91L46.2716 37.7022L46.015 38.91H47.2498V37.91ZM51.2778 18.948V17.948H50.4679L50.2996 18.7402L51.2778 18.948ZM76.2058 19.366L75.898 20.3175L75.9017 20.3187L76.2058 19.366ZM76.5478 27.84L77.5256 28.0495L77.526 28.0477L76.5478 27.84ZM74.4578 29.55L74.13 28.6052L74.1274 28.6061L74.4578 29.55ZM69.5558 26.434V27.434H70.3631L70.5333 26.6448L69.5558 26.434ZM70.3918 22.558L71.3693 22.7688L71.6305 21.558H70.3918V22.558ZM57.7378 22.558V21.558H56.9227L56.7583 22.3563L57.7378 22.558ZM56.9398 26.434L55.9603 26.2323L55.7129 27.434H56.9398V26.434ZM55.1258 29.8731L53.4538 37.7011L55.4097 38.1189L57.0817 30.2909L55.1258 29.8731ZM54.4318 36.91H47.2498V38.91H54.4318V36.91ZM48.228 38.1178L52.256 19.1558L50.2996 18.7402L46.2716 37.7022L48.228 38.1178ZM51.2778 19.948H73.5838V17.948H51.2778V19.948ZM73.5838 19.948C74.3637 19.948 75.134 20.0703 75.898 20.3174L76.5136 18.4146C75.5549 18.1044 74.5772 17.948 73.5838 17.948V19.948ZM75.9017 20.3187C76.4376 20.4897 76.7427 20.6611 76.8972 20.7925C76.9687 20.8534 76.9902 20.8908 76.9937 20.8977C76.9955 20.9009 76.9944 20.8996 76.9931 20.8946C76.9919 20.8895 76.9918 20.886 76.9918 20.886H78.9918C78.9918 20.2088 78.6573 19.6643 78.1934 19.2695C77.7525 18.8942 77.1646 18.6223 76.5098 18.4133L75.9017 20.3187ZM76.9918 20.886C76.9918 20.7962 77.0065 20.724 76.9985 20.774C76.9966 20.7861 76.9926 20.8094 76.9857 20.8473C76.972 20.922 76.9505 21.0328 76.9208 21.1825C76.8614 21.4807 76.7718 21.9184 76.6517 22.4972C76.4115 23.6539 76.0508 25.3654 75.5696 27.6323L77.526 28.0477C78.0074 25.78 78.3688 24.0651 78.6099 22.9038C78.7304 22.3236 78.8213 21.8793 78.8823 21.5728C78.9127 21.42 78.9364 21.2977 78.9528 21.2085C78.9609 21.1645 78.9681 21.1232 78.9737 21.088C78.9765 21.0708 78.9797 21.0492 78.9826 21.0264C78.9836 21.0185 78.9918 20.9579 78.9918 20.886H76.9918ZM75.57 27.6305C75.5353 27.7924 75.3062 28.1972 74.13 28.6052L74.7856 30.4948C76.0921 30.0415 77.2563 29.3063 77.5256 28.0495L75.57 27.6305ZM74.1274 28.6061C73.2019 28.9301 72.3513 29.082 71.5698 29.082V31.082C72.6122 31.082 73.687 30.8793 74.7881 30.4939L74.1274 28.6061ZM71.5698 29.082H56.1038V31.082H71.5698V29.082ZM70.5333 26.6448L71.3693 22.7688L69.4143 22.3472L68.5783 26.2232L70.5333 26.6448ZM70.3918 21.558H57.7378V23.558H70.3918V21.558ZM56.7583 22.3563L55.9603 26.2323L57.9192 26.6357L58.7172 22.7597L56.7583 22.3563ZM56.9398 27.434H69.5558V25.434H56.9398V27.434ZM86.6576 37.91V38.91H87.4659L87.6353 38.1197L86.6576 37.91ZM79.4756 37.91L78.4974 37.7022L78.2408 38.91H79.4756V37.91ZM83.5036 18.948V17.948H82.6937L82.5254 18.7402L83.5036 18.948ZM90.7236 18.948L91.7013 19.1577L91.9607 17.948H90.7236V18.948ZM86.6576 36.91H79.4756V38.91H86.6576V36.91ZM80.4537 38.1178L84.4817 19.1558L82.5254 18.7402L78.4974 37.7022L80.4537 38.1178ZM83.5036 19.948H90.7236V17.948H83.5036V19.948ZM89.7458 18.7383L85.6798 37.7003L87.6353 38.1197L91.7013 19.1577L89.7458 18.7383ZM94.0465 37.492L94.3882 36.5522L94.3828 36.5503L94.0465 37.492ZM95.6045 21.19L96.5822 21.4002L96.5837 21.3926L95.6045 21.19ZM97.8465 19.442L98.1519 20.3942L98.1556 20.393L97.8465 19.442ZM121.026 19.366L120.719 20.3175L120.722 20.3187L121.026 19.366ZM122.204 23.888V24.888H123.014L123.182 24.0966L122.204 23.888ZM114.946 23.888L113.972 23.6652L113.692 24.888H114.946V23.888ZM115.25 22.558L116.225 22.7808L116.505 21.558H115.25V22.558ZM102.52 22.558V21.558H101.709L101.542 22.3521L102.52 22.558ZM100.05 34.3L99.0719 34.0941L98.8182 35.3H100.05V34.3ZM112.742 34.3V35.3H113.54L113.717 34.5228L112.742 34.3ZM113.046 32.97V31.97H112.249L112.072 32.7472L113.046 32.97ZM120.266 32.97L121.245 33.174L121.496 31.97H120.266V32.97ZM119.696 35.706L120.674 35.9155L120.675 35.91L119.696 35.706ZM117.606 37.416L117.279 36.4712L117.269 36.4748L117.606 37.416ZM114.718 36.948H96.5165V38.948H114.718V36.948ZM96.5165 36.948C95.8332 36.948 95.1253 36.8202 94.3882 36.5522L93.7047 38.4318C94.6396 38.7718 95.5785 38.948 96.5165 38.948V36.948ZM94.3828 36.5503C93.9226 36.3859 93.6715 36.2225 93.548 36.1019C93.4476 36.0039 93.4505 35.9582 93.4505 35.934H91.4505C91.4505 37.2741 92.5652 38.0248 93.7101 38.4337L94.3828 36.5503ZM93.4505 35.934C93.4505 35.9792 93.4473 36.0143 93.4463 36.0254C93.4448 36.0412 93.4433 36.0536 93.4424 36.0605C93.4406 36.0744 93.4389 36.0847 93.4384 36.0881C93.4371 36.0958 93.4363 36.0999 93.4368 36.0972C93.4376 36.0929 93.4396 36.0824 93.4435 36.0632C93.4509 36.0258 93.4626 35.9687 93.4789 35.8902C93.5113 35.7339 93.5603 35.5012 93.6259 35.1911C93.7571 34.5715 93.9541 33.6477 94.2169 32.4192C94.7424 29.9624 95.5308 26.2895 96.5821 21.4002L94.6268 20.9798C93.5755 25.8692 92.7869 29.5429 92.2611 32.0008C91.9982 33.2296 91.8009 34.1551 91.6693 34.7769C91.6035 35.0875 91.5539 35.3235 91.5206 35.4838C91.5041 35.5637 91.4911 35.6268 91.4821 35.6718C91.4778 35.6938 91.4736 35.7149 91.4703 35.7328C91.4688 35.7411 91.4664 35.754 91.4641 35.768C91.4631 35.7746 91.461 35.7875 91.459 35.8033C91.458 35.8112 91.4563 35.8245 91.4548 35.8409C91.4537 35.8528 91.4505 35.8884 91.4505 35.934H93.4505ZM96.5837 21.3926C96.6161 21.2361 96.8556 20.81 98.1519 20.3942L97.5411 18.4898C96.1521 18.9353 94.8968 19.6746 94.6252 20.9874L96.5837 21.3926ZM98.1556 20.393C99.0743 20.0945 99.9834 19.948 100.886 19.948V17.948C99.7629 17.948 98.6454 18.1309 97.5374 18.491L98.1556 20.393ZM100.886 19.948H118.404V17.948H100.886V19.948ZM118.404 19.948C119.184 19.948 119.955 20.0703 120.719 20.3174L121.334 18.4146C120.376 18.1044 119.398 17.948 118.404 17.948V19.948ZM120.722 20.3187C121.258 20.4897 121.563 20.6611 121.718 20.7925C121.789 20.8534 121.811 20.8908 121.814 20.8977C121.816 20.9009 121.815 20.8996 121.814 20.8946C121.813 20.8895 121.812 20.886 121.812 20.886H123.812C123.812 20.2088 123.478 19.6643 123.014 19.2695C122.573 18.8942 121.985 18.6223 121.331 18.4133L120.722 20.3187ZM121.812 20.886C121.812 20.8071 121.824 20.7543 121.815 20.8127C121.811 20.8402 121.803 20.8847 121.791 20.9497C121.767 21.0787 121.731 21.2658 121.68 21.514C121.58 22.0092 121.429 22.7303 121.226 23.6794L123.182 24.0966C123.385 23.1457 123.538 22.4165 123.641 21.911C123.692 21.6589 123.731 21.4581 123.758 21.3115C123.771 21.2388 123.783 21.1737 123.791 21.1197C123.795 21.0965 123.812 20.9903 123.812 20.886H121.812ZM122.204 22.888H114.946V24.888H122.204V22.888ZM115.921 24.1108L116.225 22.7808L114.276 22.3352L113.972 23.6652L115.921 24.1108ZM115.25 21.558H102.52V23.558H115.25V21.558ZM101.542 22.3521L99.0719 34.0941L101.029 34.5059L103.499 22.7639L101.542 22.3521ZM100.05 35.3H112.742V33.3H100.05V35.3ZM113.717 34.5228L114.021 33.1928L112.072 32.7472L111.768 34.0772L113.717 34.5228ZM113.046 33.97H120.266V31.97H113.046V33.97ZM119.288 32.766L118.718 35.502L120.675 35.91L121.245 33.174L119.288 32.766ZM118.719 35.4965C118.684 35.6584 118.455 36.0632 117.279 36.4712L117.934 38.3608C119.241 37.9075 120.405 37.1723 120.674 35.9155L118.719 35.4965ZM117.269 36.4748C116.376 36.7952 115.528 36.948 114.718 36.948V38.948C115.784 38.948 116.861 38.7461 117.944 38.3572L117.269 36.4748Z" fill="url(#paint0_linear_309_79)"/>
</g>
<g filter="url(#filter1_f_309_79)">
<path d="M42.156 41.71V42.71H43.0169L43.1449 41.8587L42.156 41.71ZM15.024 41.71L14.0353 41.5601L13.8609 42.71H15.024V41.71ZM19.052 15.148V14.148H18.1922L18.0633 14.9981L19.052 15.148ZM46.184 15.148L47.1729 15.2967L47.3456 14.148H46.184V15.148ZM45.424 20.202V21.202H46.2849L46.4129 20.3507L45.424 20.202ZM25.474 20.202V19.202H24.6152L24.4855 20.051L25.474 20.202ZM24.638 25.674L23.6495 25.523L23.4736 26.674H24.638V25.674ZM37.33 25.674L38.3189 25.8227L38.4916 24.674H37.33V25.674ZM36.57 30.728V31.728H37.4309L37.5589 30.8767L36.57 30.728ZM23.878 30.728V29.728H23.0146L22.8887 30.5821L23.878 30.728ZM23.004 36.656L22.0147 36.5101L21.8458 37.656H23.004V36.656ZM42.916 36.656L43.9049 36.8047L44.0776 35.656H42.916V36.656ZM42.156 40.71H15.024V42.71H42.156V40.71ZM16.0127 41.8599L20.0407 15.2979L18.0633 14.9981L14.0353 41.5601L16.0127 41.8599ZM19.052 16.148H46.184V14.148H19.052V16.148ZM45.1951 14.9993L44.4351 20.0533L46.4129 20.3507L47.1729 15.2967L45.1951 14.9993ZM45.424 19.202H25.474V21.202H45.424V19.202ZM24.4855 20.051L23.6495 25.523L25.6265 25.825L26.4625 20.353L24.4855 20.051ZM24.638 26.674H37.33V24.674H24.638V26.674ZM36.3411 25.5253L35.5811 30.5793L37.5589 30.8767L38.3189 25.8227L36.3411 25.5253ZM36.57 29.728H23.878V31.728H36.57V29.728ZM22.8887 30.5821L22.0147 36.5101L23.9933 36.8019L24.8673 30.8739L22.8887 30.5821ZM23.004 37.656H42.916V35.656H23.004V37.656ZM41.9271 36.5073L41.1671 41.5613L43.1449 41.8587L43.9049 36.8047L41.9271 36.5073ZM56.1038 30.082V29.082H55.2948L55.1258 29.8731L56.1038 30.082ZM54.4318 37.91V38.91H55.2407L55.4097 38.1189L54.4318 37.91ZM47.2498 37.91L46.2716 37.7022L46.015 38.91H47.2498V37.91ZM51.2778 18.948V17.948H50.4679L50.2996 18.7402L51.2778 18.948ZM76.2058 19.366L75.898 20.3175L75.9017 20.3187L76.2058 19.366ZM76.5478 27.84L77.5256 28.0495L77.526 28.0477L76.5478 27.84ZM74.4578 29.55L74.13 28.6052L74.1274 28.6061L74.4578 29.55ZM69.5558 26.434V27.434H70.3631L70.5333 26.6448L69.5558 26.434ZM70.3918 22.558L71.3693 22.7688L71.6305 21.558H70.3918V22.558ZM57.7378 22.558V21.558H56.9227L56.7583 22.3563L57.7378 22.558ZM56.9398 26.434L55.9603 26.2323L55.7129 27.434H56.9398V26.434ZM55.1258 29.8731L53.4538 37.7011L55.4097 38.1189L57.0817 30.2909L55.1258 29.8731ZM54.4318 36.91H47.2498V38.91H54.4318V36.91ZM48.228 38.1178L52.256 19.1558L50.2996 18.7402L46.2716 37.7022L48.228 38.1178ZM51.2778 19.948H73.5838V17.948H51.2778V19.948ZM73.5838 19.948C74.3637 19.948 75.134 20.0703 75.898 20.3174L76.5136 18.4146C75.5549 18.1044 74.5772 17.948 73.5838 17.948V19.948ZM75.9017 20.3187C76.4376 20.4897 76.7427 20.6611 76.8972 20.7925C76.9687 20.8534 76.9902 20.8908 76.9937 20.8977C76.9955 20.9009 76.9944 20.8996 76.9931 20.8946C76.9919 20.8895 76.9918 20.886 76.9918 20.886H78.9918C78.9918 20.2088 78.6573 19.6643 78.1934 19.2695C77.7525 18.8942 77.1646 18.6223 76.5098 18.4133L75.9017 20.3187ZM76.9918 20.886C76.9918 20.7962 77.0065 20.724 76.9985 20.774C76.9966 20.7861 76.9926 20.8094 76.9857 20.8473C76.972 20.922 76.9505 21.0328 76.9208 21.1825C76.8614 21.4807 76.7718 21.9184 76.6517 22.4972C76.4115 23.6539 76.0508 25.3654 75.5696 27.6323L77.526 28.0477C78.0074 25.78 78.3688 24.0651 78.6099 22.9038C78.7304 22.3236 78.8213 21.8793 78.8823 21.5728C78.9127 21.42 78.9364 21.2977 78.9528 21.2085C78.9609 21.1645 78.9681 21.1232 78.9737 21.088C78.9765 21.0708 78.9797 21.0492 78.9826 21.0264C78.9836 21.0185 78.9918 20.9579 78.9918 20.886H76.9918ZM75.57 27.6305C75.5353 27.7924 75.3062 28.1972 74.13 28.6052L74.7856 30.4948C76.0921 30.0415 77.2563 29.3063 77.5256 28.0495L75.57 27.6305ZM74.1274 28.6061C73.2019 28.9301 72.3513 29.082 71.5698 29.082V31.082C72.6122 31.082 73.687 30.8793 74.7881 30.4939L74.1274 28.6061ZM71.5698 29.082H56.1038V31.082H71.5698V29.082ZM70.5333 26.6448L71.3693 22.7688L69.4143 22.3472L68.5783 26.2232L70.5333 26.6448ZM70.3918 21.558H57.7378V23.558H70.3918V21.558ZM56.7583 22.3563L55.9603 26.2323L57.9192 26.6357L58.7172 22.7597L56.7583 22.3563ZM56.9398 27.434H69.5558V25.434H56.9398V27.434ZM86.6576 37.91V38.91H87.4659L87.6353 38.1197L86.6576 37.91ZM79.4756 37.91L78.4974 37.7022L78.2408 38.91H79.4756V37.91ZM83.5036 18.948V17.948H82.6937L82.5254 18.7402L83.5036 18.948ZM90.7236 18.948L91.7013 19.1577L91.9607 17.948H90.7236V18.948ZM86.6576 36.91H79.4756V38.91H86.6576V36.91ZM80.4537 38.1178L84.4817 19.1558L82.5254 18.7402L78.4974 37.7022L80.4537 38.1178ZM83.5036 19.948H90.7236V17.948H83.5036V19.948ZM89.7458 18.7383L85.6798 37.7003L87.6353 38.1197L91.7013 19.1577L89.7458 18.7383ZM94.0465 37.492L94.3882 36.5522L94.3828 36.5503L94.0465 37.492ZM95.6045 21.19L96.5822 21.4002L96.5837 21.3926L95.6045 21.19ZM97.8465 19.442L98.1519 20.3942L98.1556 20.393L97.8465 19.442ZM121.026 19.366L120.719 20.3175L120.722 20.3187L121.026 19.366ZM122.204 23.888V24.888H123.014L123.182 24.0966L122.204 23.888ZM114.946 23.888L113.972 23.6652L113.692 24.888H114.946V23.888ZM115.25 22.558L116.225 22.7808L116.505 21.558H115.25V22.558ZM102.52 22.558V21.558H101.709L101.542 22.3521L102.52 22.558ZM100.05 34.3L99.0719 34.0941L98.8182 35.3H100.05V34.3ZM112.742 34.3V35.3H113.54L113.717 34.5228L112.742 34.3ZM113.046 32.97V31.97H112.249L112.072 32.7472L113.046 32.97ZM120.266 32.97L121.245 33.174L121.496 31.97H120.266V32.97ZM119.696 35.706L120.674 35.9155L120.675 35.91L119.696 35.706ZM117.606 37.416L117.279 36.4712L117.269 36.4748L117.606 37.416ZM114.718 36.948H96.5165V38.948H114.718V36.948ZM96.5165 36.948C95.8332 36.948 95.1253 36.8202 94.3882 36.5522L93.7047 38.4318C94.6396 38.7718 95.5785 38.948 96.5165 38.948V36.948ZM94.3828 36.5503C93.9226 36.3859 93.6715 36.2225 93.548 36.1019C93.4476 36.0039 93.4505 35.9582 93.4505 35.934H91.4505C91.4505 37.2741 92.5652 38.0248 93.7101 38.4337L94.3828 36.5503ZM93.4505 35.934C93.4505 35.9792 93.4473 36.0143 93.4463 36.0254C93.4448 36.0412 93.4433 36.0536 93.4424 36.0605C93.4406 36.0744 93.4389 36.0847 93.4384 36.0881C93.4371 36.0958 93.4363 36.0999 93.4368 36.0972C93.4376 36.0929 93.4396 36.0824 93.4435 36.0632C93.4509 36.0258 93.4626 35.9687 93.4789 35.8902C93.5113 35.7339 93.5603 35.5012 93.6259 35.1911C93.7571 34.5715 93.9541 33.6477 94.2169 32.4192C94.7424 29.9624 95.5308 26.2895 96.5821 21.4002L94.6268 20.9798C93.5755 25.8692 92.7869 29.5429 92.2611 32.0008C91.9982 33.2296 91.8009 34.1551 91.6693 34.7769C91.6035 35.0875 91.5539 35.3235 91.5206 35.4838C91.5041 35.5637 91.4911 35.6268 91.4821 35.6718C91.4778 35.6938 91.4736 35.7149 91.4703 35.7328C91.4688 35.7411 91.4664 35.754 91.4641 35.768C91.4631 35.7746 91.461 35.7875 91.459 35.8033C91.458 35.8112 91.4563 35.8245 91.4548 35.8409C91.4537 35.8528 91.4505 35.8884 91.4505 35.934H93.4505ZM96.5837 21.3926C96.6161 21.2361 96.8556 20.81 98.1519 20.3942L97.5411 18.4898C96.1521 18.9353 94.8968 19.6746 94.6252 20.9874L96.5837 21.3926ZM98.1556 20.393C99.0743 20.0945 99.9834 19.948 100.886 19.948V17.948C99.7629 17.948 98.6454 18.1309 97.5374 18.491L98.1556 20.393ZM100.886 19.948H118.404V17.948H100.886V19.948ZM118.404 19.948C119.184 19.948 119.955 20.0703 120.719 20.3174L121.334 18.4146C120.376 18.1044 119.398 17.948 118.404 17.948V19.948ZM120.722 20.3187C121.258 20.4897 121.563 20.6611 121.718 20.7925C121.789 20.8534 121.811 20.8908 121.814 20.8977C121.816 20.9009 121.815 20.8996 121.814 20.8946C121.813 20.8895 121.812 20.886 121.812 20.886H123.812C123.812 20.2088 123.478 19.6643 123.014 19.2695C122.573 18.8942 121.985 18.6223 121.331 18.4133L120.722 20.3187ZM121.812 20.886C121.812 20.8071 121.824 20.7543 121.815 20.8127C121.811 20.8402 121.803 20.8847 121.791 20.9497C121.767 21.0787 121.731 21.2658 121.68 21.514C121.58 22.0092 121.429 22.7303 121.226 23.6794L123.182 24.0966C123.385 23.1457 123.538 22.4165 123.641 21.911C123.692 21.6589 123.731 21.4581 123.758 21.3115C123.771 21.2388 123.783 21.1737 123.791 21.1197C123.795 21.0965 123.812 20.9903 123.812 20.886H121.812ZM122.204 22.888H114.946V24.888H122.204V22.888ZM115.921 24.1108L116.225 22.7808L114.276 22.3352L113.972 23.6652L115.921 24.1108ZM115.25 21.558H102.52V23.558H115.25V21.558ZM101.542 22.3521L99.0719 34.0941L101.029 34.5059L103.499 22.7639L101.542 22.3521ZM100.05 35.3H112.742V33.3H100.05V35.3ZM113.717 34.5228L114.021 33.1928L112.072 32.7472L111.768 34.0772L113.717 34.5228ZM113.046 33.97H120.266V31.97H113.046V33.97ZM119.288 32.766L118.718 35.502L120.675 35.91L121.245 33.174L119.288 32.766ZM118.719 35.4965C118.684 35.6584 118.455 36.0632 117.279 36.4712L117.934 38.3608C119.241 37.9075 120.405 37.1723 120.674 35.9155L118.719 35.4965ZM117.269 36.4748C116.376 36.7952 115.528 36.948 114.718 36.948V38.948C115.784 38.948 116.861 38.7461 117.944 38.3572L117.269 36.4748Z" fill="url(#paint1_linear_309_79)"/>
</g>
<g filter="url(#filter2_f_309_79)">
<path d="M42.156 41.71V42.71H43.0169L43.1449 41.8587L42.156 41.71ZM15.024 41.71L14.0353 41.5601L13.8609 42.71H15.024V41.71ZM19.052 15.148V14.148H18.1922L18.0633 14.9981L19.052 15.148ZM46.184 15.148L47.1729 15.2967L47.3456 14.148H46.184V15.148ZM45.424 20.202V21.202H46.2849L46.4129 20.3507L45.424 20.202ZM25.474 20.202V19.202H24.6152L24.4855 20.051L25.474 20.202ZM24.638 25.674L23.6495 25.523L23.4736 26.674H24.638V25.674ZM37.33 25.674L38.3189 25.8227L38.4916 24.674H37.33V25.674ZM36.57 30.728V31.728H37.4309L37.5589 30.8767L36.57 30.728ZM23.878 30.728V29.728H23.0146L22.8887 30.5821L23.878 30.728ZM23.004 36.656L22.0147 36.5101L21.8458 37.656H23.004V36.656ZM42.916 36.656L43.9049 36.8047L44.0776 35.656H42.916V36.656ZM42.156 40.71H15.024V42.71H42.156V40.71ZM16.0127 41.8599L20.0407 15.2979L18.0633 14.9981L14.0353 41.5601L16.0127 41.8599ZM19.052 16.148H46.184V14.148H19.052V16.148ZM45.1951 14.9993L44.4351 20.0533L46.4129 20.3507L47.1729 15.2967L45.1951 14.9993ZM45.424 19.202H25.474V21.202H45.424V19.202ZM24.4855 20.051L23.6495 25.523L25.6265 25.825L26.4625 20.353L24.4855 20.051ZM24.638 26.674H37.33V24.674H24.638V26.674ZM36.3411 25.5253L35.5811 30.5793L37.5589 30.8767L38.3189 25.8227L36.3411 25.5253ZM36.57 29.728H23.878V31.728H36.57V29.728ZM22.8887 30.5821L22.0147 36.5101L23.9933 36.8019L24.8673 30.8739L22.8887 30.5821ZM23.004 37.656H42.916V35.656H23.004V37.656ZM41.9271 36.5073L41.1671 41.5613L43.1449 41.8587L43.9049 36.8047L41.9271 36.5073ZM56.1038 30.082V29.082H55.2948L55.1258 29.8731L56.1038 30.082ZM54.4318 37.91V38.91H55.2407L55.4097 38.1189L54.4318 37.91ZM47.2498 37.91L46.2716 37.7022L46.015 38.91H47.2498V37.91ZM51.2778 18.948V17.948H50.4679L50.2996 18.7402L51.2778 18.948ZM76.2058 19.366L75.898 20.3175L75.9017 20.3187L76.2058 19.366ZM76.5478 27.84L77.5256 28.0495L77.526 28.0477L76.5478 27.84ZM74.4578 29.55L74.13 28.6052L74.1274 28.6061L74.4578 29.55ZM69.5558 26.434V27.434H70.3631L70.5333 26.6448L69.5558 26.434ZM70.3918 22.558L71.3693 22.7688L71.6305 21.558H70.3918V22.558ZM57.7378 22.558V21.558H56.9227L56.7583 22.3563L57.7378 22.558ZM56.9398 26.434L55.9603 26.2323L55.7129 27.434H56.9398V26.434ZM55.1258 29.8731L53.4538 37.7011L55.4097 38.1189L57.0817 30.2909L55.1258 29.8731ZM54.4318 36.91H47.2498V38.91H54.4318V36.91ZM48.228 38.1178L52.256 19.1558L50.2996 18.7402L46.2716 37.7022L48.228 38.1178ZM51.2778 19.948H73.5838V17.948H51.2778V19.948ZM73.5838 19.948C74.3637 19.948 75.134 20.0703 75.898 20.3174L76.5136 18.4146C75.5549 18.1044 74.5772 17.948 73.5838 17.948V19.948ZM75.9017 20.3187C76.4376 20.4897 76.7427 20.6611 76.8972 20.7925C76.9687 20.8534 76.9902 20.8908 76.9937 20.8977C76.9955 20.9009 76.9944 20.8996 76.9931 20.8946C76.9919 20.8895 76.9918 20.886 76.9918 20.886H78.9918C78.9918 20.2088 78.6573 19.6643 78.1934 19.2695C77.7525 18.8942 77.1646 18.6223 76.5098 18.4133L75.9017 20.3187ZM76.9918 20.886C76.9918 20.7962 77.0065 20.724 76.9985 20.774C76.9966 20.7861 76.9926 20.8094 76.9857 20.8473C76.972 20.922 76.9505 21.0328 76.9208 21.1825C76.8614 21.4807 76.7718 21.9184 76.6517 22.4972C76.4115 23.6539 76.0508 25.3654 75.5696 27.6323L77.526 28.0477C78.0074 25.78 78.3688 24.0651 78.6099 22.9038C78.7304 22.3236 78.8213 21.8793 78.8823 21.5728C78.9127 21.42 78.9364 21.2977 78.9528 21.2085C78.9609 21.1645 78.9681 21.1232 78.9737 21.088C78.9765 21.0708 78.9797 21.0492 78.9826 21.0264C78.9836 21.0185 78.9918 20.9579 78.9918 20.886H76.9918ZM75.57 27.6305C75.5353 27.7924 75.3062 28.1972 74.13 28.6052L74.7856 30.4948C76.0921 30.0415 77.2563 29.3063 77.5256 28.0495L75.57 27.6305ZM74.1274 28.6061C73.2019 28.9301 72.3513 29.082 71.5698 29.082V31.082C72.6122 31.082 73.687 30.8793 74.7881 30.4939L74.1274 28.6061ZM71.5698 29.082H56.1038V31.082H71.5698V29.082ZM70.5333 26.6448L71.3693 22.7688L69.4143 22.3472L68.5783 26.2232L70.5333 26.6448ZM70.3918 21.558H57.7378V23.558H70.3918V21.558ZM56.7583 22.3563L55.9603 26.2323L57.9192 26.6357L58.7172 22.7597L56.7583 22.3563ZM56.9398 27.434H69.5558V25.434H56.9398V27.434ZM86.6576 37.91V38.91H87.4659L87.6353 38.1197L86.6576 37.91ZM79.4756 37.91L78.4974 37.7022L78.2408 38.91H79.4756V37.91ZM83.5036 18.948V17.948H82.6937L82.5254 18.7402L83.5036 18.948ZM90.7236 18.948L91.7013 19.1577L91.9607 17.948H90.7236V18.948ZM86.6576 36.91H79.4756V38.91H86.6576V36.91ZM80.4537 38.1178L84.4817 19.1558L82.5254 18.7402L78.4974 37.7022L80.4537 38.1178ZM83.5036 19.948H90.7236V17.948H83.5036V19.948ZM89.7458 18.7383L85.6798 37.7003L87.6353 38.1197L91.7013 19.1577L89.7458 18.7383ZM94.0465 37.492L94.3882 36.5522L94.3828 36.5503L94.0465 37.492ZM95.6045 21.19L96.5822 21.4002L96.5837 21.3926L95.6045 21.19ZM97.8465 19.442L98.1519 20.3942L98.1556 20.393L97.8465 19.442ZM121.026 19.366L120.719 20.3175L120.722 20.3187L121.026 19.366ZM122.204 23.888V24.888H123.014L123.182 24.0966L122.204 23.888ZM114.946 23.888L113.972 23.6652L113.692 24.888H114.946V23.888ZM115.25 22.558L116.225 22.7808L116.505 21.558H115.25V22.558ZM102.52 22.558V21.558H101.709L101.542 22.3521L102.52 22.558ZM100.05 34.3L99.0719 34.0941L98.8182 35.3H100.05V34.3ZM112.742 34.3V35.3H113.54L113.717 34.5228L112.742 34.3ZM113.046 32.97V31.97H112.249L112.072 32.7472L113.046 32.97ZM120.266 32.97L121.245 33.174L121.496 31.97H120.266V32.97ZM119.696 35.706L120.674 35.9155L120.675 35.91L119.696 35.706ZM117.606 37.416L117.279 36.4712L117.269 36.4748L117.606 37.416ZM114.718 36.948H96.5165V38.948H114.718V36.948ZM96.5165 36.948C95.8332 36.948 95.1253 36.8202 94.3882 36.5522L93.7047 38.4318C94.6396 38.7718 95.5785 38.948 96.5165 38.948V36.948ZM94.3828 36.5503C93.9226 36.3859 93.6715 36.2225 93.548 36.1019C93.4476 36.0039 93.4505 35.9582 93.4505 35.934H91.4505C91.4505 37.2741 92.5652 38.0248 93.7101 38.4337L94.3828 36.5503ZM93.4505 35.934C93.4505 35.9792 93.4473 36.0143 93.4463 36.0254C93.4448 36.0412 93.4433 36.0536 93.4424 36.0605C93.4406 36.0744 93.4389 36.0847 93.4384 36.0881C93.4371 36.0958 93.4363 36.0999 93.4368 36.0972C93.4376 36.0929 93.4396 36.0824 93.4435 36.0632C93.4509 36.0258 93.4626 35.9687 93.4789 35.8902C93.5113 35.7339 93.5603 35.5012 93.6259 35.1911C93.7571 34.5715 93.9541 33.6477 94.2169 32.4192C94.7424 29.9624 95.5308 26.2895 96.5821 21.4002L94.6268 20.9798C93.5755 25.8692 92.7869 29.5429 92.2611 32.0008C91.9982 33.2296 91.8009 34.1551 91.6693 34.7769C91.6035 35.0875 91.5539 35.3235 91.5206 35.4838C91.5041 35.5637 91.4911 35.6268 91.4821 35.6718C91.4778 35.6938 91.4736 35.7149 91.4703 35.7328C91.4688 35.7411 91.4664 35.754 91.4641 35.768C91.4631 35.7746 91.461 35.7875 91.459 35.8033C91.458 35.8112 91.4563 35.8245 91.4548 35.8409C91.4537 35.8528 91.4505 35.8884 91.4505 35.934H93.4505ZM96.5837 21.3926C96.6161 21.2361 96.8556 20.81 98.1519 20.3942L97.5411 18.4898C96.1521 18.9353 94.8968 19.6746 94.6252 20.9874L96.5837 21.3926ZM98.1556 20.393C99.0743 20.0945 99.9834 19.948 100.886 19.948V17.948C99.7629 17.948 98.6454 18.1309 97.5374 18.491L98.1556 20.393ZM100.886 19.948H118.404V17.948H100.886V19.948ZM118.404 19.948C119.184 19.948 119.955 20.0703 120.719 20.3174L121.334 18.4146C120.376 18.1044 119.398 17.948 118.404 17.948V19.948ZM120.722 20.3187C121.258 20.4897 121.563 20.6611 121.718 20.7925C121.789 20.8534 121.811 20.8908 121.814 20.8977C121.816 20.9009 121.815 20.8996 121.814 20.8946C121.813 20.8895 121.812 20.886 121.812 20.886H123.812C123.812 20.2088 123.478 19.6643 123.014 19.2695C122.573 18.8942 121.985 18.6223 121.331 18.4133L120.722 20.3187ZM121.812 20.886C121.812 20.8071 121.824 20.7543 121.815 20.8127C121.811 20.8402 121.803 20.8847 121.791 20.9497C121.767 21.0787 121.731 21.2658 121.68 21.514C121.58 22.0092 121.429 22.7303 121.226 23.6794L123.182 24.0966C123.385 23.1457 123.538 22.4165 123.641 21.911C123.692 21.6589 123.731 21.4581 123.758 21.3115C123.771 21.2388 123.783 21.1737 123.791 21.1197C123.795 21.0965 123.812 20.9903 123.812 20.886H121.812ZM122.204 22.888H114.946V24.888H122.204V22.888ZM115.921 24.1108L116.225 22.7808L114.276 22.3352L113.972 23.6652L115.921 24.1108ZM115.25 21.558H102.52V23.558H115.25V21.558ZM101.542 22.3521L99.0719 34.0941L101.029 34.5059L103.499 22.7639L101.542 22.3521ZM100.05 35.3H112.742V33.3H100.05V35.3ZM113.717 34.5228L114.021 33.1928L112.072 32.7472L111.768 34.0772L113.717 34.5228ZM113.046 33.97H120.266V31.97H113.046V33.97ZM119.288 32.766L118.718 35.502L120.675 35.91L121.245 33.174L119.288 32.766ZM118.719 35.4965C118.684 35.6584 118.455 36.0632 117.279 36.4712L117.934 38.3608C119.241 37.9075 120.405 37.1723 120.674 35.9155L118.719 35.4965ZM117.269 36.4748C116.376 36.7952 115.528 36.948 114.718 36.948V38.948C115.784 38.948 116.861 38.7461 117.944 38.3572L117.269 36.4748Z" fill="url(#paint2_linear_309_79)"/>
</g>
<path d="M42.156 41.71V42.71H43.0169L43.1449 41.8587L42.156 41.71ZM15.024 41.71L14.0353 41.5601L13.8609 42.71H15.024V41.71ZM19.052 15.148V14.148H18.1922L18.0633 14.9981L19.052 15.148ZM46.184 15.148L47.1729 15.2967L47.3456 14.148H46.184V15.148ZM45.424 20.202V21.202H46.2849L46.4129 20.3507L45.424 20.202ZM25.474 20.202V19.202H24.6152L24.4855 20.051L25.474 20.202ZM24.638 25.674L23.6495 25.523L23.4736 26.674H24.638V25.674ZM37.33 25.674L38.3189 25.8227L38.4916 24.674H37.33V25.674ZM36.57 30.728V31.728H37.4309L37.5589 30.8767L36.57 30.728ZM23.878 30.728V29.728H23.0146L22.8887 30.5821L23.878 30.728ZM23.004 36.656L22.0147 36.5101L21.8458 37.656H23.004V36.656ZM42.916 36.656L43.9049 36.8047L44.0776 35.656H42.916V36.656ZM42.156 40.71H15.024V42.71H42.156V40.71ZM16.0127 41.8599L20.0407 15.2979L18.0633 14.9981L14.0353 41.5601L16.0127 41.8599ZM19.052 16.148H46.184V14.148H19.052V16.148ZM45.1951 14.9993L44.4351 20.0533L46.4129 20.3507L47.1729 15.2967L45.1951 14.9993ZM45.424 19.202H25.474V21.202H45.424V19.202ZM24.4855 20.051L23.6495 25.523L25.6265 25.825L26.4625 20.353L24.4855 20.051ZM24.638 26.674H37.33V24.674H24.638V26.674ZM36.3411 25.5253L35.5811 30.5793L37.5589 30.8767L38.3189 25.8227L36.3411 25.5253ZM36.57 29.728H23.878V31.728H36.57V29.728ZM22.8887 30.5821L22.0147 36.5101L23.9933 36.8019L24.8673 30.8739L22.8887 30.5821ZM23.004 37.656H42.916V35.656H23.004V37.656ZM41.9271 36.5073L41.1671 41.5613L43.1449 41.8587L43.9049 36.8047L41.9271 36.5073ZM56.1038 30.082V29.082H55.2948L55.1258 29.8731L56.1038 30.082ZM54.4318 37.91V38.91H55.2407L55.4097 38.1189L54.4318 37.91ZM47.2498 37.91L46.2716 37.7022L46.015 38.91H47.2498V37.91ZM51.2778 18.948V17.948H50.4679L50.2996 18.7402L51.2778 18.948ZM76.2058 19.366L75.898 20.3175L75.9017 20.3187L76.2058 19.366ZM76.5478 27.84L77.5256 28.0495L77.526 28.0477L76.5478 27.84ZM74.4578 29.55L74.13 28.6052L74.1274 28.6061L74.4578 29.55ZM69.5558 26.434V27.434H70.3631L70.5333 26.6448L69.5558 26.434ZM70.3918 22.558L71.3693 22.7688L71.6305 21.558H70.3918V22.558ZM57.7378 22.558V21.558H56.9227L56.7583 22.3563L57.7378 22.558ZM56.9398 26.434L55.9603 26.2323L55.7129 27.434H56.9398V26.434ZM55.1258 29.8731L53.4538 37.7011L55.4097 38.1189L57.0817 30.2909L55.1258 29.8731ZM54.4318 36.91H47.2498V38.91H54.4318V36.91ZM48.228 38.1178L52.256 19.1558L50.2996 18.7402L46.2716 37.7022L48.228 38.1178ZM51.2778 19.948H73.5838V17.948H51.2778V19.948ZM73.5838 19.948C74.3637 19.948 75.134 20.0703 75.898 20.3174L76.5136 18.4146C75.5549 18.1044 74.5772 17.948 73.5838 17.948V19.948ZM75.9017 20.3187C76.4376 20.4897 76.7427 20.6611 76.8972 20.7925C76.9687 20.8534 76.9902 20.8908 76.9937 20.8977C76.9955 20.9009 76.9944 20.8996 76.9931 20.8946C76.9919 20.8895 76.9918 20.886 76.9918 20.886H78.9918C78.9918 20.2088 78.6573 19.6643 78.1934 19.2695C77.7525 18.8942 77.1646 18.6223 76.5098 18.4133L75.9017 20.3187ZM76.9918 20.886C76.9918 20.7962 77.0065 20.724 76.9985 20.774C76.9966 20.7861 76.9926 20.8094 76.9857 20.8473C76.972 20.922 76.9505 21.0328 76.9208 21.1825C76.8614 21.4807 76.7718 21.9184 76.6517 22.4972C76.4115 23.6539 76.0508 25.3654 75.5696 27.6323L77.526 28.0477C78.0074 25.78 78.3688 24.0651 78.6099 22.9038C78.7304 22.3236 78.8213 21.8793 78.8823 21.5728C78.9127 21.42 78.9364 21.2977 78.9528 21.2085C78.9609 21.1645 78.9681 21.1232 78.9737 21.088C78.9765 21.0708 78.9797 21.0492 78.9826 21.0264C78.9836 21.0185 78.9918 20.9579 78.9918 20.886H76.9918ZM75.57 27.6305C75.5353 27.7924 75.3062 28.1972 74.13 28.6052L74.7856 30.4948C76.0921 30.0415 77.2563 29.3063 77.5256 28.0495L75.57 27.6305ZM74.1274 28.6061C73.2019 28.9301 72.3513 29.082 71.5698 29.082V31.082C72.6122 31.082 73.687 30.8793 74.7881 30.4939L74.1274 28.6061ZM71.5698 29.082H56.1038V31.082H71.5698V29.082ZM70.5333 26.6448L71.3693 22.7688L69.4143 22.3472L68.5783 26.2232L70.5333 26.6448ZM70.3918 21.558H57.7378V23.558H70.3918V21.558ZM56.7583 22.3563L55.9603 26.2323L57.9192 26.6357L58.7172 22.7597L56.7583 22.3563ZM56.9398 27.434H69.5558V25.434H56.9398V27.434ZM86.6576 37.91V38.91H87.4659L87.6353 38.1197L86.6576 37.91ZM79.4756 37.91L78.4974 37.7022L78.2408 38.91H79.4756V37.91ZM83.5036 18.948V17.948H82.6937L82.5254 18.7402L83.5036 18.948ZM90.7236 18.948L91.7013 19.1577L91.9607 17.948H90.7236V18.948ZM86.6576 36.91H79.4756V38.91H86.6576V36.91ZM80.4537 38.1178L84.4817 19.1558L82.5254 18.7402L78.4974 37.7022L80.4537 38.1178ZM83.5036 19.948H90.7236V17.948H83.5036V19.948ZM89.7458 18.7383L85.6798 37.7003L87.6353 38.1197L91.7013 19.1577L89.7458 18.7383ZM94.0465 37.492L94.3882 36.5522L94.3828 36.5503L94.0465 37.492ZM95.6045 21.19L96.5822 21.4002L96.5837 21.3926L95.6045 21.19ZM97.8465 19.442L98.1519 20.3942L98.1556 20.393L97.8465 19.442ZM121.026 19.366L120.719 20.3175L120.722 20.3187L121.026 19.366ZM122.204 23.888V24.888H123.014L123.182 24.0966L122.204 23.888ZM114.946 23.888L113.972 23.6652L113.692 24.888H114.946V23.888ZM115.25 22.558L116.225 22.7808L116.505 21.558H115.25V22.558ZM102.52 22.558V21.558H101.709L101.542 22.3521L102.52 22.558ZM100.05 34.3L99.0719 34.0941L98.8182 35.3H100.05V34.3ZM112.742 34.3V35.3H113.54L113.717 34.5228L112.742 34.3ZM113.046 32.97V31.97H112.249L112.072 32.7472L113.046 32.97ZM120.266 32.97L121.245 33.174L121.496 31.97H120.266V32.97ZM119.696 35.706L120.674 35.9155L120.675 35.91L119.696 35.706ZM117.606 37.416L117.279 36.4712L117.269 36.4748L117.606 37.416ZM114.718 36.948H96.5165V38.948H114.718V36.948ZM96.5165 36.948C95.8332 36.948 95.1253 36.8202 94.3882 36.5522L93.7047 38.4318C94.6396 38.7718 95.5785 38.948 96.5165 38.948V36.948ZM94.3828 36.5503C93.9226 36.3859 93.6715 36.2225 93.548 36.1019C93.4476 36.0039 93.4505 35.9582 93.4505 35.934H91.4505C91.4505 37.2741 92.5652 38.0248 93.7101 38.4337L94.3828 36.5503ZM93.4505 35.934C93.4505 35.9792 93.4473 36.0143 93.4463 36.0254C93.4448 36.0412 93.4433 36.0536 93.4424 36.0605C93.4406 36.0744 93.4389 36.0847 93.4384 36.0881C93.4371 36.0958 93.4363 36.0999 93.4368 36.0972C93.4376 36.0929 93.4396 36.0824 93.4435 36.0632C93.4509 36.0258 93.4626 35.9687 93.4789 35.8902C93.5113 35.7339 93.5603 35.5012 93.6259 35.1911C93.7571 34.5715 93.9541 33.6477 94.2169 32.4192C94.7424 29.9624 95.5308 26.2895 96.5821 21.4002L94.6268 20.9798C93.5755 25.8692 92.7869 29.5429 92.2611 32.0008C91.9982 33.2296 91.8009 34.1551 91.6693 34.7769C91.6035 35.0875 91.5539 35.3235 91.5206 35.4838C91.5041 35.5637 91.4911 35.6268 91.4821 35.6718C91.4778 35.6938 91.4736 35.7149 91.4703 35.7328C91.4688 35.7411 91.4664 35.754 91.4641 35.768C91.4631 35.7746 91.461 35.7875 91.459 35.8033C91.458 35.8112 91.4563 35.8245 91.4548 35.8409C91.4537 35.8528 91.4505 35.8884 91.4505 35.934H93.4505ZM96.5837 21.3926C96.6161 21.2361 96.8556 20.81 98.1519 20.3942L97.5411 18.4898C96.1521 18.9353 94.8968 19.6746 94.6252 20.9874L96.5837 21.3926ZM98.1556 20.393C99.0743 20.0945 99.9834 19.948 100.886 19.948V17.948C99.7629 17.948 98.6454 18.1309 97.5374 18.491L98.1556 20.393ZM100.886 19.948H118.404V17.948H100.886V19.948ZM118.404 19.948C119.184 19.948 119.955 20.0703 120.719 20.3174L121.334 18.4146C120.376 18.1044 119.398 17.948 118.404 17.948V19.948ZM120.722 20.3187C121.258 20.4897 121.563 20.6611 121.718 20.7925C121.789 20.8534 121.811 20.8908 121.814 20.8977C121.816 20.9009 121.815 20.8996 121.814 20.8946C121.813 20.8895 121.812 20.886 121.812 20.886H123.812C123.812 20.2088 123.478 19.6643 123.014 19.2695C122.573 18.8942 121.985 18.6223 121.331 18.4133L120.722 20.3187ZM121.812 20.886C121.812 20.8071 121.824 20.7543 121.815 20.8127C121.811 20.8402 121.803 20.8847 121.791 20.9497C121.767 21.0787 121.731 21.2658 121.68 21.514C121.58 22.0092 121.429 22.7303 121.226 23.6794L123.182 24.0966C123.385 23.1457 123.538 22.4165 123.641 21.911C123.692 21.6589 123.731 21.4581 123.758 21.3115C123.771 21.2388 123.783 21.1737 123.791 21.1197C123.795 21.0965 123.812 20.9903 123.812 20.886H121.812ZM122.204 22.888H114.946V24.888H122.204V22.888ZM115.921 24.1108L116.225 22.7808L114.276 22.3352L113.972 23.6652L115.921 24.1108ZM115.25 21.558H102.52V23.558H115.25V21.558ZM101.542 22.3521L99.0719 34.0941L101.029 34.5059L103.499 22.7639L101.542 22.3521ZM100.05 35.3H112.742V33.3H100.05V35.3ZM113.717 34.5228L114.021 33.1928L112.072 32.7472L111.768 34.0772L113.717 34.5228ZM113.046 33.97H120.266V31.97H113.046V33.97ZM119.288 32.766L118.718 35.502L120.675 35.91L121.245 33.174L119.288 32.766ZM118.719 35.4965C118.684 35.6584 118.455 36.0632 117.279 36.4712L117.934 38.3608C119.241 37.9075 120.405 37.1723 120.674 35.9155L118.719 35.4965ZM117.269 36.4748C116.376 36.7952 115.528 36.948 114.718 36.948V38.948C115.784 38.948 116.861 38.7461 117.944 38.3572L117.269 36.4748Z" fill="white"/>
<defs>
<filter id="filter0_f_309_79" x="5.02399" y="5.14844" width="127.788" height="46.5615" filterUnits="userSpaceOnUse" color-interpolation-filters="sRGB">
<feFlood flood-opacity="0" result="BackgroundImageFix"/>
<feBlend mode="normal" in="SourceGraphic" in2="BackgroundImageFix" result="shape"/>
<feGaussianBlur stdDeviation="5" result="effect1_foregroundBlur_309_79"/>
</filter>
<filter id="filter1_f_309_79" x="0.0239868" y="0.148438" width="137.788" height="56.5615" filterUnits="userSpaceOnUse" color-interpolation-filters="sRGB">
<feFlood flood-opacity="0" result="BackgroundImageFix"/>
<feBlend mode="normal" in="SourceGraphic" in2="BackgroundImageFix" result="shape"/>
<feGaussianBlur stdDeviation="7.5" result="effect1_foregroundBlur_309_79"/>
</filter>
<filter id="filter2_f_309_79" x="9.02399" y="9.14844" width="119.788" height="38.5615" filterUnits="userSpaceOnUse" color-interpolation-filters="sRGB">
<feFlood flood-opacity="0" result="BackgroundImageFix"/>
<feBlend mode="normal" in="SourceGraphic" in2="BackgroundImageFix" result="shape"/>
<feGaussianBlur stdDeviation="3" result="effect1_foregroundBlur_309_79"/>
</filter>
<linearGradient id="paint0_linear_309_79" x1="70" y1="10" x2="70" y2="48" gradientUnits="userSpaceOnUse">
<stop stop-color="#3BEDF9"/>
<stop offset="1" stop-color="#164FFF"/>
</linearGradient>
<linearGradient id="paint1_linear_309_79" x1="70" y1="10" x2="70" y2="48" gradientUnits="userSpaceOnUse">
<stop stop-color="#3BEDF9"/>
<stop offset="1" stop-color="#164FFF"/>
</linearGradient>
<linearGradient id="paint2_linear_309_79" x1="70" y1="10" x2="70" y2="48" gradientUnits="userSpaceOnUse">
<stop stop-color="#3BEDF9"/>
<stop offset="1" stop-color="#164FFF"/>
</linearGradient>
</defs>
</svg>
